<svg xmlns="http://www.w3.org/2000/svg" width="62" height="50" viewBox="0 0 62 50" fill="none"><path d="M60.8929 47.4067H58.0619V10.096C58.0619 9.8024 57.9452 9.5208 57.7376 9.31317C57.53 9.10554 57.2484 8.98889 56.9548 8.98889H49.5712C49.2776 8.98889 48.996 9.10554 48.7883 9.31317C48.5807 9.5208 48.4641 9.8024 48.4641 10.096V47.4067H43.2195V19.3086C43.2195 19.0149 43.1029 18.7333 42.8953 18.5257C42.6876 18.3181 42.406 18.2014 42.1124 18.2014H34.7311C34.4374 18.2014 34.1558 18.3181 33.9482 18.5257C33.7406 18.7333 33.6239 19.0149 33.6239 19.3086V47.4079H28.3761V26.2293C28.3761 25.9357 28.2594 25.6541 28.0518 25.4465C27.8442 25.2388 27.5626 25.1222 27.2689 25.1222H19.8865C19.5929 25.1222 19.3113 25.2388 19.1036 25.4465C18.896 25.6541 18.7794 25.9357 18.7794 26.2293V47.4056H13.5348V33.6771C13.5348 33.3834 13.4182 33.1018 13.2105 32.8942C13.0029 32.6866 12.7213 32.5699 12.4277 32.5699H5.04525C4.75162 32.5699 4.47001 32.6866 4.26238 32.8942C4.05475 33.1018 3.93811 33.3834 3.93811 33.6771V47.4056H1.10714C0.81351 47.4056 0.531904 47.5223 0.324275 47.7299C0.116645 47.9375 0 48.2192 0 48.5128C0 48.8064 0.116645 49.088 0.324275 49.2957C0.531904 49.5033 0.81351 49.6199 1.10714 49.6199C3.51739 49.6177 60.8929 49.6199 60.8929 49.6199C61.1865 49.6199 61.4681 49.5033 61.6757 49.2957C61.8834 49.088 62 48.8064 62 48.5128C62 48.2192 61.8834 47.9375 61.6757 47.7299C61.4681 47.5223 61.1865 47.4067 60.8929 47.4067ZM6.15239 47.4067V34.7853H11.3216V47.4067H6.15239ZM20.9947 47.4067V27.3376H26.1629V47.4067H20.9947ZM35.8371 47.4067V20.4157H41.0052V47.4079L35.8371 47.4067ZM50.6784 47.4067V11.2032H55.8476V47.4067H50.6784ZM14.188 20.8708C27.3907 19.7835 36.322 10.7636 40.4229 5.48479L40.1295 7.73339C40.093 8.02373 40.1729 8.31671 40.3518 8.5483C40.5306 8.77989 40.7939 8.93124 41.0841 8.96929C41.3742 9.00733 41.6676 8.92896 41.9001 8.75131C42.1327 8.57366 42.2854 8.31118 42.325 8.02125L43.2107 1.24775C43.2406 0.984594 43.175 0.719439 43.0259 0.50058C42.8767 0.281721 42.6539 0.123721 42.398 0.0553574C42.276 0.0274399 42.152 0.00893292 42.0271 0L35.216 0.531428C35.0678 0.53829 34.9226 0.574848 34.7888 0.638933C34.6551 0.703018 34.5356 0.793323 34.4374 0.904486C34.3392 1.01565 34.2644 1.14541 34.2173 1.28605C34.1702 1.4267 34.1519 1.57537 34.1634 1.72323C34.1749 1.8711 34.216 2.01514 34.2842 2.14682C34.3525 2.2785 34.4465 2.39512 34.5607 2.48977C34.6749 2.58442 34.8069 2.65516 34.949 2.6978C35.091 2.74043 35.2402 2.75409 35.3876 2.73796L39.9391 2.38368C36.8479 6.73696 27.9111 17.4486 14.0939 18.6609C13.814 18.6911 13.556 18.8267 13.3724 19.0402C13.1888 19.2537 13.0934 19.5291 13.1056 19.8105C13.1177 20.0918 13.2364 20.3579 13.4377 20.5549C13.6389 20.7518 13.9065 20.8647 14.188 20.8708Z" fill="white"></path></svg>