<svg xmlns="http://www.w3.org/2000/svg" width="54" height="63" viewBox="0 0 54 63" fill="none"><path d="M45.4873 7.8044C40.4547 2.77164 33.7632 0 26.6459 0C19.5286 0 12.837 2.77164 7.8044 7.8044C2.77164 12.8373 0 19.5286 0 26.6458C0 41.0438 13.6137 53.0194 20.9275 59.453C21.9439 60.3471 22.8216 61.1192 23.5209 61.7724C24.397 62.5907 25.5215 63 26.6458 63C27.7703 63 28.8946 62.5907 29.7708 61.7724C30.4701 61.1191 31.3478 60.3471 32.3642 59.453C39.678 53.0193 53.2917 41.0438 53.2917 26.6458C53.2916 19.5286 50.52 12.8373 45.4873 7.8044ZM29.9266 56.6823C28.888 57.5959 27.9911 58.385 27.2515 59.0757C26.9118 59.3927 26.3798 59.3929 26.0399 59.0757C25.3005 58.3847 24.4035 57.5958 23.3648 56.6821C16.489 50.6337 3.69019 39.375 3.69019 26.6459C3.69019 13.9883 13.9879 3.69056 26.6457 3.69056C39.3033 3.69056 49.601 13.9883 49.601 26.6459C49.6011 39.375 36.8025 50.6337 29.9266 56.6823Z" fill="white"></path><path d="M26.6449 13.8965C20.17 13.8965 14.9023 19.164 14.9023 25.6389C14.9023 32.1138 20.17 37.3813 26.6449 37.3813C33.1198 37.3813 38.3873 32.1138 38.3873 25.6389C38.3873 19.164 33.1198 13.8965 26.6449 13.8965ZM26.6449 33.6907C22.205 33.6907 18.5928 30.0786 18.5928 25.6388C18.5928 21.199 22.205 17.5868 26.6449 17.5868C31.0848 17.5868 34.6968 21.199 34.6968 25.6388C34.6968 30.0786 31.0848 33.6907 26.6449 33.6907Z" fill="white"></path></svg>