<svg xmlns="http://www.w3.org/2000/svg" width="61" height="61" viewBox="0 0 61 61" fill="none"><path d="M15.798 51.764C12.4203 53.7035 8.61295 54.3991 6.35843 54.6486C6.60802 52.3941 7.30361 48.5868 9.24102 45.2071C9.36483 44.9972 9.44576 44.7649 9.47912 44.5235C9.51248 44.2822 9.49761 44.0366 9.43536 43.801C9.37311 43.5655 9.26473 43.3446 9.11649 43.1512C8.96826 42.9579 8.78312 42.7958 8.5718 42.6745C8.36049 42.5532 8.1272 42.4751 7.88547 42.4446C7.64373 42.4142 7.39835 42.432 7.16355 42.497C6.92874 42.5621 6.70919 42.6731 6.5176 42.8236C6.32602 42.9742 6.16622 43.1612 6.04746 43.374C2.5777 49.4256 2.53679 56.3365 2.53679 56.629C2.53679 57.1174 2.73078 57.5857 3.07608 57.931C3.42138 58.2763 3.88972 58.4703 4.37805 58.4703C4.67061 58.4703 11.5815 58.4294 17.6331 54.9596C17.8429 54.8391 18.027 54.6785 18.1747 54.4869C18.3224 54.2952 18.431 54.0764 18.4942 53.8428C18.5573 53.6092 18.5739 53.3655 18.5428 53.1255C18.5118 52.8856 18.4338 52.6541 18.3133 52.4442C18.1928 52.2344 18.0322 52.0504 17.8406 51.9026C17.6489 51.7549 17.4301 51.6463 17.1965 51.5832C16.963 51.52 16.7192 51.5035 16.4793 51.5345C16.2393 51.5655 16.0078 51.6435 15.798 51.764ZM61.005 4.47017C61.0189 3.87882 60.9122 3.29084 60.6913 2.74212C60.4704 2.1934 60.14 1.69544 59.7202 1.27865C58.8712 0.429628 57.6437 0.0102292 56.5349 0C51.4366 0.0961548 37.6844 1.55893 24.6728 13.2387C22.3529 12.3365 18.8565 10.9964 16.203 11.3381C12.2996 11.8393 6.53233 17.1503 0.883744 22.8173C0.516539 23.1825 0.250218 23.6366 0.110745 24.1353C-0.0287292 24.634 -0.0365964 25.1604 0.0879099 25.6631C0.337503 26.6983 1.09447 27.5105 2.10921 27.8358L11.0905 30.7204C10.3948 31.9811 9.73168 33.2595 9.10191 34.5543C8.70693 35.375 8.57704 36.2981 8.73027 37.1959C8.8835 38.0936 9.31225 38.9215 9.95707 39.5646L21.4404 51.048C22.0843 51.6922 22.9123 52.1207 23.8101 52.2743C24.708 52.4278 25.6313 52.2989 26.4527 51.9052C27.7866 51.2607 29.051 50.5938 30.2826 49.9186L33.1692 58.8979C33.3628 59.5132 33.7487 60.0502 34.2701 60.4299C34.7916 60.8096 35.4211 61.0119 36.0662 61.0071C36.8538 61.0071 37.6128 60.6982 38.1897 60.1233C43.8567 54.4747 49.1678 48.7096 49.6669 44.8081C50.0127 42.1301 48.6686 38.6542 47.7664 36.3342C59.444 23.3226 60.9089 9.57047 61.005 4.47017ZM4.25121 24.6586C7.24837 21.6737 13.7583 15.3664 16.6715 14.992C17.9707 14.8262 20.0104 15.442 21.733 16.066C18.6908 19.2105 15.7366 22.9789 12.9829 27.4614L4.25121 24.6586ZM24.8508 48.5888C24.7179 48.6502 24.5694 48.6694 24.4253 48.6438C24.2812 48.6182 24.1484 48.549 24.0448 48.4456L12.5594 36.9603C12.4561 36.8566 12.3871 36.7236 12.3619 36.5795C12.3366 36.4353 12.3563 36.2868 12.4182 36.1542C26.7207 6.52829 49.8552 3.81141 56.6065 3.68457H56.6228C56.8663 3.68457 57.0259 3.793 57.12 3.88711C57.1874 3.95467 57.2404 4.03517 57.276 4.12377C57.3115 4.21237 57.3287 4.30723 57.3266 4.40266C57.1957 11.154 54.4767 34.2884 24.8508 48.5888ZM46.0151 44.3376C45.6407 47.2488 39.3334 53.7607 36.3485 56.7559L33.5416 48.0262C38.0281 45.2725 41.7966 42.3163 44.941 39.2741C45.5671 40.9947 46.1829 43.0303 46.0151 44.3376Z" fill="white"></path><path d="M47.133 24.8042C48.5795 23.3534 49.3917 21.3884 49.3917 19.3397C49.3917 17.2911 48.5795 15.326 47.133 13.8753C44.2116 10.9579 39.1215 10.9579 36.2041 13.8753C34.7454 15.334 33.9414 17.2755 33.9414 19.3397C33.9414 21.404 34.7475 23.3455 36.2041 24.8042C37.6628 26.2629 39.6043 27.0669 41.6686 27.0669C43.7328 27.0669 45.6723 26.2629 47.133 24.8042ZM44.5266 22.1998C42.9984 23.7301 40.3326 23.7301 38.8085 22.1998C38.0433 21.4367 37.6219 20.42 37.6219 19.3397C37.6219 18.2595 38.0433 17.2448 38.8085 16.4797C39.1829 16.103 39.6283 15.8044 40.1189 15.6011C40.6094 15.3978 41.1355 15.2938 41.6665 15.2951C42.4661 15.296 43.2474 15.5338 43.912 15.9784C44.5765 16.423 45.0944 17.0545 45.4004 17.7932C45.7064 18.5318 45.7867 19.3446 45.6312 20.1289C45.4757 20.9132 45.0913 21.6338 44.5266 22.1998Z" fill="white"></path></svg>