<svg xmlns="http://www.w3.org/2000/svg" width="88" height="94" viewBox="0 0 88 94" fill="none"><path d="M77.1036 41.2655C76.0165 40.4083 74.5892 40.2932 73.3787 40.9664L68.9707 43.4182C68.189 43.853 67.6915 44.613 67.6055 45.5028C67.5972 45.5893 67.5962 45.6748 67.5959 45.7604L65.4577 46.9496C62.4759 48.6079 59.2803 48.8942 55.9594 47.7994C51.7649 46.4171 47.2732 47.1905 42.6086 50.0985L42.4832 50.1766C38.7248 47.795 35.353 48.0868 32.0857 48.3702C28.6474 48.6686 25.0929 48.9767 20.4396 46.3593L19.4427 45.7985C19.4443 45.6998 19.4406 45.601 19.4317 45.5026C19.3454 44.6124 18.8477 43.8527 18.0663 43.418L13.6581 40.9661C12.4481 40.2935 11.0208 40.4079 9.93345 41.2653C2.71342 46.96 -1.30345 57.0806 0.382193 65.3299C0.607801 66.4327 1.33112 67.3172 2.36673 67.7569L5.82321 69.2248C6.15667 69.3677 6.51554 69.4419 6.87834 69.443C7.38703 69.443 7.89014 69.2938 8.33912 69.0001C8.47248 68.9111 8.59782 68.8106 8.71371 68.6997L16.907 72.9236L19.3233 75.5238L19.1992 75.7386C18.551 76.8614 18.3797 78.1732 18.7169 79.4322C19.0543 80.6912 19.8585 81.7415 20.9816 82.3899C21.7035 82.8083 22.5216 83.0322 23.3559 83.0397C23.0814 83.9124 23.06 84.8487 23.3035 85.7573C23.6409 87.0162 24.4451 88.0665 25.5681 88.7149C27.1241 89.6132 28.9753 89.5526 30.4324 88.7164C30.8423 89.6878 31.5592 90.4981 32.4735 91.0233C33.5952 91.6707 34.907 91.8418 36.1667 91.504C36.649 91.3755 37.1089 91.1743 37.5306 90.9072C37.9483 91.8251 38.6432 92.589 39.5177 93.0913C40.252 93.517 41.0857 93.7412 41.9345 93.7413C42.3597 93.7413 42.7884 93.6854 43.211 93.5721C44.4707 93.2347 45.5214 92.4308 46.169 91.3091L46.1984 91.2583L47.1402 91.788C48.2183 92.4104 49.2338 92.6736 50.1474 92.6736C51.8868 92.6736 53.2553 91.719 53.9745 90.4731C54.3396 89.8368 54.5439 89.1211 54.5697 88.3879C56.4389 88.6922 58.3891 87.8394 59.391 86.1045C59.8926 85.2376 60.1019 84.2323 59.9878 83.2373C61.6584 83.2108 63.2758 82.3354 64.1702 80.7861C64.7242 79.828 64.9365 78.7102 64.7721 77.6158C65.1443 77.6028 65.5179 77.55 65.887 77.4508C67.1563 77.1108 68.2156 76.2999 68.8691 75.1678C69.3235 74.3807 69.5432 73.4697 69.5151 72.5589L78.1734 68.553C78.3259 68.7202 78.5006 68.871 78.6981 69.0003C79.1467 69.2938 79.6494 69.443 80.1585 69.443C80.5128 69.443 80.8699 69.3706 81.214 69.2248L84.6703 67.7569C85.7057 67.3171 86.4292 66.4325 86.6548 65.3297C88.3405 57.0806 84.3238 46.96 77.1036 41.2653V41.2655ZM6.91293 66.8214C6.87983 66.843 6.87704 66.8435 6.84077 66.8279L3.38448 65.3601C3.13171 65.2527 2.98831 65.0773 2.93326 64.8084C1.43361 57.4703 5.05562 48.4288 11.5458 43.3098C11.6913 43.195 11.8505 43.1372 12.013 43.1372C12.1391 43.1372 12.2671 43.1719 12.3926 43.2417L16.8006 45.6934C16.8246 45.7068 16.8315 45.7157 16.8315 45.7157C16.8315 45.7157 16.8371 45.726 16.8397 45.7529C16.8425 45.7801 16.839 45.7909 16.839 45.7909C16.839 45.7909 16.8338 45.8011 16.8124 45.819C10.4431 51.1813 7.0316 58.422 6.94734 66.7576C6.94697 66.7972 6.94567 66.7998 6.91275 66.8212L6.91293 66.8214ZM22.2837 80.1347C21.7631 79.8342 21.3896 79.3454 21.2325 78.7582C21.0751 78.1712 21.154 77.561 21.4545 77.0405L24.0183 72.5998C24.3181 72.0803 24.8071 71.7076 25.395 71.5499C25.9835 71.392 26.5931 71.4706 27.1124 71.7708C28.194 72.3952 28.566 73.7829 27.942 74.8646L25.3773 79.3065C24.7526 80.3878 23.3649 80.7591 22.2835 80.1347H22.2837ZM29.9648 85.6306C29.3399 86.7125 27.9514 87.0843 26.8701 86.4599C26.3495 86.1594 25.976 85.6706 25.8189 85.0834C25.6615 84.4964 25.7404 83.8862 26.0409 83.3658L27.5845 80.6918L27.6299 80.6131L27.633 80.6077L27.6334 80.6068L30.1962 76.1679L30.1965 76.1671C30.4964 75.6475 30.9855 75.2746 31.5734 75.117C32.1623 74.9589 32.7714 75.0378 33.2907 75.3378C34.3723 75.9622 34.7442 77.3499 34.1202 78.4318C34.1202 78.4318 34.1202 78.4321 34.1199 78.4323L34.1191 78.4338L30.5174 84.6722L29.9642 85.6306H29.9648ZM35.493 88.9892C34.9044 89.1471 34.2949 89.0685 33.7756 88.7683C33.255 88.4677 32.8815 87.9789 32.7244 87.3918C32.567 86.8048 32.6459 86.1945 32.9464 85.6741L36.3793 79.7281C36.6795 79.212 37.1668 78.8413 37.7527 78.6845C38.3402 78.527 38.9506 78.6053 39.4699 78.9051C40.5509 79.5295 40.9233 80.9164 40.3002 81.998L40.2991 81.9998L40.2982 82.0017L37.4084 87.0069L36.8699 87.9395C36.5701 88.459 36.081 88.8319 35.493 88.9896V88.9892ZM43.914 90.0075C43.6142 90.527 43.1252 90.8997 42.5373 91.0575C41.9488 91.2154 41.3392 91.1367 40.8199 90.8365C40.2993 90.5359 39.9258 90.0472 39.7686 89.46C39.6113 88.873 39.6901 88.2628 39.9907 87.7423L39.9911 87.7416L42.5554 83.2999C43.1803 82.2197 44.5674 81.8484 45.6486 82.4726C46.1692 82.7732 46.5427 83.262 46.6998 83.8492C46.8574 84.4363 46.7783 85.0466 46.4777 85.567L43.914 90.0075ZM66.6144 73.866C66.3084 74.3959 65.8111 74.7759 65.2135 74.936C64.6157 75.0962 63.995 75.0162 63.465 74.7099L62.3764 74.0814L62.3736 74.0797C62.373 74.0796 62.3725 74.0793 62.3721 74.079L59.6798 72.5247C59.381 72.3547 59.027 72.3099 58.6952 72.4C58.3634 72.4901 58.0807 72.7077 57.9088 73.0055C57.7369 73.3032 57.6898 73.6569 57.7776 73.9892C57.8655 74.3216 58.0813 74.6058 58.3779 74.7796L61.0729 76.3356C62.1729 76.9715 62.5508 78.3836 61.9155 79.4843C61.2799 80.5854 59.8669 80.9633 58.7659 80.3283L57.6812 79.7019L57.6745 79.6978L56.42 78.9736C56.2719 78.888 56.1085 78.8325 55.9389 78.8102C55.7694 78.7878 55.5972 78.7991 55.432 78.8433C55.2668 78.8876 55.112 78.964 54.9764 79.0681C54.8407 79.1722 54.7269 79.302 54.6415 79.4501C54.556 79.5981 54.5004 79.7616 54.4781 79.9311C54.4558 80.1006 54.467 80.2729 54.5113 80.438C54.5555 80.6032 54.6319 80.758 54.736 80.8936C54.8401 81.0293 54.9699 81.1431 55.118 81.2285L56.3725 81.953C57.3687 82.5281 57.7113 83.8066 57.136 84.8026C56.5608 85.7987 55.2824 86.1411 54.2866 85.5662L52.2528 84.3919C51.9538 84.2192 51.5984 84.1724 51.2649 84.2617C50.9313 84.3511 50.6469 84.5693 50.4743 84.8683C50.3016 85.1673 50.2548 85.5227 50.3441 85.8562C50.4335 86.1898 50.6516 86.4742 50.9507 86.6469L50.9566 86.6504C52.0984 87.3133 52.1531 88.4212 51.7199 89.1715C51.2481 89.9891 50.139 90.5129 48.4297 89.526L47.5009 89.0037L48.7333 86.8691C50.0758 84.5438 49.2762 81.56 46.9509 80.2175C45.7315 79.5137 44.3316 79.3989 43.0823 79.7836C42.7908 78.509 41.9911 77.3541 40.7722 76.6501C39.6503 76.0025 38.3387 75.8323 37.0788 76.1694C37.0204 76.1852 36.9622 76.2019 36.9044 76.2196C36.6137 74.9437 35.8135 73.7874 34.5934 73.083C33.4717 72.4356 32.1604 72.2654 30.9002 72.6022C30.841 72.6182 30.7822 72.6351 30.724 72.6528C30.7103 72.5928 30.6955 72.5331 30.6796 72.4737C30.3422 71.2145 29.538 70.1642 28.4149 69.5159C27.2932 68.8684 25.9816 68.6971 24.7217 69.0351C23.462 69.3725 22.4113 70.1763 21.7637 71.298L20.6862 73.1645L18.6604 70.9845C18.5579 70.8742 18.437 70.7826 18.3031 70.7137L9.56481 66.2089C9.78 58.9383 12.6774 52.8428 18.1822 48.0769L19.1637 48.6289C24.5182 51.6403 28.6584 51.2812 32.3111 50.9645C35.1071 50.7219 37.4223 50.5222 39.9649 51.7471L31.0177 57.3256C29.8757 58.0375 29.2019 59.1012 29.12 60.3206C29.0309 61.6445 29.6767 63.0474 30.8049 63.9818C34.7446 67.2438 38.3798 65.4677 41.5871 63.9008C43.5952 62.9198 45.6718 61.9052 47.9536 61.8917H48.0008C50.4944 61.8917 52.518 63.0623 54.6594 64.3012L65.7123 70.6828C66.4695 71.2376 66.6259 71.5873 66.8543 72.1763C66.9901 72.7532 66.9041 73.3657 66.6151 73.8662L66.6144 73.866ZM67.0725 68.4613L55.963 62.0472C53.6022 60.6814 51.1657 59.2621 47.938 59.2878C45.062 59.3049 42.6084 60.5034 40.4436 61.5612C37.0373 63.2252 34.9873 64.0648 32.4653 61.9761C31.9778 61.5725 31.6843 60.9911 31.7176 60.4951C31.7429 60.1175 31.9644 59.8035 32.3948 59.5353L43.9862 52.3082C48.02 49.7933 51.6701 49.127 55.1444 50.2726C59.1273 51.5851 63.1313 51.2232 66.7235 49.225L68.829 48.054C74.3011 52.7801 77.2053 58.8157 77.4672 66.0112L68.7096 70.063C68.3986 69.5864 67.9396 69.0775 67.1818 68.5322C67.1465 68.5067 67.11 68.483 67.0723 68.4613H67.0725ZM84.1038 64.8084C84.0487 65.0775 83.9055 65.2529 83.6525 65.3602L80.1966 66.8279C80.1596 66.8439 80.1578 66.8435 80.1243 66.8218C80.0912 66.8002 80.0899 66.7976 80.0895 66.7583C80.0052 58.4224 76.5938 51.1817 70.2241 45.8192C70.214 45.8114 70.2052 45.802 70.1981 45.7915C70.1971 45.7888 70.1951 45.7766 70.1973 45.7533C70.1996 45.7301 70.204 45.7184 70.2053 45.7161C70.2143 45.707 70.2247 45.6995 70.2362 45.6938L74.644 43.2422C74.7698 43.1723 74.8977 43.1377 75.0238 43.1377C75.1864 43.1377 75.3454 43.1956 75.491 43.3103C81.9812 48.4292 85.6032 57.4708 84.1036 64.8088L84.1038 64.8084ZM31.4343 26.9785C33.125 29.3371 34.5848 31.3739 34.5848 34.3792V38.0393C34.5848 40.09 36.141 41.7828 38.1343 42.002V43.5724C38.1343 45.4237 39.6407 46.9301 41.492 46.9301H45.5446C47.396 46.9301 48.9023 45.4237 48.9023 43.5724V42.002C50.8956 41.7828 52.4518 40.09 52.4518 38.0393V34.3792C52.4518 31.3741 53.9118 29.3373 55.6023 26.9787C57.7027 24.0484 60.0834 20.7273 60.0834 14.975C60.0834 10.3404 58.2644 6.44202 54.8228 3.70162C51.825 1.31459 47.8104 0 43.5184 0C39.2265 0 35.2118 1.31459 32.2142 3.70162C28.7726 6.44202 26.9536 10.3404 26.9536 14.975C26.9536 20.7273 29.3341 24.0484 31.4343 26.9785ZM45.5446 44.3262H41.492C41.0834 44.3262 40.7382 43.9812 40.7382 43.5724V42.0273H46.2984V43.5724C46.2984 43.981 45.9534 44.3262 45.5446 44.3262ZM48.4636 39.4236H38.5729C37.8096 39.4236 37.1887 38.8026 37.1887 38.0395V36.7087H49.8477V38.0395C49.8477 38.8028 49.2267 39.4236 48.4636 39.4236ZM44.7078 34.1046H42.3286V24.5437C43.1194 24.6291 43.9171 24.6291 44.7078 24.5437V34.1046ZM43.5182 2.60389C50.2422 2.60389 57.4794 6.47513 57.4794 14.9752C57.4794 19.8907 55.4493 22.7228 53.4857 25.462C51.7402 27.8971 49.9376 30.4138 49.8518 34.1048H47.3116V24.2491C47.3116 24.1355 47.3121 24.0231 47.3134 23.9117C49.5182 23.0545 51.3031 21.4449 52.301 19.3052C53.4839 16.7691 53.4748 14.4966 52.2761 13.2259C51.4876 12.3902 50.3352 12.1618 49.1943 12.6153C47.2738 13.3784 45.2364 16.2168 44.7951 21.9002C44.3576 21.9713 43.9276 22.0044 43.5182 22.0044C43.1089 22.0044 42.6787 21.9713 42.2414 21.9002C41.8 16.2168 39.7627 13.3784 37.8421 12.6153C36.7009 12.1618 35.5485 12.3902 34.7604 13.2259C33.5619 14.4964 33.5526 16.7691 34.7355 19.3052C35.7333 21.4449 37.5185 23.0543 39.7231 23.9117C39.7244 24.0233 39.7249 24.1355 39.7249 24.2491V34.1048H37.1846C37.0989 30.4138 35.2961 27.897 33.5507 25.4618C31.5874 22.7228 29.5573 19.8907 29.5573 14.9752C29.5573 6.47532 36.7942 2.60389 43.5182 2.60389ZM47.5141 20.9122C47.946 17.6179 48.9931 15.7783 49.9205 15.1619C50.1383 15.017 50.2807 14.9919 50.3365 14.9919C50.3495 14.9919 50.3579 14.9934 50.3616 14.9949C50.3726 14.9995 50.4288 15.0497 50.4827 15.192C50.67 15.6856 50.6261 16.7363 49.9413 18.2045C49.3701 19.4295 48.5 20.3094 47.5141 20.9122ZM39.5222 20.9122C38.5361 20.3096 37.6664 19.4295 37.095 18.2044C36.4102 16.7359 36.3663 15.6855 36.5536 15.1918C36.6075 15.0496 36.6639 14.9995 36.6747 14.9947C36.6828 14.9923 36.6913 14.9913 36.6998 14.9917C36.7557 14.9917 36.898 15.0168 37.1158 15.1617C38.043 15.7781 39.0901 17.6179 39.5222 20.9122ZM59.7734 5.26135C59.6007 4.96232 59.554 4.60695 59.6433 4.27343C59.7327 3.93991 59.9509 3.65554 60.2499 3.48289L63.2957 1.72452C63.5946 1.55459 63.9485 1.50978 64.2803 1.59986C64.6121 1.68994 64.8948 1.9076 65.0667 2.20533C65.2386 2.50307 65.2858 2.85672 65.1979 3.1891C65.11 3.52148 64.8942 3.80561 64.5977 3.97949L61.5519 5.73786C61.4038 5.82343 61.2403 5.87898 61.0708 5.90134C60.9013 5.92369 60.729 5.91241 60.5638 5.86814C60.3986 5.82387 60.2438 5.74747 60.1082 5.64332C59.9726 5.53917 59.8588 5.40949 59.7734 5.26135ZM63.825 14.2215H67.342C67.6873 14.2215 68.0184 14.3587 68.2626 14.6028C68.5068 14.847 68.6439 15.1782 68.6439 15.5235C68.6439 15.8688 68.5068 16.1999 68.2626 16.4441C68.0184 16.6882 67.6873 16.8254 67.342 16.8254H63.825C63.4797 16.8254 63.1486 16.6882 62.9044 16.4441C62.6603 16.1999 62.5231 15.8688 62.5231 15.5235C62.5231 15.1782 62.6603 14.847 62.9044 14.6028C63.1486 14.3587 63.4797 14.2215 63.825 14.2215ZM64.5977 27.0672C64.8967 27.2399 65.1149 27.5243 65.2043 27.8578C65.2937 28.1914 65.2469 28.5467 65.0743 28.8458C64.9016 29.1448 64.6172 29.3631 64.2837 29.4525C63.9502 29.5418 63.5948 29.4951 63.2957 29.3224L60.2499 27.5639C59.9533 27.39 59.7375 27.1058 59.6497 26.7735C59.5618 26.4411 59.6089 26.0874 59.7808 25.7897C59.9528 25.492 60.2354 25.2743 60.5672 25.1842C60.899 25.0941 61.253 25.139 61.5519 25.3089L64.5977 27.0674V27.0672ZM21.9623 2.20085C22.135 1.90186 22.4194 1.6837 22.7529 1.59434C23.0864 1.50499 23.4417 1.55174 23.7408 1.72433L26.7866 3.4827C27.0856 3.65535 27.3038 3.93973 27.3932 4.27327C27.4826 4.60681 27.4358 4.9622 27.2632 5.26125C27.0905 5.5603 26.8061 5.77852 26.4726 5.8679C26.1391 5.95729 25.7837 5.91051 25.4846 5.73786L22.4388 3.97949C22.1398 3.80683 21.9216 3.52247 21.8322 3.18894C21.7429 2.85542 21.7897 2.49987 21.9623 2.20085ZM18.3927 15.5233C18.3927 15.178 18.5299 14.8468 18.7741 14.6027C19.0182 14.3585 19.3494 14.2213 19.6947 14.2213H23.2116C23.5569 14.2213 23.8881 14.3585 24.1322 14.6027C24.3764 14.8468 24.5136 15.178 24.5136 15.5233C24.5136 15.8686 24.3764 16.1997 24.1322 16.4439C23.8881 16.6881 23.5569 16.8252 23.2116 16.8252H19.6947C19.3494 16.8252 19.0182 16.6881 18.7741 16.4439C18.5299 16.1997 18.3927 15.8686 18.3927 15.5233ZM27.2633 25.7852C27.4359 26.0842 27.4827 26.4396 27.3933 26.7731C27.304 27.1066 27.0858 27.391 26.7868 27.5637L23.7409 29.3222C23.5929 29.4078 23.4294 29.4633 23.2599 29.4857C23.0904 29.5081 22.9181 29.4968 22.7529 29.4525C22.5877 29.4082 22.4329 29.3318 22.2973 29.2277C22.1617 29.1235 22.0479 28.9937 21.9625 28.8455C21.7898 28.5465 21.7431 28.1911 21.8324 27.8576C21.9218 27.5241 22.14 27.2397 22.439 27.0671L25.4848 25.3085C25.7838 25.1359 26.1392 25.0891 26.4727 25.1784C26.8062 25.2678 27.0906 25.486 27.2633 25.785V25.7852Z" fill="#EAA73F"></path></svg>