<svg xmlns="http://www.w3.org/2000/svg" width="59" height="59" viewBox="0 0 59 59" fill="none"><path d="M33.9111 13.4401C32.4816 13.0483 30.9975 12.8497 29.5 12.8497C20.3189 12.8497 12.8497 20.3189 12.8497 29.5C12.8497 38.6811 20.3189 46.1503 29.5 46.1503C38.6811 46.1503 46.1503 38.6811 46.1503 29.5C46.1503 28.0025 45.9517 26.5184 45.5599 25.0889C45.2907 24.1069 45.8686 23.0926 46.8506 22.8234C47.8321 22.5544 48.8469 23.1321 49.1161 24.1142C49.596 25.8692 49.8388 27.6806 49.8378 29.5C49.8378 40.7143 40.7143 49.8378 29.5 49.8378C18.2857 49.8378 9.16217 40.7143 9.16217 29.5C9.16217 18.2857 18.2857 9.16217 29.5 9.16217C31.3268 9.16217 33.1388 9.40497 34.8858 9.88388C35.7048 10.1084 36.2427 10.8512 36.2426 11.6613C36.2425 11.8262 36.2203 11.9904 36.1766 12.1494C35.9075 13.1314 34.8933 13.7097 33.9111 13.4401ZM55.499 19.871C54.5226 20.1601 53.9653 21.1858 54.2544 22.1623C54.9565 24.5339 55.3125 27.0025 55.3125 29.5C55.3125 43.7331 43.7331 55.3125 29.5 55.3125C15.2669 55.3125 3.6875 43.7331 3.6875 29.5C3.6875 15.2669 15.2669 3.6875 29.5 3.6875C31.9976 3.6875 34.4663 4.04346 36.8373 4.74547C37.8138 5.03471 38.8395 4.4772 39.1286 3.50094C39.1803 3.32636 39.2049 3.15039 39.2049 2.9772C39.2052 2.1815 38.686 1.44711 37.8841 1.20962C35.1729 0.406893 32.3522 0 29.5 0C21.6203 0 14.2121 3.06858 8.64027 8.64027C3.06858 14.2122 0 21.6203 0 29.5C0 37.3797 3.06858 44.7879 8.64027 50.3597C14.212 55.9315 21.6203 59 29.5 59C37.3797 59 44.7878 55.9314 50.3597 50.3597C55.9314 44.7879 59 37.3797 59 29.5C59 26.6481 58.593 23.8271 57.7903 21.1155C57.5013 20.1392 56.4752 19.5824 55.499 19.871ZM29.5 22.125C29.7711 22.125 30.0449 22.14 30.3139 22.1695C31.3266 22.2809 32.2368 21.55 32.3477 20.5379C32.4588 19.5257 31.7283 18.6151 30.7161 18.5041C30.3122 18.4598 29.9063 18.4376 29.5 18.4375C23.4001 18.4375 18.4375 23.4001 18.4375 29.5C18.4375 35.5999 23.4001 40.5625 29.5 40.5625C35.5999 40.5625 40.5625 35.5999 40.5625 29.5C40.5625 28.4817 39.7371 27.6562 38.7188 27.6562C37.7004 27.6562 36.875 28.4817 36.875 29.5C36.875 33.5666 33.5666 36.875 29.5 36.875C25.4334 36.875 22.125 33.5666 22.125 29.5C22.125 25.4334 25.4334 22.125 29.5 22.125ZM38.914 17.4789L39.8324 8.26622C39.8745 7.84249 40.0621 7.44642 40.3633 7.14534L46.9688 0.539988C47.218 0.290865 47.5333 0.118352 47.8775 0.042871C48.2217 -0.0326098 48.5803 -0.0078975 48.9108 0.114082C49.2414 0.236062 49.5301 0.450202 49.7427 0.731152C49.9554 1.0121 50.0831 1.3481 50.1107 1.69936L50.6344 8.36567L57.3006 8.88929C57.6519 8.91687 57.988 9.04454 58.2689 9.25718C58.5499 9.46982 58.7641 9.75852 58.8861 10.0891C59.0081 10.4197 59.0328 10.7783 58.9572 11.1225C58.8817 11.4667 58.7092 11.782 58.46 12.0312L51.8545 18.6365C51.5535 18.9376 51.1575 19.1252 50.7338 19.1674L41.5214 20.0863L30.8038 30.8038C30.6327 30.9752 30.4295 31.1112 30.2058 31.2038C29.982 31.2965 29.7422 31.3441 29.5 31.3438C29.2578 31.3441 29.018 31.2965 28.7943 31.2039C28.5705 31.1112 28.3673 30.9751 28.1964 30.8036C27.4763 30.0837 27.4763 28.9162 28.1964 28.1962L38.914 17.4789ZM42.7414 16.2589L49.7126 15.5636L53.0238 12.2523L48.7754 11.9186C48.3376 11.8841 47.9265 11.6946 47.6161 11.3842C47.3056 11.0737 47.1161 10.6626 47.0817 10.2249L46.7479 5.97605L43.4364 9.28743L42.7414 16.2589Z" fill="white"></path></svg>