<svg xmlns="http://www.w3.org/2000/svg" width="90" height="90" viewBox="0 0 90 90" fill="none"><path d="M70.6587 55.755C68.8267 53.8474 66.6169 52.8275 64.2749 52.8275C61.9518 52.8275 59.7231 53.8285 57.8155 55.7361L51.8472 61.6855C51.3561 61.4211 50.8651 61.1756 50.3929 60.93C49.713 60.5901 49.0708 60.269 48.5231 59.929C42.9325 56.3782 37.8519 51.7509 32.979 45.7637C30.6181 42.7796 29.0316 40.2676 27.8795 37.7178C29.4282 36.3013 30.8637 34.8281 32.2613 33.4116C32.7901 32.8827 33.319 32.335 33.8478 31.8062C37.8141 27.8399 37.8141 22.7026 33.8478 18.7363L28.6916 13.5801C28.1061 12.9946 27.5018 12.3903 26.9351 11.7859C25.8019 10.6149 24.612 9.40609 23.3844 8.27287C21.5523 6.45971 19.3614 5.49647 17.0572 5.49647C14.753 5.49647 12.5243 6.45971 10.6356 8.27287L10.5978 8.31064L4.17621 14.7889C1.75867 17.2065 0.379911 20.1528 0.0777175 23.5714C-0.375572 29.0864 1.24872 34.2237 2.49526 37.5856C5.55497 45.8393 10.1256 53.4885 16.9439 61.6855C25.2164 71.5635 35.1699 79.3638 46.5399 84.86C50.8839 86.9186 56.6823 89.3551 63.1606 89.7706C63.5572 89.7895 63.9727 89.8084 64.3504 89.8084C68.7133 89.8084 72.3774 88.2407 75.2483 85.1244C75.2672 85.0866 75.3049 85.0677 75.3238 85.0299C76.306 83.8401 77.4392 82.7635 78.6291 81.6114C79.4412 80.837 80.2722 80.0249 81.0844 79.1749C82.9542 77.2296 83.9363 74.9631 83.9363 72.64C83.9363 70.298 82.9353 68.0505 81.0277 66.1618L70.6587 55.755ZM77.4203 75.6431C77.4014 75.6431 77.4014 75.6619 77.4203 75.6431C76.6837 76.4363 75.9282 77.154 75.1161 77.9473C73.8884 79.1183 72.6419 80.3459 71.4709 81.7247C69.5633 83.7645 67.3157 84.7277 64.3693 84.7277C64.086 84.7277 63.7838 84.7277 63.5005 84.7089C57.8911 84.35 52.6782 82.1591 48.7686 80.2893C38.0785 75.1142 28.6916 67.7672 20.8913 58.4558C14.4508 50.6932 10.1445 43.5162 7.29258 35.8102C5.53608 31.1073 4.89392 27.4432 5.17723 23.9869C5.3661 21.7771 6.21602 19.9451 7.78364 18.3775L14.2241 11.937C15.1496 11.0682 16.1317 10.596 17.095 10.596C18.2849 10.596 19.2481 11.3137 19.8525 11.9181L19.9091 11.9747C21.0613 13.0513 22.1567 14.1656 23.3088 15.3555C23.8943 15.9599 24.4987 16.5643 25.1031 17.1876L30.2593 22.3437C32.2613 24.3458 32.2613 26.1967 30.2593 28.1987C29.7115 28.7465 29.1827 29.2942 28.635 29.823C27.0485 31.4473 25.5375 32.9583 23.8943 34.4315C23.8565 34.4692 23.8188 34.4881 23.7999 34.5259C22.1756 36.1502 22.4778 37.7367 22.8178 38.8133L22.8744 38.9832C24.2154 42.2318 26.1041 45.2915 28.9749 48.9367L28.9938 48.9556C34.2067 55.3772 39.7028 60.3823 45.7656 64.2164C46.5399 64.7075 47.3332 65.1041 48.0887 65.4818C48.7686 65.8218 49.4108 66.1429 49.9585 66.4828C50.034 66.5206 50.1096 66.5773 50.1851 66.615C50.8273 66.9361 51.4317 67.0872 52.055 67.0872C53.6226 67.0872 54.6047 66.1051 54.9258 65.784L61.3852 59.3246C62.0273 58.6825 63.0472 57.9081 64.2371 57.9081C65.4081 57.9081 66.3714 58.6447 66.9568 59.2869L66.9946 59.3246L77.4014 69.7314C79.3468 71.6579 79.3468 73.641 77.4203 75.6431ZM48.2964 21.6071C53.2448 22.4382 57.74 24.7802 61.3285 28.3687C64.917 31.9573 67.2402 36.4524 68.0901 41.4008C68.2978 42.6473 69.3744 43.5161 70.6021 43.5161C70.7532 43.5161 70.8854 43.4973 71.0365 43.4784C72.4341 43.2517 73.3596 41.9296 73.1329 40.532C72.113 34.5448 69.28 29.0864 64.9548 24.7613C60.6297 20.4361 55.1713 17.6031 49.1841 16.5832C47.7865 16.3565 46.4833 17.282 46.2377 18.6608C45.9922 20.0395 46.8988 21.3805 48.2964 21.6071ZM89.3192 39.7954C87.6382 29.9363 82.992 20.965 75.8527 13.8257C68.7133 6.68635 59.742 2.04013 49.8829 0.359185C48.5042 0.113653 47.201 1.05801 46.9554 2.43676C46.7288 3.83441 47.6543 5.13761 49.0519 5.38315C57.8533 6.87523 65.8803 11.0493 72.2641 17.4142C78.6479 23.798 82.8031 31.8251 84.2952 40.6264C84.5029 41.873 85.5795 42.7418 86.8072 42.7418C86.9583 42.7418 87.0905 42.7229 87.2416 42.704C88.6203 42.4963 89.5647 41.1742 89.3192 39.7954Z" fill="#EAA73F"></path></svg>