<svg xmlns="http://www.w3.org/2000/svg" width="74" height="94" viewBox="0 0 74 94" fill="none"><path d="M69.0418 25.184H63.5614V22.6027C63.5615 22.272 63.4498 21.9509 63.2445 21.6916C63.0392 21.4323 62.7524 21.25 62.4304 21.1743L57.3925 19.9846C57.0449 18.9187 56.6139 17.8819 56.1037 16.8836L58.8283 12.4828C59.0024 12.2015 59.0763 11.8695 59.038 11.5409C58.9996 11.2122 58.8513 10.9062 58.6171 10.6725L52.8871 4.94244C52.6531 4.70861 52.3471 4.56055 52.0186 4.52224C51.6901 4.48392 51.3582 4.55758 51.0768 4.7313L46.676 7.45405C45.6753 6.94182 44.6362 6.5122 43.5695 6.1652L42.3834 1.12912C42.2311 0.468173 41.6399 6.57346e-08 40.9587 6.57346e-08H32.8547C32.524 -9.89025e-05 32.203 0.111558 31.9437 0.316852C31.6844 0.522147 31.5021 0.809033 31.4264 1.13096L30.2422 6.16887C29.1755 6.51587 28.1345 6.94549 27.1357 7.45589L22.7349 4.73314C22.4535 4.559 22.1216 4.48509 21.7929 4.52342C21.4643 4.56175 21.1583 4.71007 20.9246 4.94428L15.1945 10.6743C14.9607 10.9083 14.8126 11.2143 14.7743 11.5428C14.736 11.8713 14.8097 12.2032 14.9834 12.4846L17.708 16.8873C17.2012 17.8824 16.7698 18.9197 16.4209 19.9864L11.3867 21.1761C11.065 21.252 10.7784 21.4344 10.5734 21.6937C10.3684 21.953 10.2571 22.274 10.2576 22.6045V25.1859H4.7717C2.14075 25.1859 0 27.3285 0 29.9631V76.5785C0 79.2131 2.14075 81.3557 4.7717 81.3557H26.7905L25.3474 91.0661H21.3928C20.5813 91.0661 19.9258 91.7234 19.9258 92.5331C19.9258 93.3427 20.5831 94 21.3928 94H52.4207C53.2322 94 53.8877 93.3427 53.8877 92.5331C53.8877 91.7234 53.2304 91.0661 52.4207 91.0661H48.466L47.0193 81.3557H69.0381C71.6691 81.3557 73.8098 79.2131 73.8098 76.5785V29.9631C73.8135 27.3266 71.6727 25.184 69.0418 25.184ZM13.1933 23.7648L17.9191 22.6486C18.1734 22.5883 18.4071 22.4612 18.5959 22.2805C18.7847 22.0997 18.9218 21.8719 18.9931 21.6204C19.3952 20.1975 19.9644 18.8297 20.6822 17.5537C20.8109 17.3249 20.8759 17.0657 20.8704 16.8032C20.8649 16.5406 20.7892 16.2844 20.651 16.0611L18.0935 11.9283L22.1804 7.84144L26.3132 10.399C26.7685 10.6799 27.3413 10.6927 27.8077 10.4283C29.09 9.70401 30.4556 9.13806 31.8743 8.74291C32.1274 8.67244 32.3569 8.53523 32.5388 8.34562C32.7206 8.15602 32.8481 7.921 32.908 7.66519L34.0206 2.93572H39.7984L40.911 7.66519C40.9712 7.92111 41.0991 8.15616 41.2813 8.34574C41.4634 8.53533 41.6932 8.6725 41.9465 8.74291C43.3645 9.13846 44.7294 9.70439 46.0113 10.4283C46.2404 10.5573 46.4998 10.6226 46.7626 10.6174C47.0254 10.6123 47.282 10.5368 47.5058 10.399L51.6386 7.84144L55.7255 11.9283L53.168 16.0611C53.0298 16.2844 52.954 16.5406 52.9486 16.8032C52.9431 17.0657 53.008 17.3249 53.1367 17.5537C53.8638 18.8463 54.4311 20.2122 54.824 21.6168C54.8947 21.8694 55.0317 22.0986 55.2209 22.2804C55.4101 22.4621 55.6446 22.5899 55.8999 22.6504L60.6293 23.7685V29.5482L55.8999 30.6608C55.6442 30.7209 55.4094 30.8485 55.2198 31.0303C55.0302 31.2121 54.8929 31.4415 54.8222 31.6944C54.4311 33.0953 53.8619 34.4631 53.1331 35.7648C53.0051 35.9936 52.9407 36.2525 52.9465 36.5147C52.9523 36.7768 53.0281 37.0326 53.1661 37.2556L55.7236 41.3828L51.6368 45.4697L47.504 42.9159C47.2812 42.7782 47.0256 42.7027 46.7637 42.6972C46.5019 42.6917 46.2434 42.7564 46.015 42.8847C44.7261 43.6062 43.3565 44.1754 41.9428 44.5738C41.4287 44.7188 41.034 45.1301 40.9128 45.6496L39.8002 50.3736H34.0206L32.908 45.6496C32.848 45.3947 32.7208 45.1605 32.5397 44.9713C32.3586 44.7821 32.1301 44.6448 31.878 44.5738C30.457 44.1717 29.0873 43.6044 27.804 42.8847C27.5755 42.7569 27.317 42.6924 27.0553 42.6978C26.7935 42.7033 26.5379 42.7786 26.315 42.9159L22.1822 45.4697L18.0954 41.3828L20.6529 37.2556C20.9338 36.8021 20.9466 36.2311 20.6859 35.7648C19.9662 34.4814 19.3989 33.1118 18.9968 31.6907C18.9257 31.4389 18.7884 31.2107 18.5992 31.0299C18.41 30.849 18.1758 30.7222 17.9209 30.6626L13.197 29.55V23.7648H13.1933ZM4.7717 28.1198H10.2576V30.7067C10.2575 31.0374 10.3691 31.3584 10.5744 31.6177C10.7797 31.877 11.0666 32.0593 11.3885 32.135L16.4228 33.3211C16.7716 34.3878 17.2012 35.4269 17.7098 36.4239L14.9852 40.821C14.8112 41.1023 14.7372 41.434 14.7752 41.7626C14.8132 42.0911 14.9609 42.3972 15.1945 42.6313L20.9246 48.3614C21.4056 48.8424 22.1547 48.9305 22.733 48.5725L27.1357 45.8516C28.1345 46.3602 29.1736 46.7898 30.2403 47.1386L31.4264 52.1729C31.5021 52.4948 31.6844 52.7817 31.9437 52.987C32.203 53.1923 32.524 53.3039 32.8547 53.3038H40.9587C41.2895 53.3039 41.6105 53.1923 41.8698 52.987C42.1291 52.7817 42.3114 52.4948 42.3871 52.1729L43.5732 47.1405C44.638 46.7935 45.6772 46.362 46.6778 45.8534L51.0805 48.5743C51.3616 48.7481 51.6932 48.8217 52.0214 48.7834C52.3496 48.7451 52.6553 48.597 52.8889 48.3632L58.619 42.6331C58.8529 42.3993 59.001 42.0931 59.039 41.7645C59.0769 41.4358 59.0027 41.104 58.8283 40.8229L56.1037 36.4257C56.6159 35.4196 57.0474 34.3804 57.3925 33.3229L62.4286 32.1369C62.7505 32.0611 63.0374 31.8788 63.2427 31.6195C63.448 31.3603 63.5597 31.0392 63.5596 30.7085V28.1216H69.0399C70.0534 28.1216 70.8778 28.9478 70.8778 29.9631V68.2725H2.93572V29.9613C2.93572 28.946 3.76007 28.1198 4.7717 28.1198ZM45.5009 91.0661H28.3162L29.7593 81.3557H44.0542L45.5009 91.0661ZM69.0418 78.4199H4.7717C3.75824 78.4199 2.93389 77.5937 2.93389 76.5785V71.2082H70.8759V76.5785C70.8777 77.5937 70.0534 78.4199 69.0418 78.4199ZM47.5664 25.3273C48.1925 25.0298 48.9434 25.2098 49.3638 25.7605L52.5272 29.9025C52.6442 30.0556 52.73 30.2302 52.7795 30.4164C52.829 30.6026 52.8413 30.7968 52.8157 30.9877C52.7901 31.1787 52.7272 31.3628 52.6304 31.5294C52.5336 31.696 52.405 31.8419 52.2518 31.9588C51.9964 32.1548 51.6833 32.2607 51.3614 32.2599C50.9189 32.2599 50.4838 32.0616 50.1937 31.6834L49.1306 30.2917C47.5554 35.6142 42.6368 39.4055 36.9067 39.4055C32.4104 39.4055 28.3346 37.1124 26.0029 33.2715C25.9029 33.1067 25.8363 32.9239 25.807 32.7334C25.7777 32.5429 25.7862 32.3484 25.8321 32.1612C25.8779 31.974 25.9602 31.7976 26.0743 31.6423C26.1883 31.4869 26.3319 31.3555 26.4968 31.2556C26.6615 31.1556 26.8444 31.089 27.0349 31.0597C27.2254 31.0304 27.4199 31.0389 27.6071 31.0848C27.7943 31.1306 27.9706 31.213 28.126 31.327C28.2814 31.4411 28.4128 31.5846 28.5127 31.7495C30.3083 34.7054 33.4459 36.4716 36.9067 36.4716C41.4361 36.4716 45.3063 33.3964 46.4097 29.1277L44.1166 30.2201C43.3841 30.569 42.5083 30.2587 42.1613 29.5261C41.8125 28.7936 42.1227 27.9178 42.8553 27.5708L47.5664 25.3273ZM21.2863 23.4013C20.7942 22.7569 20.9172 21.8371 21.5598 21.3432C22.2043 20.8512 23.1241 20.9742 23.618 21.6168L24.6828 23.0103C26.2654 17.6529 31.195 13.8965 36.9086 13.8965C41.3939 13.8965 45.4697 16.1896 47.8106 20.0286C48.2329 20.7208 48.0144 21.6241 47.3222 22.0464C46.6301 22.4686 45.7268 22.2483 45.3045 21.558C43.5016 18.6002 40.362 16.834 36.9086 16.834C32.3921 16.834 28.5127 19.8799 27.4037 24.1779L29.6932 23.0855C30.4239 22.7367 31.3015 23.047 31.6503 23.7777C31.9992 24.5102 31.6889 25.386 30.9582 25.7348L26.2526 27.9784C25.9488 28.1236 25.6043 28.1598 25.2769 28.0809C24.9496 28.002 24.6594 27.8128 24.4552 27.5451L21.2863 23.4013ZM18.5745 65.8362H55.2389C58.0223 65.8362 60.2879 63.5724 60.2879 60.7872C60.2879 58.0039 58.0241 55.7383 55.2389 55.7383H18.5745C15.7912 55.7383 13.5256 58.0021 13.5256 60.7872C13.5256 63.5706 15.7912 65.8362 18.5745 65.8362ZM57.3521 60.7872C57.3521 61.9531 56.4048 62.9005 55.2389 62.9005H46.0627V58.674H55.2389C56.4048 58.674 57.3521 59.6214 57.3521 60.7872ZM18.5745 58.674H43.1289V62.9005H18.5745C17.4087 62.9005 16.4613 61.9531 16.4613 60.7872C16.4613 59.6214 17.4087 58.674 18.5745 58.674Z" fill="#EAA73F"></path></svg>