<?xml version="1.0" encoding="utf-8"?>
<!-- Generator: Adobe Illustrator 25.4.1, SVG Export Plug-In . SVG Version: 6.00 Build 0)  -->
<svg version="1.1" xmlns="http://www.w3.org/2000/svg" xmlns:xlink="http://www.w3.org/1999/xlink" x="0px" y="0px"
	 viewBox="0 0 2000 1500" style="enable-background:new 0 0 2000 1500;" xml:space="preserve">
<g id="Layer_3">
</g>
<g id="Layer_1">
	<g id="Layer_2">
	</g>
	<g>
		<g>
			<rect x="0" style="fill:#6FB3F7;" width="2000" height="1500"/>
		</g>
		<g>
			<g>
				<path style="fill:#FFF2CB;" d="M1180.104,1347.946h685.089c22.331,0,40.434-18.103,40.434-40.434V522.179
					c0-22.331-18.103-40.434-40.434-40.434h-685.089c-22.331,0-40.434,18.103-40.434,40.434v785.333
					C1139.67,1329.843,1157.773,1347.946,1180.104,1347.946z"/>
			</g>
			<g>
				<path style="fill:#524560;" d="M1245.541,1197.304c0,0-26.818,81.039-33.665,150.642h409.109c0,0-7.418-59.349-24.535-90.731
					c-17.117-31.382-67.329-73.605-67.329-73.605L1245.541,1197.304z"/>
			</g>
			<g>
				<path style="fill:#271B0F;" d="M1350.236,1220.535c0,0,78.849,32.273,155.445,22.986c76.596-9.287,0-58.779,0-58.779
					L1350.236,1220.535z"/>
			</g>
			<g>
				<path style="fill:#FC8DA5;" d="M1365.364,1347.946c0,0,18.449-67.337,91.864-104.425h40.321l38.039,49.26
					c0,0-20.922,39.196-52.494,55.165H1365.364z"/>
			</g>
			<g>
				<path style="fill:#271B0F;" d="M1483.094,1349.446h-117.73c-0.468,0-0.909-0.219-1.192-0.59
					c-0.284-0.372-0.378-0.855-0.254-1.307c0.191-0.696,4.831-17.302,18.586-38.719c12.682-19.747,35.823-47.339,74.049-66.649
					c0.209-0.105,0.441-0.161,0.676-0.161h40.321c0.465,0,0.903,0.216,1.187,0.583l38.039,49.261
					c0.361,0.468,0.414,1.103,0.136,1.623c-0.211,0.396-21.51,39.8-53.14,55.798
					C1483.562,1349.391,1483.33,1349.446,1483.094,1349.446z M1367.403,1346.446h115.331c28.066-14.37,47.824-47.794,51.063-53.529
					l-36.985-47.896h-39.227C1392.749,1277.925,1371.082,1335.309,1367.403,1346.446z"/>
			</g>
			<g>
				<path style="fill:#271B0F;" d="M1620.985,1349.446h-409.108c-0.423,0-0.827-0.179-1.111-0.492
					c-0.284-0.314-0.423-0.733-0.381-1.154c6.785-68.972,33.464-150.155,33.733-150.968c0.195-0.589,0.732-0.997,1.352-1.026
					l283.58-13.694c0.377-0.015,0.748,0.106,1.038,0.35c0.504,0.425,50.625,42.768,67.68,74.035
					c17.057,31.271,24.632,90.668,24.707,91.265c0.054,0.427-0.079,0.855-0.364,1.179
					C1621.825,1349.262,1621.416,1349.446,1620.985,1349.446z M1213.535,1346.446h405.736c-1.366-9.882-8.957-60.682-24.138-88.513
					c-15.935-29.216-61.515-68.521-66.531-72.798l-281.955,13.616C1243.628,1208.096,1220.124,1282.272,1213.535,1346.446z"/>
			</g>
			<g>
				<path style="fill:#F9C467;" d="M1139.67,599.379v-77.2c0-22.331,18.103-40.434,40.434-40.434h685.089
					c22.331,0,40.434,18.103,40.434,40.434v77.2H1139.67z"/>
			</g>
			<g>
				<path style="fill:#271B0F;" d="M1905.628,600.878H1139.67c-0.829,0-1.5-0.671-1.5-1.5v-77.2
					c0-23.123,18.812-41.934,41.934-41.934h685.089c23.123,0,41.935,18.812,41.935,41.934v77.2
					C1907.128,600.207,1906.456,600.878,1905.628,600.878z M1141.17,597.878h762.958v-75.7c0-21.468-17.466-38.934-38.935-38.934
					h-685.089c-21.468,0-38.934,17.466-38.934,38.934V597.878z"/>
			</g>
			<g>
				<path style="fill:#271B0F;" d="M1865.193,1349.446h-685.089c-23.123,0-41.934-18.812-41.934-41.935V522.179
					c0-23.123,18.812-41.934,41.934-41.934h685.089c23.123,0,41.935,18.812,41.935,41.934v785.333
					C1907.128,1330.635,1888.316,1349.446,1865.193,1349.446z M1180.104,483.245c-21.468,0-38.934,17.466-38.934,38.934v785.333
					c0,21.469,17.466,38.935,38.934,38.935h685.089c21.469,0,38.935-17.466,38.935-38.935V522.179
					c0-21.468-17.466-38.934-38.935-38.934H1180.104z"/>
			</g>
			<g>
				<path style="fill:#524560;" d="M1654.405,911.441c50.837-32.143,47.893-79.153,25.921-105.677
					c-17.324-20.913-37.778-30.196-29.1-62.241c12.214-45.099-19.685-77.718-46.217-90.12
					c-26.532-12.401-35.091-38.951-41.336-122.294c-6.245-83.342-95.605-123.78-145.245-123.78
					c-49.641,0-119.823,12.838-136.94,61.623c-17.117,48.785,9.556,73.578,9.556,73.578l-8.7,142.986
					c-43.65,46.244-11.126,102.678-11.126,102.678l238.639,17.569L1654.405,911.441z"/>
			</g>
			<g>
				<path style="fill:#271B0F;" d="M1654.405,912.941c-0.312,0-0.622-0.097-0.886-0.289l-144.202-105.424l-238.21-17.537
					c-0.496-0.037-0.941-0.316-1.189-0.747c-0.338-0.587-8.309-14.594-10.992-34.547c-2.471-18.37-0.648-45.296,21.954-69.513
					l8.627-141.779c-3.688-3.894-25.333-29.339-9.434-74.649c20.389-58.11,111.054-62.626,138.355-62.626
					c27.701,0,62.933,12.132,89.756,30.908c24.035,16.824,53.431,46.833,56.984,94.26c6.226,83.085,14.926,109.105,40.476,121.046
					c15.417,7.206,29.365,19.362,38.269,33.352c11.294,17.746,14.323,37.981,8.762,58.519c-6.542,24.155,3.918,34.812,17.161,48.302
					c3.829,3.9,7.788,7.935,11.646,12.59c12.223,14.756,17.54,33.867,14.59,52.436c-2.388,15.026-11.416,36.847-40.864,55.467
					C1654.962,912.864,1654.683,912.941,1654.405,912.941z M1272.144,786.76l237.822,17.508c0.28,0.021,0.549,0.119,0.775,0.285
					l143.722,105.072c22.047-14.188,35.402-32.445,38.646-52.854c2.815-17.717-2.265-35.96-13.938-50.051
					c-3.776-4.559-7.69-8.546-11.476-12.402c-13.365-13.614-24.908-25.373-17.917-51.188c11.091-40.95-15.762-74.514-45.404-88.369
					c-26.797-12.525-35.868-39.08-42.196-123.54c-3.466-46.255-32.21-75.575-55.713-92.027
					c-26.353-18.446-60.909-30.365-88.036-30.365c-26.803,0-115.789,4.372-135.524,60.62c-16.563,47.205,8.904,71.742,9.164,71.984
					c0.327,0.305,0.501,0.742,0.474,1.188l-8.701,142.986c-0.021,0.351-0.165,0.683-0.406,0.938
					c-17.75,18.806-25.001,41.464-21.55,67.345C1264.147,770.857,1270.528,783.714,1272.144,786.76z"/>
			</g>
			<g>
				<g>
					<circle style="fill:#FFF2CB;" cx="1848.819" cy="540.562" r="10.596"/>
				</g>
				<g>
					<path style="fill:#271B0F;" d="M1848.819,552.657c-6.67,0-12.096-5.426-12.096-12.096s5.426-12.096,12.096-12.096
						s12.096,5.426,12.096,12.096S1855.489,552.657,1848.819,552.657z M1848.819,531.466c-5.016,0-9.096,4.08-9.096,9.096
						s4.08,9.096,9.096,9.096s9.096-4.08,9.096-9.096S1853.835,531.466,1848.819,531.466z"/>
				</g>
			</g>
			<g>
				<g>
					<circle style="fill:#FFF2CB;" cx="1814.436" cy="540.562" r="10.596"/>
				</g>
				<g>
					<path style="fill:#271B0F;" d="M1814.437,552.657c-6.67,0-12.096-5.426-12.096-12.096s5.426-12.096,12.096-12.096
						s12.096,5.426,12.096,12.096S1821.106,552.657,1814.437,552.657z M1814.437,531.466c-5.016,0-9.096,4.08-9.096,9.096
						s4.08,9.096,9.096,9.096s9.096-4.08,9.096-9.096S1819.452,531.466,1814.437,531.466z"/>
				</g>
			</g>
			<g>
				<g>
					<circle style="fill:#FFF2CB;" cx="1780.053" cy="540.562" r="10.596"/>
				</g>
				<g>
					<path style="fill:#271B0F;" d="M1780.054,552.657c-6.67,0-12.097-5.426-12.097-12.096s5.427-12.096,12.097-12.096
						s12.096,5.426,12.096,12.096S1786.724,552.657,1780.054,552.657z M1780.054,531.466c-5.016,0-9.097,4.08-9.097,9.096
						s4.081,9.096,9.097,9.096s9.096-4.08,9.096-9.096S1785.069,531.466,1780.054,531.466z"/>
				</g>
			</g>
			<g>
				<path style="fill:#FC8DA5;" d="M1057.819,763.089l-2.282-14.645c0,0,18.187-9.51,21.266-36.898
					c3.079-27.388,13.017-56.298,26.116-73.605c13.1-17.308-17.712-31.382-31.026-8.939c-13.314,22.443-14.455,26.247-14.455,26.247
					V587.92c0,0,0.729-24.263-3.771-36.66c-1.898-5.228-6.834-8.729-12.396-8.729l0,0c0,0,1.902-20.656-8.369-24.08
					s-16.167,8.987-16.167,8.987l-45.644,106.773l-6.279,171.553l81.908,12.672l15.091-35.213L1057.819,763.089z"/>
			</g>
			<g>
				<path style="fill:#271B0F;" d="M1046.723,819.936c-0.076,0-0.153-0.006-0.23-0.018l-81.908-12.672
					c-0.751-0.116-1.297-0.777-1.27-1.537l6.279-171.552c0.007-0.184,0.047-0.366,0.12-0.535l45.644-106.773
					c2.261-4.761,8.898-12.86,18.021-9.819c9.63,3.21,9.717,19.006,9.487,24.09c5.496,0.608,10.287,4.324,12.213,9.629
					c4.545,12.523,3.89,36.214,3.86,37.217l0,60.739c2.086-3.942,5.636-10.305,11.665-20.467
					c4.891-8.245,12.619-12.722,21.162-12.309c6.626,0.327,12.408,3.751,14.729,8.724c2.058,4.407,1.212,9.449-2.38,14.195
					c-12.578,16.618-22.714,45.22-25.822,72.867c-2.763,24.575-17.217,35.095-21.117,37.511l2.12,13.601l3.988,20.104
					c0.059,0.297,0.027,0.604-0.092,0.883l-15.091,35.213C1047.862,819.584,1047.315,819.936,1046.723,819.936z M966.362,804.485
					l79.44,12.29l14.45-33.717l-3.904-19.678c-0.004-0.021-0.008-0.041-0.011-0.061l-2.282-14.645
					c-0.099-0.635,0.217-1.262,0.787-1.56c0.172-0.091,17.524-9.535,20.47-35.736c3.164-28.145,13.531-57.326,26.411-74.343
					c2.931-3.872,3.641-7.716,2.054-11.116c-1.857-3.977-6.629-6.724-12.159-6.997c-7.406-0.357-14.129,3.587-18.434,10.843
					c-12.813,21.6-14.26,25.769-14.315,25.936c-0.231,0.699-0.937,1.134-1.666,1.018c-0.727-0.117-1.264-0.735-1.264-1.472V587.92
					c0.008-0.285,0.668-24.166-3.681-36.148c-1.681-4.63-6.095-7.741-10.985-7.741c-0.421,0-0.824-0.178-1.108-0.489
					c-0.284-0.312-0.424-0.729-0.386-1.148c0.018-0.195,1.673-19.512-7.349-22.52c-8.875-2.958-14.12,7.752-14.338,8.209
					l-45.509,106.461L966.362,804.485z"/>
			</g>
			<g>
				<path style="fill:#271B0F;" d="M1043.768,678.431c-0.335,0-0.673-0.112-0.953-0.342c-0.64-0.526-0.731-1.472-0.204-2.111
					c7.771-9.438,13.417-21.253,13.473-21.372c0.355-0.748,1.248-1.067,1.999-0.712c0.748,0.355,1.067,1.249,0.712,1.998
					c-0.235,0.496-5.854,12.262-13.868,21.993C1044.63,678.245,1044.201,678.431,1043.768,678.431z"/>
			</g>
			<g>
				<g>
					<path style="fill:#FAE1C5;" d="M1662.638,899.459c-75.317-148.352-178.022-136.958-178.022-136.958l-142.646,2.87
						c-77.029-15.976-132.946,38.229-163.758,76.458c-30.812,38.229-63.905,57.629-63.905,57.629
						c-8.299-13.181-28.913-62.374-37.504-93.695c0,0,6.693-8.44,2.984-20.422c-7.492-24.205-21.967-22.253-21.967-22.253
						s6.801,30.812-75.34,33.664h-34.212c0,0,27.778,229.153,91.293,264.18c77.599,42.794,184.869-50.782,184.869-50.782
						c1.522,16.737,14.835,31.953,23.584,66.949c8.749,34.996,1.141,81.403,1.141,81.403c-16.357,22.443-3.614,38.8-3.614,38.8
						c95.858,42.794,235.08,15.976,235.08,15.976c-22.253,3.994-23.394,30.241-23.394,30.241
						c52.494,27.958,77.599,70.182,77.599,70.182s9.776,4.102,21.682-3.994c9.51-6.467,9.723-15.087,9.723-15.087
						c30.973-20.748,81.523-59.475,136.347-121.283C1749.167,1120.816,1737.955,1047.811,1662.638,899.459z M1568.492,1112.857
						c-10.841-41.653,0-83.305,0-83.305l24.535,52.494L1568.492,1112.857z"/>
				</g>
			</g>
			<g>
				<polygon style="fill:#271B0F;" points="1524.557,939.68 1563.674,1057.143 1568.093,1031.223 				"/>
			</g>
			<g>
				<path style="fill:#271B0F;" d="M1224.43,1010.152c0,0-8.998-51.805,14.558-111.093c0,0-36.973,48.531-33.48,125.725
					L1224.43,1010.152z"/>
			</g>
			<g>
				<path style="fill:#271B0F;" d="M1541.299,1316.257c-4.17,0-6.837-1.08-7.053-1.171c-0.296-0.124-0.544-0.34-0.708-0.616
					c-0.25-0.419-25.529-42.203-77.015-69.625c-0.51-0.271-0.818-0.812-0.793-1.39c0.009-0.219,0.935-17.596,13.079-26.721
					c-14.165,2.101-39.568,5.231-69.737,6.104c-42.844,1.243-104.366-1.943-154.142-24.165c-0.225-0.101-0.421-0.254-0.572-0.448
					c-0.134-0.172-13.131-17.368,3.371-40.31c0.664-4.313,7.008-47.738-1.17-80.451c-4.508-18.03-10.289-30.892-14.935-41.226
					c-3.935-8.754-7.136-15.874-8.333-23.171c-7.069,5.835-31.071,24.815-61.532,39.867c-21.35,10.55-41.665,17.146-60.38,19.604
					c-23.514,3.09-44.557-0.375-62.543-10.293c-26.725-14.738-50.343-63.922-70.199-146.187
					c-14.734-61.045-21.79-118.553-21.859-119.126c-0.051-0.427,0.082-0.854,0.367-1.176s0.693-0.505,1.123-0.505h34.212
					c45.938-1.597,63.461-11.941,70.062-20.339c4.845-6.162,3.855-11.297,3.811-11.513c-0.084-0.407,0.003-0.836,0.244-1.176
					c0.24-0.339,0.61-0.568,1.022-0.624c0.638-0.094,15.822-1.833,23.601,23.296c3.352,10.83-1.242,18.88-2.78,21.157
					c8.628,31.092,28.085,77.24,36.368,91.336c6.323-3.965,35.322-23.108,62.237-56.503
					c50.931-63.193,106.458-89.108,165.064-77.021l142.413-2.865c1.819-0.192,26.98-2.453,61.475,12.976
					c32.238,14.42,78.875,47.776,117.98,124.802c38.721,76.269,59.64,131.348,65.831,173.336
					c6.279,42.579-2.016,75.061-26.105,102.218c-53.878,60.741-103.611,99.349-136.038,121.134
					c-0.298,2.428-1.886,9.753-10.311,15.481C1551.137,1315.177,1545.467,1316.256,1541.299,1316.257z M1535.831,1312.473
					c1.924,0.634,10.022,2.67,19.836-4.004c8.701-5.917,9.056-13.567,9.066-13.891c0.016-0.482,0.264-0.934,0.665-1.202
					c32.266-21.613,82.062-60.156,136.06-121.032c23.456-26.444,31.521-58.153,25.382-99.79
					c-6.144-41.658-26.969-96.444-65.539-172.416c-38.65-76.131-84.599-109.091-116.338-123.335
					c-34.356-15.418-59.929-12.838-60.182-12.811c-0.044,0.005-0.09,0.008-0.134,0.009L1342,766.871
					c-0.119-0.005-0.225-0.009-0.335-0.031c-57.468-11.918-112.071,13.627-162.285,75.932
					c-30.63,38.003-63.981,57.786-64.314,57.981c-0.7,0.409-1.597,0.19-2.028-0.495c-8.796-13.971-29.423-63.99-37.682-94.098
					c-0.126-0.461-0.025-0.954,0.271-1.328c0.25-0.319,6.142-8.011,2.726-19.047c-5.692-18.391-15.262-20.936-18.899-21.212
					c0.038,2.427-0.533,7.01-4.445,12.057c-6.943,8.957-25.153,19.979-72.478,21.623l-32.562,0.001
					c2.707,20.912,31.035,228.676,90.315,261.366c39.503,21.786,87.109,6.941,120.09-9.347
					c35.937-17.747,62.802-41.019,63.069-41.252c0.425-0.369,1.021-0.472,1.544-0.262c0.523,0.21,0.884,0.695,0.935,1.257
					c0.709,7.802,4.12,15.389,8.437,24.993c4.694,10.442,10.536,23.438,15.108,41.728c8.723,34.893,1.243,81.542,1.167,82.01
					c-0.038,0.231-0.13,0.45-0.268,0.641c-14.482,19.871-5.445,34.436-3.851,36.708c49.181,21.839,110.002,24.977,152.417,23.746
					c43.421-1.254,76.901-7.203,80.988-7.956c0.144-0.028,0.291-0.056,0.436-0.082c0.814-0.141,1.589,0.391,1.74,1.202
					c0.151,0.811-0.381,1.591-1.191,1.747c-0.021,0.004-0.159,0.03-0.411,0.077c-18.393,3.57-21.276,23.229-21.7,27.828
					C1507.542,1268.917,1532.897,1307.788,1535.831,1312.473z M1568.492,1114.357c-0.104,0-0.208-0.011-0.311-0.032
					c-0.556-0.118-0.998-0.54-1.141-1.09c-10.814-41.55-0.109-83.641,0-84.062c0.159-0.611,0.685-1.059,1.315-1.116
					c0.626-0.056,1.228,0.286,1.496,0.859l24.535,52.494c0.241,0.516,0.169,1.124-0.186,1.569l-24.535,30.812
					C1569.377,1114.153,1568.943,1114.357,1568.492,1114.357z M1569,1034.181c-2.283,11.259-7.371,43.185,0.215,75.36l22.06-27.702
					L1569,1034.181z"/>
			</g>
			<g>
				<path style="fill:#271B0F;" d="M1033.717,589.61c-0.025,0-0.051,0-0.077-0.002c-0.827-0.042-1.464-0.746-1.423-1.573
					c1.735-34.587,7.487-45.751,7.73-46.209c0.39-0.73,1.297-1.008,2.029-0.619c0.73,0.389,1.007,1.294,0.621,2.025
					c-0.08,0.154-5.696,11.301-7.385,44.954C1035.174,588.987,1034.511,589.61,1033.717,589.61z"/>
			</g>
			<g>
				<path style="fill:#271B0F;" d="M1032.902,758.884c-0.736,0-1.378-0.542-1.483-1.291c-0.115-0.82,0.456-1.579,1.276-1.694
					c11.661-1.64,21.888-8.618,21.99-8.688c0.68-0.469,1.615-0.299,2.086,0.382c0.47,0.682,0.3,1.615-0.382,2.086
					c-0.439,0.304-10.896,7.45-23.277,9.191C1033.042,758.879,1032.972,758.884,1032.902,758.884z"/>
			</g>
			<g>
				<path style="fill:#FC8DA5;" d="M1455.853,609.831c-11.031-45.319-68.617-92.283-68.617-92.283
					c-33.855-22.823-37.278-62.003-37.278-62.003c-54.746,26.678-68.075,70.41-71.284,92.04c-1.329,8.961-4.187,17.612-8.253,25.707
					c-0.131,0.26-0.26,0.52-0.389,0.78c-13.254,26.785-16.467,57.604-8.612,86.438c11.38,41.777,42.138,68.631,84.932,69.487
					c0,0,6.269,16.927-4.382,35.376c-10.651,18.449-8.924,64.476,47.271,64.096c56.195-0.38,89.669-45.681,95.375-66.966
					c-49.355-19.382-27.855-101.276-27.855-101.276s49.191,5.139,52.862-40.381C1513.294,575.324,1472.566,567.982,1455.853,609.831
					z"/>
			</g>
			<g>
				<path style="fill:#271B0F;" d="M1415.994,696.085c-29.249,36.993-69.642,33.91-69.642,33.91l0,0c0,0,3.184,8.611,1.15,20.241
					l0,0C1408.463,734.901,1415.994,696.085,1415.994,696.085z"/>
			</g>
			<g>
				<path style="fill:#271B0F;" d="M1348.76,731.563c-1.51,0-2.395-0.062-2.522-0.072c-0.826-0.063-1.443-0.783-1.381-1.608
					s0.771-1.446,1.608-1.383c0.46,0.034,46.811,2.943,75.25-43.226c0.435-0.706,1.359-0.925,2.064-0.491
					c0.706,0.435,0.925,1.359,0.491,2.064c-15.369,24.95-35.737,35.762-50.117,40.438
					C1362.583,731.048,1353.094,731.563,1348.76,731.563z"/>
			</g>
			<g>
				<path style="fill:#271B0F;" d="M1314.883,625.752c-0.055,0-0.11-0.003-0.166-0.009c-15.617-1.712-24.343-10.106-26.063-17.667
					c-1.399-6.151,1.339-11.883,7.514-15.725c14.127-8.791,25.394-32.049,25.506-32.283c0.358-0.748,1.255-1.061,2.001-0.704
					c0.747,0.358,1.062,1.254,0.704,2.001c-0.473,0.987-11.764,24.286-26.626,33.533c-5.021,3.125-7.271,7.686-6.173,12.513
					c1.484,6.523,9.315,13.799,23.465,15.35c0.823,0.09,1.418,0.831,1.328,1.655
					C1316.288,625.183,1315.638,625.752,1314.883,625.752z"/>
			</g>
			<g>
				<path style="fill:#FFF2CB;" d="M1374.234,634.993c0,0-32.046,26.834-83.189,3.295c0,0,5.731,34.322,41.867,33.513
					C1369.806,670.975,1374.234,634.993,1374.234,634.993z"/>
			</g>
			<g>
				<path style="fill:#271B0F;" d="M1331.668,673.314c-35.877,0-42.045-34.428-42.104-34.78c-0.091-0.548,0.127-1.102,0.569-1.439
					c0.441-0.338,1.034-0.402,1.538-0.171c49.617,22.837,81.288-2.82,81.601-3.083c0.473-0.394,1.138-0.46,1.679-0.165
					c0.541,0.294,0.847,0.889,0.771,1.5c-0.046,0.373-5.023,37.279-42.777,38.124
					C1332.516,673.31,1332.089,673.314,1331.668,673.314z M1293.187,640.883c2.229,8.043,11.006,30.073,39.691,29.417
					c28.29-0.633,36.832-22.96,39.117-31.873c-3.66,2.359-10.376,6.027-19.797,8.491
					C1339.281,650.295,1318.723,651.883,1293.187,640.883z"/>
			</g>
			<g>
				<ellipse style="fill:#524560;" cx="1359.972" cy="574.802" rx="7.608" ry="10.461"/>
			</g>
			<g>
				<path style="fill:#271B0F;" d="M1359.972,586.763c-5.022,0-9.108-5.365-9.108-11.96s4.086-11.961,9.108-11.961
					s9.108,5.366,9.108,11.961S1364.994,586.763,1359.972,586.763z M1359.972,565.841c-3.311,0-6.108,4.104-6.108,8.961
					c0,4.857,2.797,8.96,6.108,8.96s6.108-4.104,6.108-8.96C1366.08,569.945,1363.283,565.841,1359.972,565.841z"/>
			</g>
			<g>
				<ellipse style="fill:#524560;" cx="1296.834" cy="560.689" rx="7.03" ry="9.667"/>
			</g>
			<g>
				<path style="fill:#271B0F;" d="M1296.834,571.855c-4.704,0-8.53-5.009-8.53-11.167s3.827-11.167,8.53-11.167
					s8.53,5.009,8.53,11.167S1301.538,571.855,1296.834,571.855z M1296.834,552.522c-2.998,0-5.53,3.74-5.53,8.167
					s2.533,8.167,5.53,8.167s5.53-3.74,5.53-8.167S1299.832,552.522,1296.834,552.522z"/>
			</g>
			<g>
				<path style="fill:#271B0F;" d="M1224.428,1011.652c-0.716,0-1.349-0.514-1.476-1.243c-0.126-0.729-12.149-73.651,31.007-144.821
					c0.43-0.709,1.353-0.935,2.061-0.505c0.708,0.429,0.934,1.352,0.505,2.06c-42.553,70.175-30.741,142.036-30.616,142.754
					c0.141,0.815-0.406,1.592-1.222,1.733C1224.599,1011.646,1224.513,1011.652,1224.428,1011.652z"/>
			</g>
			<g>
				<path style="fill:#271B0F;" d="M1654.269,1101.805c-0.338,0-0.678-0.113-0.958-0.347
					c-30.552-25.398-59.606-18.042-59.896-17.963c-0.662,0.176-1.358-0.117-1.694-0.713c-0.336-0.596-0.227-1.344,0.266-1.817
					c0.83-0.799,20.853-19.458,66.353-11.236c0.815,0.147,1.356,0.928,1.21,1.743c-0.148,0.816-0.934,1.349-1.743,1.21
					c-31.417-5.676-50.366,1.982-58.707,6.896c10.593-0.934,32.749,0.137,56.129,19.573c0.637,0.529,0.724,1.476,0.194,2.112
					C1655.126,1101.62,1654.699,1101.805,1654.269,1101.805z"/>
			</g>
			<g>
				<path style="fill:#271B0F;" d="M1568.493,1031.052c-0.544,0-1.069-0.297-1.335-0.813c-0.337-0.655-33.868-65.893-49.306-102.042
					c-0.325-0.762,0.028-1.643,0.79-1.969c0.761-0.324,1.644,0.028,1.969,0.791c15.396,36.051,48.878,101.193,49.215,101.847
					c0.379,0.737,0.089,1.642-0.647,2.021C1568.958,1030.998,1568.724,1031.052,1568.493,1031.052z"/>
			</g>
			<g>
				<path style="fill:#271B0F;" d="M1444.106,1086.233c-0.092,0-0.186-0.008-0.279-0.026c-41.426-7.807-66.223-22.541-79.73-33.526
					c-14.753-11.999-19.578-22.069-19.776-22.492c-0.352-0.75-0.028-1.644,0.722-1.995c0.751-0.352,1.643-0.027,1.995,0.722
					c0.245,0.513,19.687,39.709,97.345,54.345c0.814,0.153,1.35,0.938,1.196,1.751
					C1445.443,1085.731,1444.813,1086.233,1444.106,1086.233z"/>
			</g>
			<g>
				<path style="fill:#FC8DA5;" d="M892.657,725.145c0,0,4.945-15.12-3.804-52.779c-8.749-37.659-0.439-60.361-5.325-78.36
					c-7.608-28.025,27.582-33.094,35.283,20.541c0,0,24.977-80.717,46.276-99.032c2.972-2.556,7.072-3.554,10.76-2.226
					c3.14,1.13,6.186,3.878,5.811,10.344c0,0,6.536-10.51,15.226-8.537c13.314,3.022,6.847,25.465,6.847,25.465
					s5.988-6.064,11.313-3.972c5.326,2.092,14.934,10.819,4.854,38.397c0,0,5.896-1.522,9.129,2.092s10.461,16.167-3.994,82.354
					c-14.455,66.188-25.866,82.544-52.113,114.497l-51.733-22.063L892.657,725.145z"/>
			</g>
			<g>
				<path style="fill:#271B0F;" d="M972.919,775.431c-0.198,0-0.397-0.039-0.588-0.12l-51.733-22.062
					c-0.161-0.069-0.309-0.165-0.437-0.285l-28.529-26.723c-0.424-0.397-0.581-1.005-0.401-1.558
					c0.068-0.215,4.657-15.414-3.838-51.977c-5.073-21.837-4.458-38.81-3.962-52.448c0.358-9.886,0.668-18.423-1.35-25.858
					c-2.247-8.278-1.019-15.603,3.284-19.595c3.18-2.949,7.622-3.715,12.187-2.099c10.017,3.545,17.935,16.64,21.703,35.53
					c6.23-19.076,26.614-78.172,44.855-93.857c3.493-3.003,8.186-3.962,12.247-2.5c2.654,0.955,5.654,3.061,6.561,7.686
					c2.885-3.191,8.016-7.355,14.299-5.931c3.189,0.724,5.633,2.489,7.261,5.247c3.142,5.319,2.462,13.163,1.621,17.939
					c2.504-1.563,6.048-2.981,9.495-1.625c4.087,1.605,16.355,9.032,6.531,37.989c2.325-0.103,5.688,0.288,8.021,2.896
					c7.802,8.718,6.575,36.871-3.646,83.674c-14.648,67.071-26.655,83.764-52.419,115.13
					C973.787,775.237,973.358,775.431,972.919,775.431z M922.018,750.592l50.455,21.517c25.595-31.198,36.695-47.067,51.094-112.996
					c12.461-57.06,9.239-75.561,4.342-81.034c-2.574-2.877-7.591-1.652-7.641-1.639c-0.54,0.133-1.111-0.037-1.483-0.45
					c-0.373-0.413-0.488-0.997-0.297-1.519c10.622-29.061-1.463-35.492-3.993-36.486c-4.289-1.685-9.645,3.576-9.697,3.629
					c-0.482,0.488-1.232,0.587-1.825,0.241c-0.592-0.346-0.874-1.05-0.684-1.709c0.037-0.128,3.64-12.917-0.398-19.745
					c-1.208-2.045-2.956-3.302-5.34-3.843c-7.539-1.712-13.561,7.772-13.621,7.868c-0.363,0.582-1.076,0.84-1.728,0.635
					c-0.653-0.208-1.083-0.832-1.043-1.516c0.272-4.687-1.305-7.58-4.821-8.846c-3.046-1.096-6.599-0.349-9.274,1.952
					c-20.732,17.827-45.572,97.535-45.821,98.338c-0.208,0.67-0.853,1.114-1.551,1.052c-0.699-0.055-1.267-0.587-1.367-1.282
					c-3.555-24.758-13.063-36.497-20.776-39.227c-3.528-1.25-6.777-0.727-9.146,1.47c-3.47,3.219-4.378,9.428-2.429,16.609
					c2.138,7.875,1.82,16.623,1.453,26.753c-0.489,13.46-1.097,30.212,3.886,51.661c7.648,32.918,4.958,48.762,4.026,52.64
					L922.018,750.592z"/>
			</g>
			<g>
				<path style="fill:#271B0F;" d="M911.108,639.442c-0.115,0-0.232-0.014-0.349-0.042c-0.806-0.191-1.304-1-1.112-1.806
					c2.849-11.967,7.734-23.519,7.783-23.634c0.324-0.762,1.205-1.118,1.967-0.793s1.118,1.205,0.793,1.967
					c-0.048,0.113-4.837,11.44-7.626,23.154C912.402,638.978,911.786,639.442,911.108,639.442z"/>
			</g>
			<g>
				<path style="fill:#271B0F;" d="M949.717,616.809c-0.109,0-0.22-0.012-0.331-0.037c-0.809-0.182-1.316-0.984-1.134-1.792
					c11.887-52.833,31.874-91.65,32.075-92.036c0.382-0.735,1.288-1.021,2.022-0.64c0.735,0.382,1.021,1.287,0.64,2.022
					c-0.199,0.383-20.013,38.878-31.81,91.312C951.022,616.334,950.403,616.809,949.717,616.809z"/>
			</g>
			<g>
				<path style="fill:#271B0F;" d="M974.252,627.745c-0.106,0-0.213-0.011-0.321-0.035c-0.81-0.177-1.323-0.976-1.146-1.785
					c10.759-49.359,29.427-85.692,29.614-86.054c0.381-0.736,1.287-1.023,2.022-0.641c0.735,0.381,1.022,1.287,0.641,2.022
					c-0.186,0.358-18.676,36.361-29.346,85.312C975.563,627.265,974.942,627.745,974.252,627.745z"/>
			</g>
			<g>
				<path style="fill:#271B0F;" d="M995.363,644.816c-0.118,0-0.238-0.014-0.358-0.044c-0.805-0.197-1.297-1.01-1.099-1.814
					c9.631-39.229,24.509-68.369,24.658-68.658c0.379-0.737,1.284-1.026,2.02-0.647s1.026,1.283,0.647,2.02
					c-0.147,0.287-14.87,29.133-24.412,68C996.651,644.358,996.038,644.816,995.363,644.816z"/>
			</g>
			<g>
				<path style="fill:#FFF2CB;" d="M806.889,1347.946H121.8c-22.331,0-40.434-18.103-40.434-40.434V522.179
					c0-22.331,18.103-40.434,40.434-40.434h685.089c22.331,0,40.434,18.103,40.434,40.434v785.333
					C847.324,1329.843,829.221,1347.946,806.889,1347.946z"/>
			</g>
			<g>
				<path style="fill:#71D385;" d="M847.324,599.379v-77.2c0-22.331-18.103-40.434-40.434-40.434H121.8
					c-22.331,0-40.434,18.103-40.434,40.434v77.2H847.324z"/>
			</g>
			<g>
				<path style="fill:#271B0F;" d="M847.324,600.878H81.366c-0.829,0-1.5-0.671-1.5-1.5s0.671-1.5,1.5-1.5h765.958
					c0.829,0,1.5,0.671,1.5,1.5S848.152,600.878,847.324,600.878z"/>
			</g>
			<g>
				<path style="fill:#271B0F;" d="M806.89,1349.446H121.8c-23.123,0-41.934-18.812-41.934-41.935V522.179
					c0-23.123,18.812-41.934,41.934-41.934H806.89c23.123,0,41.934,18.812,41.934,41.934v785.333
					C848.824,1330.635,830.012,1349.446,806.89,1349.446z M121.8,483.245c-21.468,0-38.934,17.466-38.934,38.934v785.333
					c0,21.469,17.466,38.935,38.934,38.935H806.89c21.468,0,38.934-17.466,38.934-38.935V522.179
					c0-21.468-17.466-38.934-38.934-38.934H121.8z"/>
			</g>
			<g>
				<g>
					<circle style="fill:#FFF2CB;" cx="138.175" cy="540.562" r="10.596"/>
				</g>
				<g>
					<path style="fill:#271B0F;" d="M138.175,552.657c-6.669,0-12.096-5.426-12.096-12.096s5.426-12.096,12.096-12.096
						s12.096,5.426,12.096,12.096S144.844,552.657,138.175,552.657z M138.175,531.466c-5.016,0-9.096,4.08-9.096,9.096
						s4.08,9.096,9.096,9.096s9.096-4.08,9.096-9.096S143.19,531.466,138.175,531.466z"/>
				</g>
			</g>
			<g>
				<g>
					<circle style="fill:#FFF2CB;" cx="172.558" cy="540.562" r="10.596"/>
				</g>
				<g>
					<path style="fill:#271B0F;" d="M172.558,552.657c-6.669,0-12.096-5.426-12.096-12.096s5.426-12.096,12.096-12.096
						s12.096,5.426,12.096,12.096S179.227,552.657,172.558,552.657z M172.558,531.466c-5.016,0-9.096,4.08-9.096,9.096
						s4.08,9.096,9.096,9.096s9.096-4.08,9.096-9.096S177.573,531.466,172.558,531.466z"/>
				</g>
			</g>
			<g>
				<g>
					<circle style="fill:#FFF2CB;" cx="206.941" cy="540.562" r="10.596"/>
				</g>
				<g>
					<path style="fill:#271B0F;" d="M206.94,552.657c-6.669,0-12.096-5.426-12.096-12.096s5.426-12.096,12.096-12.096
						c6.67,0,12.096,5.426,12.096,12.096S213.61,552.657,206.94,552.657z M206.94,531.466c-5.016,0-9.096,4.08-9.096,9.096
						s4.08,9.096,9.096,9.096s9.096-4.08,9.096-9.096S211.956,531.466,206.94,531.466z"/>
				</g>
			</g>
			<g>
				<path style="fill:#524560;" d="M639.413,1304.288c0,0,8.273,16.278,10.556,43.658H212.87c0,0-7.837-32.387,5.655-63.271h356.087
					L639.413,1304.288z"/>
			</g>
			<g>
				<path style="fill:#271B0F;" d="M362.395,1321.586c0,0,102.368,21.348,234.87,26.359h52.705c0,0-0.823-21.604-10.556-43.658
					L362.395,1321.586z"/>
			</g>
			<g>
				<path style="fill:#271B0F;" d="M649.969,1349.446H212.87c-0.692,0-1.295-0.474-1.458-1.147
					c-0.08-0.328-7.799-33.236,5.738-64.225c0.239-0.546,0.778-0.899,1.375-0.899h356.087c0.147,0,0.293,0.021,0.435,0.064
					l64.801,19.613c0.391,0.118,0.717,0.392,0.903,0.756c0.343,0.676,8.433,16.854,10.713,44.213
					c0.035,0.418-0.107,0.832-0.391,1.141C650.789,1349.271,650.388,1349.446,649.969,1349.446z M214.084,1346.446H648.33
					c-2.155-23.021-8.586-37.901-9.985-40.914l-63.956-19.357H219.513C208.285,1312.731,212.901,1340.524,214.084,1346.446z"/>
			</g>
			<g>
				<path style="fill:#524560;" d="M685.857,475.388c9.667-8.8,16.924-20.29,20.477-33.471c4.317-16.015,3.246-34.71-14.712-49.993
					c-27.043-23.015-58.2,5.135-58.2,5.135s-33.262-23.666-92.72-14.184c-90.723,14.469-93.576,60.401-93.576,60.401
					s-46.503,2.853-47.644,69.041c0,0,0.571,55.798,40.892,83.198l34.235,44.898c0,0-7.988,33.474,27.768,44.125
					s22.063-69.231,22.063-69.231l27.388-91.293l96.999-19.4l31.572-12.933L685.857,475.388z"/>
			</g>
			<g>
				<path style="fill:#271B0F;" d="M508.529,687.018c-2.053,0-4.248-0.347-6.579-1.041c-33.738-10.05-29.852-40.14-28.942-45.19
					l-33.678-44.168c-40.305-27.572-41.341-83.72-41.347-84.285c0.6-34.832,13.839-52.148,24.84-60.548
					c9.876-7.542,19.571-9.427,22.962-9.874c0.542-3.434,2.917-13.299,12.998-24.416c11.159-12.305,34.389-28.557,81.684-36.1
					c53.795-8.578,86.848,10.043,92.841,13.8c5.387-4.396,34.15-25.807,59.287-4.413c15.694,13.357,20.804,30.692,15.188,51.526
					c-3.507,13.01-10.636,24.732-20.626,33.924l-5.334,15.926c-0.139,0.414-0.45,0.746-0.854,0.912l-31.572,12.933
					c-0.088,0.036-0.18,0.064-0.274,0.083l-96.115,19.223l-27.029,90.096c0.834,5.045,8.434,53.877-7.313,67.844
					C515.833,685.759,512.44,687.018,508.529,687.018z M568.033,382.156c-8.307,0-17.348,0.647-27.094,2.202
					c-46.236,7.374-68.885,23.073-79.744,34.943c-11.685,12.775-12.564,23.961-12.571,24.073c-0.051,0.752-0.652,1.354-1.405,1.4
					c-0.111,0.007-11.431,0.825-22.707,9.496c-14.936,11.485-23.072,31.567-23.529,58.074c0.006,0.509,1.048,55.302,40.235,81.931
					c0.133,0.091,0.251,0.203,0.35,0.331l34.235,44.898c0.272,0.357,0.37,0.819,0.267,1.256c-0.31,1.311-7.2,32.232,26.737,42.341
					c5.793,1.725,10.329,1.039,13.867-2.098c15.018-13.318,6.378-64.923,6.289-65.442c-0.039-0.229-0.025-0.462,0.042-0.685
					l27.388-91.293c0.159-0.531,0.599-0.931,1.143-1.04l96.857-19.372l30.804-12.618l5.239-15.643
					c0.081-0.243,0.223-0.46,0.413-0.633c9.718-8.845,16.647-20.171,20.039-32.752c5.288-19.616,0.498-35.92-14.236-48.46
					c-25.712-21.883-54.989,3.995-56.223,5.107c-0.521,0.469-1.3,0.516-1.874,0.109C632.28,398.088,609.236,382.156,568.033,382.156
					z M680.4,491.682h0.01H680.4z"/>
			</g>
			<g>
				<path style="fill:#5CA6FF;" d="M946.673,867.791l22.801-51.582l0,0c8.494-6.159,13.078-16.366,12.04-26.806l-0.035-0.352
					c0,0-24.535-51.923-94.717-63.905c0,0-6.321,1.91-11.412,8.273c-5.706,7.132-7.201,16.817-7.201,16.817
					c-23.147,31.031-64.946,85.042-106.345,125.258c0,0-14.273-94.041-143.217-125.671l-135.799-19.828
					c0,0-137.796,27.388-178.022,133.517c-40.226,106.129-89.867,386.856-89.867,386.856s-10.27,33.379,15.406,42.794
					c25.676,9.415,255.907,71.038,409.109,11.126l20.541-100.138c0,0,6.603,98.604,20.43,143.795h119.45
					c0,0-16.634-162.625-25.193-262.762C774.642,1085.184,861.085,1056.179,946.673,867.791z"/>
			</g>
			<g>
				<path style="fill:#271B0F;" d="M657.387,1084.899c-50.642-11.672-113.815-36.766-166.607-60.114
					c0,0,76.111,63.156,185.62,91.492l3.985-26.902C673.122,1088.23,665.454,1086.758,657.387,1084.899z"/>
			</g>
			<g>
				<path style="fill:#271B0F;" d="M799.834,1349.446h-119.45c-0.66,0-1.241-0.431-1.435-1.062
					c-11.023-36.029-17.52-106.582-19.681-133.426l-18.386,89.631c-0.102,0.498-0.45,0.91-0.923,1.096
					c-80.755,31.579-182.207,28.593-253.092,20.526c-78.31-8.91-142.542-26.312-157.079-31.643
					c-25.997-9.531-16.947-42.488-16.352-44.544c1.087-6.13,50.354-282.641,89.927-387.045
					c20.949-55.271,68.563-88.891,104.817-107.361c39.209-19.976,73.968-27.026,74.315-27.095c0.167-0.033,0.339-0.038,0.509-0.013
					l135.799,19.828c0.047,0.007,0.094,0.016,0.141,0.028c67.053,16.449,102.714,50.016,120.823,75.28
					c15.97,22.279,21.414,41.768,22.976,48.833c30.164-29.62,66.056-72.02,103.988-122.852c0.346-1.92,2.136-10.507,7.447-17.146
					c5.32-6.651,11.873-8.689,12.149-8.772c0.223-0.068,0.458-0.082,0.687-0.042c36.633,6.254,60.717,23.49,74.469,36.849
					c14.93,14.501,21.096,27.354,21.352,27.895c0.073,0.155,0.119,0.321,0.136,0.492l0.035,0.353
					c1.074,10.792-3.642,21.454-12.322,27.927l-22.639,51.216c-0.002,0.005-0.004,0.01-0.006,0.014
					c-44.311,97.534-88.867,151.614-118.441,179.808c-28.466,27.136-48.499,36.066-53.363,37.974
					c8.489,99.08,24.928,259.981,25.093,261.602c0.043,0.422-0.094,0.843-0.379,1.157
					C800.664,1349.267,800.259,1349.446,799.834,1349.446z M681.498,1346.446h116.676c-1.776-17.423-17.025-167.514-25.027-261.135
					c-0.059-0.688,0.361-1.328,1.016-1.55c0.215-0.072,21.834-7.599,53.583-37.925c29.325-28.01,73.527-81.749,117.556-178.657
					l22.798-51.576c0.107-0.242,0.277-0.452,0.492-0.608c8.031-5.823,12.41-15.572,11.428-25.443l-0.008-0.08
					c-1.859-3.679-27.182-51.36-93.127-62.783c-1.279,0.47-6.272,2.551-10.365,7.667c-5.377,6.721-6.875,16.017-6.89,16.11
					c-0.038,0.241-0.134,0.471-0.28,0.667c-38.938,52.203-75.766,95.579-106.502,125.438c-0.403,0.391-0.991,0.524-1.523,0.346
					c-0.533-0.18-0.92-0.641-1.005-1.196c-0.036-0.232-3.783-23.591-23.09-50.465c-17.812-24.792-52.906-57.743-118.932-73.958
					l-135.466-19.779c-3.184,0.668-36.251,7.891-73.362,26.811c-35.756,18.229-82.703,51.366-103.302,105.714
					c-39.717,104.785-89.296,383.78-89.792,386.586c-0.011,0.061-0.025,0.121-0.043,0.18c-0.401,1.308-9.542,32.134,14.488,40.944
					c14.448,5.298,78.348,22.599,156.386,31.479c70.325,8.002,170.843,10.995,250.901-20.045l20.377-99.338
					c0.15-0.735,0.83-1.249,1.571-1.194c0.749,0.051,1.345,0.646,1.395,1.396C661.516,1205.026,668.096,1301.462,681.498,1346.446z
					 M946.672,867.791h0.01H946.672z"/>
			</g>
			<g>
				<path style="fill:#FC8DA5;" d="M482.788,729.995c0,0,21.397-24.82,15.406-83.02c0,0-57.344,5.991-61.623-47.073
					c-4.279-53.064,43.199-61.623,62.682-12.838c0,0,39.168-18.829,18.627-89.011c0,0,37.659,15.406,75.317-12.838
					c0,0,22.048,9.957,48.723,8.554c16.676-0.877,32.111-7.615,43.938-18.38c0,0,23.768,72.078,26.876,138.779
					c3.138,67.329-32.523,114.687-89.582,115.829c0,0-4.707,9.7-4.565,19.828c0.143,10.128,3.233,50.734-57.249,41.985
					C502.272,783.264,482.788,729.995,482.788,729.995z"/>
			</g>
			<g>
				<path style="fill:#271B0F;" d="M544.535,698.696c0,0,15.282,41.094,74.052,51.127c-0.143-10.128,4.565-19.828,4.565-19.828
					S578.616,731.817,544.535,698.696z"/>
			</g>
			<g>
				<path style="fill:#271B0F;" d="M577.027,794.528c-4.904,0-10.207-0.411-15.904-1.235c-30.975-4.48-51.004-21.301-62.352-34.622
					c-12.288-14.424-17.189-27.606-17.392-28.16c-0.187-0.511-0.083-1.082,0.272-1.494c0.276-0.326,20.528-24.804,15.194-80.433
					c-6.021,0.361-28.462,0.68-44.776-12.871c-10.039-8.338-15.757-20.346-16.994-35.69c-1.957-24.256,6.968-42.317,22.737-46.013
					c13.316-3.119,31.36,5.278,42.176,30.899c2.893-1.823,9.743-6.914,15.059-16.932c6.391-12.042,11.819-33.874,1.392-69.503
					c-0.162-0.553,0.007-1.149,0.435-1.535c0.427-0.386,1.038-0.493,1.571-0.275c0.369,0.149,37.35,14.724,73.85-12.65
					c0.437-0.329,1.02-0.392,1.517-0.167c0.218,0.098,22.041,9.796,48.028,8.423c15.907-0.837,31.18-7.227,43.007-17.992
					c0.375-0.342,0.898-0.471,1.391-0.341c0.491,0.129,0.884,0.499,1.043,0.981c0.239,0.723,23.868,73.038,26.951,139.179
					c1.725,37.019-8.274,69.111-28.157,90.363c-15.874,16.968-37.275,26.296-61.943,27.012c-1.082,2.503-4.158,10.343-4.045,18.33
					l0.023,1.167c0.153,6.968,0.512,23.286-11.47,33.893C601.371,791.295,590.773,794.528,577.027,794.528z M484.505,730.253
					c2.701,6.538,23.45,52.318,77.048,60.071c20.755,3.003,35.928,0.409,45.098-7.709c10.94-9.685,10.603-25.028,10.459-31.581
					l-0.023-1.19c-0.146-10.364,4.517-20.094,4.715-20.503c0.246-0.507,0.756-0.833,1.32-0.845
					c24.239-0.485,45.251-9.505,60.763-26.085c19.325-20.656,29.038-51.97,27.351-88.174c-2.765-59.32-22.173-123.68-26.109-136.206
					c-12.078,10.303-27.301,16.402-43.128,17.235c-24.181,1.269-44.306-6.527-48.602-8.332
					c-31.788,23.388-63.829,16.323-73.294,13.451c9.681,35.125,4.043,56.97-2.511,69.2c-7.371,13.753-17.27,18.629-17.688,18.831
					c-0.375,0.18-0.807,0.197-1.194,0.046c-0.387-0.151-0.694-0.456-0.849-0.842c-10.068-25.212-27.021-33.578-39.362-30.689
					c-14.242,3.338-22.261,20.158-20.431,42.851c1.169,14.5,6.521,25.809,15.906,33.611c17.61,14.64,43.805,12.117,44.067,12.091
					c0.401-0.04,0.793,0.077,1.101,0.328c0.309,0.251,0.505,0.615,0.546,1.01C505.191,700.302,488.006,725.7,484.505,730.253z"/>
			</g>
			<g>
				<path style="fill:#271B0F;" d="M622.18,731.507c-7.492,0-53.982-1.591-85.954-39.536c-0.534-0.633-0.453-1.58,0.181-2.113
					c0.635-0.534,1.581-0.453,2.113,0.181c33.752,40.057,84.066,38.475,84.57,38.458c0.827-0.027,1.526,0.61,1.56,1.438
					c0.034,0.828-0.609,1.526-1.438,1.56C623.172,731.496,622.816,731.507,622.18,731.507z"/>
			</g>
			<g>
				<path style="fill:#271B0F;" d="M488.683,611.863c-0.702,0-1.329-0.495-1.47-1.21c-0.044-0.226-4.568-22.605-15.245-28.655
					c-10.252-5.809-17.48,1.91-17.552,1.989c-0.559,0.611-1.507,0.656-2.119,0.097c-0.612-0.559-0.655-1.507-0.097-2.119
					c0.088-0.097,8.939-9.55,21.247-2.577c11.875,6.729,16.517,29.711,16.709,30.686c0.16,0.812-0.369,1.601-1.182,1.761
					C488.876,611.854,488.779,611.863,488.683,611.863z"/>
			</g>
			<g>
				<path style="fill:#271B0F;" d="M466.623,606.157c-0.094,0-0.19-0.009-0.286-0.028c-0.812-0.157-1.345-0.942-1.188-1.755
					c0.101-0.525,2.591-12.943,12.893-19.278c0.705-0.434,1.629-0.214,2.063,0.492c0.434,0.706,0.213,1.629-0.492,2.063
					c-9.156,5.63-11.496,17.174-11.518,17.29C467.955,605.658,467.327,606.157,466.623,606.157z"/>
			</g>
			<g>
				<path style="fill:#271B0F;" d="M564.76,543.013c-0.266,0-0.535-0.07-0.778-0.219c-0.708-0.431-0.932-1.354-0.501-2.061
					c0.165-0.271,16.929-27.05,52.526-20.476c0.815,0.15,1.353,0.933,1.203,1.748c-0.151,0.814-0.936,1.352-1.748,1.203
					c-33.59-6.21-49.265,18.831-49.418,19.085C565.761,542.757,565.267,543.013,564.76,543.013z"/>
			</g>
			<g>
				<path style="fill:#271B0F;" d="M682.301,519.048c-0.269,0-0.541-0.072-0.786-0.223c-16.701-10.303-28.937-0.54-29.45-0.12
					c-0.639,0.525-1.583,0.434-2.11-0.204c-0.526-0.638-0.438-1.581,0.199-2.108c0.141-0.118,14.353-11.585,32.937-0.122
					c0.705,0.435,0.924,1.359,0.489,2.064C683.295,518.795,682.804,519.048,682.301,519.048z"/>
			</g>
			<g>
				<path style="fill:#271B0F;" d="M654.151,626.698c-0.755,0-1.405-0.568-1.489-1.336c-0.09-0.824,0.504-1.564,1.328-1.655
					c16.642-1.824,25.859-10.412,27.612-18.114c1.308-5.747-1.36-11.17-7.319-14.878c-17.29-10.758-30.44-37.894-30.991-39.044
					c-0.358-0.747-0.043-1.643,0.704-2.001c0.746-0.356,1.643-0.043,2.001,0.704c0.131,0.273,13.328,27.5,29.871,37.794
					c7.112,4.425,10.269,11.019,8.66,18.09c-1.988,8.74-12.101,18.447-30.21,20.431
					C654.261,626.695,654.206,626.698,654.151,626.698z"/>
			</g>
			<g>
				<path style="fill:#FFF2CB;" d="M590.248,634.211c0,0,28.529,30.547,82.164,13.43c0,0-9.88,33.365-45.647,28.149
					C590.248,670.464,590.248,634.211,590.248,634.211z"/>
			</g>
			<g>
				<path style="fill:#271B0F;" d="M634.101,677.84c-2.386,0-4.899-0.179-7.552-0.566c-37.369-5.45-37.801-42.688-37.801-43.063
					c0-0.615,0.376-1.168,0.949-1.394c0.572-0.225,1.226-0.08,1.646,0.369c0.28,0.297,28.578,29.631,80.613,13.025
					c0.529-0.167,1.108-0.031,1.505,0.357c0.397,0.389,0.547,0.965,0.389,1.498C673.755,648.388,664.649,677.84,634.101,677.84z
					 M592.003,637.854c1.064,9.125,6.569,32.309,34.979,36.452c28.431,4.148,39.793-16.639,42.988-24.35
					c-26.69,7.799-46.9,3.713-59.307-1.217C601.569,645.126,595.335,640.64,592.003,637.854z"/>
			</g>
			<g>
				<ellipse style="fill:#524560;" cx="605.654" cy="569.091" rx="7.608" ry="10.461"/>
			</g>
			<g>
				<path style="fill:#271B0F;" d="M605.654,581.051c-5.022,0-9.108-5.365-9.108-11.96s4.086-11.961,9.108-11.961
					s9.107,5.366,9.107,11.961S610.676,581.051,605.654,581.051z M605.654,560.13c-3.311,0-6.108,4.104-6.108,8.961
					c0,4.857,2.797,8.96,6.108,8.96c3.311,0,6.107-4.104,6.107-8.96C611.761,564.233,608.964,560.13,605.654,560.13z"/>
			</g>
			<g>
				<ellipse style="fill:#524560;" cx="676.399" cy="556.315" rx="7.03" ry="9.667"/>
			</g>
			<g>
				<path style="fill:#271B0F;" d="M676.399,567.481c-4.704,0-8.53-5.009-8.53-11.167s3.827-11.167,8.53-11.167
					s8.53,5.009,8.53,11.167S681.102,567.481,676.399,567.481z M676.399,548.148c-2.998,0-5.53,3.74-5.53,8.167
					s2.533,8.167,5.53,8.167s5.53-3.74,5.53-8.167S679.396,548.148,676.399,548.148z"/>
			</g>
			<g>
				<path style="fill:#271B0F;" d="M700.178,987.401c-0.774,0-1.43-0.594-1.493-1.379c-0.045-0.554-1.013-13.818,6.178-34.316
					c6.6-18.815,21.665-47.506,55.956-77.344c0.625-0.544,1.572-0.478,2.116,0.147s0.478,1.572-0.146,2.116
					c-33.712,29.333-48.532,57.456-55.028,75.884c-7.032,19.948-6.095,33.143-6.085,33.273c0.065,0.825-0.551,1.548-1.376,1.613
					C700.259,987.4,700.218,987.401,700.178,987.401z"/>
			</g>
			<g>
				<path style="fill:#271B0F;" d="M726.553,915.312c-0.093,0-0.188-0.009-0.283-0.026
					c-118.012-22.521-220.391-81.268-221.411-81.858c-0.717-0.415-0.962-1.332-0.547-2.05c0.416-0.716,1.333-0.964,2.05-0.546
					c1.016,0.588,102.974,59.084,220.47,81.507c0.813,0.155,1.348,0.941,1.192,1.755
					C727.888,914.812,727.259,915.312,726.553,915.312z"/>
			</g>
			<g>
				<path style="fill:#271B0F;" d="M969.475,817.71c-0.513,0-1.012-0.263-1.292-0.736c-18.495-31.263-44.711-47.331-63.446-55.306
					c-20.35-8.662-36.534-9.924-36.695-9.937c-0.826-0.06-1.447-0.778-1.387-1.604c0.06-0.826,0.784-1.436,1.604-1.388
					c0.674,0.049,16.755,1.292,37.545,10.122c19.184,8.147,46.027,24.578,64.962,56.585c0.422,0.713,0.186,1.633-0.527,2.055
					C969.997,817.643,969.734,817.71,969.475,817.71z"/>
			</g>
			<g>
				<path style="fill:#271B0F;" d="M722.194,1094.272c-17.582,0-39.369-1.972-65.145-7.912
					c-106.865-24.63-271.445-109.966-273.095-110.825c-0.735-0.382-1.02-1.288-0.638-2.022c0.383-0.734,1.288-1.021,2.023-0.638
					c1.646,0.857,165.892,86.018,272.383,110.562c75.28,17.352,115.925,0.54,116.327,0.368c0.76-0.326,1.642,0.027,1.969,0.788
					s-0.025,1.643-0.786,1.969C774.962,1086.679,756.684,1094.272,722.194,1094.272z"/>
			</g>
			<g>
				<path style="fill:#271B0F;" d="M659.956,1205.65c-0.087,0-0.176-0.008-0.265-0.023c-0.816-0.145-1.359-0.924-1.214-1.739
					l20.43-114.778c0.145-0.815,0.925-1.354,1.739-1.214c0.816,0.145,1.359,0.924,1.214,1.739l-20.43,114.778
					C661.302,1205.14,660.669,1205.65,659.956,1205.65z"/>
			</g>
			<g>
				<path style="fill:#271B0F;" d="M712.927,912.538c-0.05,0-0.1-0.002-0.15-0.007c-0.824-0.082-1.426-0.816-1.345-1.641
					c1.85-18.694-4.336-37.253-4.399-37.438c-0.266-0.784,0.155-1.636,0.94-1.901c0.788-0.265,1.636,0.156,1.902,0.94
					c0.265,0.781,6.456,19.362,4.542,38.694C714.341,911.96,713.688,912.538,712.927,912.538z"/>
			</g>
			<g>
				<path style="fill:#271B0F;" d="M399.526,1006.092c-22.971,0-37.254-3.178-37.466-3.227c-0.808-0.185-1.312-0.988-1.127-1.796
					s0.991-1.315,1.796-1.128c0.314,0.07,31.878,7.073,76.852-0.02c0.819-0.13,1.586,0.43,1.715,1.248
					c0.129,0.818-0.43,1.586-1.248,1.715C424.803,1005.289,411.068,1006.092,399.526,1006.092z"/>
			</g>
			<g>
				<path style="fill:#271B0F;" d="M1566.233,1296.122c-0.578,0-1.128-0.336-1.375-0.898c-0.232-0.531-23.941-53.38-84.848-80.573
					c-0.435-0.194-0.752-0.584-0.854-1.049s0.023-0.951,0.336-1.309l87.87-100.423c0.545-0.625,1.492-0.688,2.117-0.142
					c0.624,0.546,0.687,1.493,0.141,2.116l-86.54,98.903c60.637,27.919,84.292,80.737,84.526,81.273
					c0.332,0.759-0.015,1.643-0.773,1.975C1566.638,1296.082,1566.434,1296.122,1566.233,1296.122z"/>
			</g>
			<g>
				<path style="fill:#271B0F;" d="M972.223,840.48c-4.163,0-8.4-0.151-12.719-0.477c-0.826-0.062-1.445-0.782-1.383-1.608
					c0.062-0.826,0.77-1.445,1.608-1.384c66.843,5.03,115.67-32.059,116.155-32.435c0.656-0.506,1.598-0.387,2.104,0.269
					c0.507,0.655,0.387,1.598-0.268,2.104C1077.258,807.308,1033.64,840.48,972.223,840.48z"/>
			</g>
			<g>
				<path style="fill:#271B0F;" d="M1388.55,830.969c-28.574,0.001-41.542-11.933-47.395-21.991
					c-8.598-14.776-6.751-33.499-0.484-44.356c8.775-15.2,5.644-29.414,4.573-33.153c-41.728-1.271-73.561-27.578-85.271-70.565
					c-7.917-29.065-4.822-60.139,8.715-87.497l0.393-0.789c4.109-8.18,6.837-16.676,8.109-25.253
					c3.465-23.36,17.441-66.527,72.11-93.168c0.443-0.216,0.964-0.2,1.396,0.043c0.43,0.243,0.712,0.682,0.756,1.174
					c0.034,0.385,3.785,38.753,36.623,60.891c0.038,0.025,0.074,0.052,0.11,0.081c2.294,1.872,54.738,45.037,67.991,88.931
					c9.418-20.071,24.228-26.637,35.274-24.047c10.354,2.427,21.719,14.279,19.669,39.696c-1.066,13.222-5.997,23.572-14.654,30.763
					c-14.036,11.658-33.331,11.402-38.546,11.091c-2.369,10.164-17.073,80.882,27.246,98.286c0.71,0.279,1.098,1.048,0.9,1.785
					c-6.313,23.553-41.193,67.701-96.813,68.077C1389.017,830.969,1388.782,830.969,1388.55,830.969z M1348.746,457.818
					c-51.88,26.101-65.249,67.478-68.588,89.986c-1.319,8.893-4.144,17.694-8.396,26.16l-0.385,0.772
					c-13.212,26.7-16.234,57.021-8.509,85.378c11.441,42.001,42.662,67.564,83.515,68.381c0.617,0.012,1.163,0.4,1.377,0.979
					c0.266,0.718,6.389,17.805-4.49,36.646c-5.693,9.861-7.46,27.704,0.479,41.348c5.501,9.455,17.821,20.709,45.483,20.498
					c30.519-0.206,52.543-13.858,65.646-25.274c15.068-13.128,24.724-28.917,27.925-39.312
					c-19.982-8.487-31.081-28.759-32.12-58.733c-0.792-22.852,4.575-43.595,4.629-43.802c0.188-0.716,0.876-1.186,1.606-1.111
					c0.225,0.026,22.612,2.176,37.646-10.326c8.003-6.655,12.568-16.306,13.566-28.684c1.561-19.355-5.254-33.696-17.363-36.534
					c-10.501-2.463-24.93,4.688-33.519,26.197c-0.242,0.606-0.848,0.992-1.499,0.94c-0.651-0.046-1.197-0.507-1.352-1.141
					c-10.644-43.727-66.068-89.795-68.057-91.435C1356.892,498.865,1350.069,466.416,1348.746,457.818z"/>
			</g>
			<g>
				<path style="fill:#271B0F;" d="M1464.92,631.318c-0.096,0-0.193-0.009-0.291-0.029c-0.813-0.16-1.342-0.948-1.182-1.761
					c0.165-0.84,4.167-20.647,14.437-26.468c10.708-6.065,18.413,2.168,18.489,2.252c0.559,0.612,0.515,1.561-0.097,2.119
					c-0.611,0.557-1.558,0.514-2.116-0.094c-0.266-0.286-6.221-6.526-14.797-1.667c-9.085,5.148-12.935,24.244-12.973,24.437
					C1466.25,630.822,1465.623,631.317,1464.92,631.318z"/>
			</g>
			<g>
				<path style="fill:#271B0F;" d="M1483.843,626.423c-0.705,0-1.333-0.499-1.471-1.216c-0.028-0.14-2.029-9.922-9.783-14.69
					c-0.706-0.434-0.926-1.358-0.492-2.063c0.434-0.707,1.357-0.926,2.063-0.492c8.917,5.483,11.07,16.224,11.157,16.679
					c0.156,0.813-0.376,1.6-1.19,1.756C1484.032,626.414,1483.937,626.423,1483.843,626.423z"/>
			</g>
			<g>
				<path style="fill:#271B0F;" d="M1321.145,527.512c-0.512,0-1.011-0.262-1.292-0.735c-2.7-4.551-6.193-7.396-10.383-8.454
					c-7.401-1.871-14.586,2.37-14.657,2.413c-0.711,0.427-1.632,0.197-2.058-0.514c-0.426-0.71-0.196-1.632,0.514-2.058
					c0.337-0.202,8.34-4.919,16.936-2.75c4.993,1.262,9.107,4.57,12.229,9.833c0.423,0.712,0.188,1.633-0.525,2.055
					C1321.669,527.444,1321.405,527.512,1321.145,527.512z"/>
			</g>
			<g>
				<path style="fill:#271B0F;" d="M1397.889,552.522c-0.479,0-0.95-0.229-1.24-0.654c-16.524-24.199-37.904-17.593-38.806-17.298
					c-0.784,0.254-1.633-0.173-1.891-0.96c-0.257-0.786,0.169-1.632,0.955-1.891c0.243-0.079,24.387-7.658,42.219,18.458
					c0.467,0.684,0.291,1.617-0.393,2.084C1398.474,552.438,1398.18,552.522,1397.889,552.522z"/>
			</g>
			<g>
				<path style="fill:#271B0F;" d="M1349.958,457.044c-0.386,0-0.772-0.148-1.065-0.444c-0.583-0.588-0.579-1.538,0.01-2.121
					c0.388-0.385,39.36-38.609,83.356-47.648c0.811-0.166,1.605,0.356,1.771,1.167c0.167,0.812-0.356,1.604-1.167,1.771
					c-43.132,8.861-81.466,46.461-81.849,46.84C1350.722,456.9,1350.34,457.044,1349.958,457.044z"/>
			</g>
			<g>
				<path style="fill:#271B0F;" d="M1406.805,1180.147c-28.271,0-53.678-1.96-74.292-4.385
					c-50.076-5.89-83.456-15.723-83.787-15.821c-0.794-0.236-1.246-1.071-1.009-1.865s1.071-1.249,1.865-1.01
					c0.33,0.098,33.513,9.868,83.351,15.726c45.968,5.4,115.913,8.483,188.082-7.513c0.811-0.173,1.61,0.331,1.789,1.141
					c0.179,0.809-0.331,1.609-1.14,1.789C1481.445,1177.123,1441.917,1180.147,1406.805,1180.147z"/>
			</g>
			<g>
				<path style="fill:#271B0F;" d="M1395.604,1349.446c-0.257,0-0.518-0.066-0.756-0.205c-0.715-0.419-0.956-1.337-0.538-2.053
					c0.378-0.646,9.368-15.919,18.593-23.606c0.637-0.53,1.583-0.445,2.113,0.192c0.53,0.636,0.444,1.582-0.192,2.112
					c-8.819,7.349-17.834,22.663-17.925,22.817C1396.621,1349.181,1396.119,1349.446,1395.604,1349.446z"/>
			</g>
			<g>
				<path style="fill:#271B0F;" d="M1430.979,1349.446c-0.252,0-0.507-0.063-0.742-0.197c-0.72-0.41-0.97-1.326-0.56-2.046
					c0.13-0.229,3.27-5.658,9.532-10.355c0.662-0.495,1.603-0.362,2.1,0.3c0.497,0.663,0.362,1.604-0.3,2.101
					c-5.771,4.327-8.698,9.391-8.727,9.441C1432.007,1349.175,1431.5,1349.446,1430.979,1349.446z"/>
			</g>
			<g>
				<path style="fill:#271B0F;" d="M1004.302,466.117c-0.021,0-0.041,0-0.062-0.001c-0.828-0.033-1.472-0.731-1.438-1.559
					l0.97-23.971c0.033-0.828,0.747-1.463,1.559-1.438c0.828,0.033,1.472,0.731,1.438,1.559l-0.97,23.971
					C1005.767,465.485,1005.102,466.117,1004.302,466.117z"/>
			</g>
			<g>
				<path style="fill:#271B0F;" d="M973.714,479.809c-0.369,0-0.738-0.135-1.028-0.408l-17.461-16.451
					c-0.603-0.568-0.631-1.518-0.063-2.121c0.567-0.603,1.516-0.631,2.121-0.063l17.461,16.451c0.603,0.568,0.631,1.518,0.063,2.121
					C974.511,479.651,974.113,479.809,973.714,479.809z"/>
			</g>
			<g>
				<path style="fill:#271B0F;" d="M1036.945,482.368c-0.44,0-0.876-0.193-1.172-0.563c-0.518-0.647-0.413-1.591,0.234-2.108
					l18.734-14.986c0.646-0.517,1.59-0.412,2.108,0.234c0.518,0.647,0.413,1.591-0.234,2.108l-18.734,14.986
					C1037.604,482.261,1037.273,482.368,1036.945,482.368z"/>
			</g>
			<g>
				<path style="fill:#FFF2CB;" d="M1332.243,114.293H667.757c-12.427,0-22.5,10.074-22.5,22.5v157.323
					c0,12.427,10.074,22.5,22.5,22.5h286.428c8.268,0,15.833,4.654,19.56,12.034L1000,380.634l26.255-51.983
					c3.728-7.38,11.292-12.034,19.561-12.034h286.428c12.427,0,22.5-10.074,22.5-22.5V136.793
					C1354.744,124.367,1344.67,114.293,1332.243,114.293z"/>
			</g>
			<g>
				<path style="fill:#271B0F;" d="M1000,382.134c-0.566,0-1.083-0.318-1.339-0.824l-26.255-51.982
					c-3.493-6.915-10.475-11.21-18.222-11.21H667.757c-13.234,0-24-10.767-24-24V136.793c0-13.234,10.767-24,24-24h664.487
					c13.233,0,24,10.767,24,24v157.323c0,13.234-10.767,24-24,24h-286.428c-7.747,0-14.729,4.295-18.222,11.21l-26.255,51.982
					C1001.083,381.815,1000.566,382.134,1000,382.134z M667.757,115.793c-11.58,0-21,9.421-21,21v157.323c0,11.58,9.421,21,21,21
					h286.428c8.886,0,16.894,4.927,20.899,12.858L1000,377.307l24.916-49.332c4.006-7.931,12.014-12.858,20.899-12.858h286.428
					c11.58,0,21-9.421,21-21V136.793c0-11.58-9.42-21-21-21H667.757z"/>
			</g>
			<g>
				<g>
					<path style="fill:#F9C467;" d="M735.827,162.089l9.267,28.521c0.681,2.095,2.632,3.513,4.835,3.513h29.989
						c4.925,0,6.972,6.302,2.988,9.196l-24.261,17.627c-1.782,1.295-2.527,3.589-1.847,5.684l9.267,28.521
						c1.522,4.684-3.839,8.578-7.823,5.684l-24.261-17.627c-1.782-1.294-4.194-1.294-5.976,0l-24.261,17.627
						c-3.984,2.895-9.345-1-7.823-5.684l9.267-28.521c0.681-2.095-0.065-4.389-1.847-5.684l-24.261-17.627
						c-3.984-2.895-1.937-9.196,2.988-9.196h29.989c2.202,0,4.154-1.418,4.835-3.513l9.267-28.521
						C727.68,157.405,734.306,157.405,735.827,162.089z"/>
				</g>
				<g>
					<path style="fill:#271B0F;" d="M700.755,263.329c-1.348,0-2.694-0.427-3.87-1.281c-2.351-1.708-3.29-4.597-2.392-7.36
						l9.267-28.521c0.481-1.481-0.042-3.092-1.302-4.007l-24.262-17.627c-2.351-1.708-3.289-4.597-2.391-7.36
						c0.897-2.764,3.355-4.549,6.261-4.549h29.989c1.558,0,2.927-0.995,3.408-2.476l9.267-28.521
						c0.898-2.764,3.356-4.549,6.262-4.549s5.363,1.785,6.262,4.549l0,0l9.267,28.521c0.481,1.48,1.851,2.476,3.408,2.476h29.989
						c2.906,0,5.364,1.786,6.261,4.549c0.898,2.763-0.041,5.652-2.391,7.36l-24.262,17.627c-1.26,0.916-1.783,2.526-1.302,4.007
						l9.267,28.521c0.898,2.763-0.041,5.652-2.392,7.36c-2.35,1.708-5.389,1.708-7.74,0l-24.262-17.627
						c-1.26-0.917-2.953-0.916-4.212,0l-24.261,17.627C703.45,262.901,702.102,263.329,700.755,263.329z M682.067,195.622
						c-1.92,0-3.02,1.279-3.408,2.476c-0.389,1.197-0.251,2.878,1.302,4.007l24.262,17.627c2.314,1.682,3.275,4.64,2.392,7.361
						l-9.267,28.521c-0.593,1.826,0.283,3.267,1.301,4.007c1.018,0.739,2.66,1.127,4.213,0l24.261-17.627
						c2.314-1.683,5.425-1.683,7.74,0l24.262,17.627c1.551,1.126,3.194,0.739,4.213,0c1.018-0.74,1.895-2.181,1.301-4.007
						l-9.267-28.521c-0.884-2.721,0.077-5.679,2.392-7.361l24.262-17.627c1.553-1.128,1.691-2.81,1.302-4.007
						c-0.389-1.197-1.488-2.476-3.408-2.476h-29.989c-2.861,0-5.377-1.828-6.262-4.548l-9.267-28.521
						c-0.593-1.826-2.149-2.476-3.408-2.476s-2.815,0.65-3.408,2.476l-9.267,28.521c-0.884,2.721-3.4,4.549-6.261,4.549H682.067z"/>
				</g>
				<g>
					<path style="fill:#F9C467;" d="M870.331,162.089l9.267,28.521c0.681,2.095,2.632,3.513,4.835,3.513h29.989
						c4.925,0,6.972,6.302,2.988,9.196l-24.261,17.627c-1.782,1.295-2.527,3.589-1.847,5.684l9.267,28.521
						c1.522,4.684-3.839,8.578-7.823,5.684l-24.261-17.627c-1.782-1.294-4.194-1.294-5.976,0l-24.261,17.627
						c-3.984,2.895-9.345-1-7.823-5.684l9.267-28.521c0.681-2.095-0.065-4.389-1.847-5.684l-24.261-17.627
						c-3.984-2.895-1.937-9.196,2.988-9.196h29.989c2.202,0,4.154-1.418,4.835-3.513l9.267-28.521
						C862.183,157.405,868.809,157.405,870.331,162.089z"/>
				</g>
				<g>
					<path style="fill:#271B0F;" d="M895.734,263.329c-1.347,0-2.694-0.427-3.87-1.281l-24.261-17.627
						c-1.259-0.915-2.952-0.917-4.212,0l-24.261,17.627c-2.35,1.708-5.389,1.708-7.74,0c-2.351-1.708-3.29-4.597-2.392-7.36
						l9.267-28.521c0.481-1.481-0.042-3.092-1.302-4.007l-24.261-17.627c-2.351-1.708-3.29-4.597-2.392-7.36
						s3.355-4.549,6.261-4.549h29.989c1.557,0,2.927-0.995,3.408-2.476l9.267-28.521c0.898-2.764,3.356-4.549,6.262-4.549
						c0,0,0,0,0,0c2.905,0,5.363,1.786,6.261,4.549l9.267,28.521c0.481,1.48,1.851,2.476,3.408,2.476h29.989
						c2.906,0,5.363,1.786,6.261,4.549s-0.041,5.653-2.392,7.36l-24.261,17.627c-1.26,0.916-1.783,2.526-1.302,4.007l9.267,28.521
						c0.897,2.764-0.041,5.653-2.392,7.36C898.428,262.901,897.081,263.329,895.734,263.329z M865.496,240.732
						c1.356,0,2.713,0.42,3.87,1.262l24.261,17.627c1.552,1.127,3.194,0.739,4.213,0c1.018-0.74,1.895-2.181,1.302-4.007
						l-9.267-28.521c-0.884-2.721,0.077-5.679,2.392-7.361l24.261-17.627c1.553-1.128,1.691-2.81,1.302-4.007
						c-0.389-1.197-1.489-2.476-3.408-2.476h-29.989c-2.861,0-5.377-1.828-6.262-4.548l-9.267-28.522l0,0
						c-0.593-1.825-2.149-2.476-3.408-2.476s-2.815,0.65-3.408,2.476l-9.267,28.521c-0.884,2.721-3.401,4.549-6.262,4.549h-29.989
						c-1.919,0-3.019,1.279-3.408,2.476c-0.389,1.197-0.251,2.878,1.302,4.007l24.261,17.627c2.314,1.682,3.275,4.64,2.392,7.361
						l-9.267,28.521c-0.593,1.826,0.284,3.267,1.302,4.007c1.018,0.739,2.66,1.127,4.213,0l24.261-17.627
						C862.784,241.152,864.14,240.732,865.496,240.732z"/>
				</g>
				<g>
					<path style="fill:#F9C467;" d="M1004.835,162.089l9.267,28.521c0.681,2.095,2.632,3.513,4.835,3.513h29.989
						c4.925,0,6.972,6.302,2.988,9.196l-24.261,17.627c-1.782,1.295-2.527,3.589-1.847,5.684l9.267,28.521
						c1.522,4.684-3.839,8.578-7.823,5.684l-24.261-17.627c-1.782-1.294-4.194-1.294-5.976,0l-24.261,17.627
						c-3.984,2.895-9.345-1-7.823-5.684l9.267-28.521c0.681-2.095-0.065-4.389-1.847-5.684l-24.261-17.627
						c-3.984-2.895-1.937-9.196,2.988-9.196h29.989c2.202,0,4.154-1.418,4.835-3.513l9.267-28.521
						C996.687,157.405,1003.313,157.405,1004.835,162.089z"/>
				</g>
				<g>
					<path style="fill:#271B0F;" d="M969.763,263.329c-1.348,0-2.694-0.427-3.87-1.281c-2.351-1.708-3.29-4.597-2.392-7.36
						l9.267-28.521c0.481-1.481-0.042-3.092-1.302-4.007l-24.262-17.627c-2.351-1.708-3.289-4.597-2.391-7.36
						c0.897-2.764,3.355-4.549,6.261-4.549h29.989c1.557,0,2.927-0.995,3.408-2.476l9.267-28.521
						c0.898-2.764,3.356-4.549,6.262-4.549s5.363,1.785,6.262,4.549l0,0l9.267,28.521c0.481,1.481,1.85,2.476,3.408,2.476h29.989
						c2.906,0,5.364,1.786,6.261,4.549c0.898,2.763-0.041,5.652-2.391,7.36l-24.262,17.627c-1.26,0.916-1.783,2.526-1.302,4.007
						l9.267,28.521c0.898,2.763-0.041,5.652-2.392,7.36c-2.35,1.708-5.389,1.708-7.74,0l-24.261-17.627
						c-1.259-0.915-2.952-0.917-4.212,0l-24.262,17.627C972.457,262.901,971.109,263.329,969.763,263.329z M951.075,195.622
						c-1.92,0-3.02,1.279-3.408,2.476c-0.389,1.197-0.251,2.878,1.302,4.007l24.262,17.627c2.314,1.682,3.275,4.64,2.392,7.361
						l-9.267,28.521c-0.593,1.826,0.283,3.267,1.301,4.007c1.019,0.739,2.66,1.127,4.213,0l24.262-17.627
						c2.315-1.683,5.426-1.683,7.74,0l24.261,17.627c1.552,1.126,3.194,0.739,4.213,0c1.018-0.74,1.895-2.181,1.301-4.007
						l-9.267-28.521c-0.883-2.721,0.078-5.679,2.392-7.361l24.262-17.627c1.553-1.128,1.691-2.81,1.302-4.007
						c-0.389-1.197-1.488-2.476-3.408-2.476h-29.989c-2.861,0-5.377-1.828-6.261-4.549l-9.267-28.521v0
						c-0.593-1.826-2.149-2.476-3.408-2.476s-2.815,0.65-3.408,2.476l-9.267,28.521c-0.884,2.721-3.401,4.549-6.262,4.549H951.075z"
						/>
				</g>
				<g>
					<path style="fill:#F9C467;" d="M1139.339,162.089l9.267,28.521c0.681,2.095,2.632,3.513,4.835,3.513h29.989
						c4.925,0,6.972,6.302,2.988,9.196l-24.261,17.627c-1.782,1.295-2.527,3.589-1.847,5.684l9.267,28.521
						c1.522,4.684-3.839,8.578-7.823,5.684l-24.261-17.627c-1.782-1.294-4.194-1.294-5.976,0l-24.261,17.627
						c-3.984,2.895-9.345-1-7.823-5.684l9.267-28.521c0.681-2.095-0.065-4.389-1.847-5.684l-24.261-17.627
						c-3.984-2.895-1.937-9.196,2.988-9.196h29.989c2.202,0,4.154-1.418,4.835-3.513l9.267-28.521
						C1131.191,157.405,1137.817,157.405,1139.339,162.089z"/>
				</g>
				<g>
					<path style="fill:#271B0F;" d="M1104.266,263.329c-1.347,0-2.694-0.427-3.87-1.281c-2.35-1.708-3.289-4.597-2.391-7.36
						l9.267-28.521c0.481-1.481-0.042-3.092-1.302-4.007l-24.261-17.627c-2.351-1.708-3.289-4.597-2.391-7.36
						c0.897-2.764,3.355-4.549,6.261-4.549h29.989c1.557,0,2.927-0.995,3.408-2.476l9.267-28.521
						c0.898-2.764,3.356-4.549,6.262-4.549c0,0,0,0,0,0c2.905,0,5.363,1.786,6.261,4.549l9.267,28.521
						c0.481,1.48,1.851,2.476,3.408,2.476h29.989c2.906,0,5.363,1.786,6.261,4.549s-0.041,5.653-2.392,7.36l-24.261,17.627
						c-1.26,0.916-1.783,2.526-1.302,4.007l9.267,28.521c0.897,2.764-0.042,5.653-2.392,7.361c-2.35,1.708-5.387,1.708-7.739,0
						l-24.262-17.627c-1.259-0.915-2.952-0.917-4.212,0l-24.261,17.627C1106.96,262.901,1105.613,263.328,1104.266,263.329z
						 M1085.579,195.622c-1.92,0-3.02,1.279-3.408,2.476c-0.389,1.197-0.251,2.878,1.302,4.007l24.261,17.627
						c2.314,1.682,3.275,4.64,2.392,7.361l-9.267,28.521c-0.593,1.826,0.283,3.267,1.301,4.007c1.019,0.74,2.66,1.129,4.213,0
						l24.261-17.627c2.314-1.683,5.425-1.683,7.74,0l24.262,17.627c1.551,1.127,3.193,0.739,4.212,0
						c1.018-0.74,1.895-2.181,1.302-4.007l-9.267-28.521c-0.884-2.721,0.077-5.679,2.392-7.361l24.261-17.627
						c1.553-1.128,1.691-2.81,1.302-4.007c-0.389-1.197-1.489-2.476-3.408-2.476h-29.989c-2.861,0-5.377-1.828-6.262-4.548
						l-9.267-28.522l0,0c-0.593-1.825-2.149-2.476-3.408-2.476s-2.815,0.65-3.408,2.476l-9.267,28.521
						c-0.884,2.721-3.4,4.549-6.261,4.549H1085.579z"/>
				</g>
				<g>
					<path style="fill:#F9C467;" d="M1273.842,162.089l9.267,28.521c0.681,2.095,2.632,3.513,4.835,3.513h29.989
						c4.925,0,6.972,6.302,2.988,9.196l-24.261,17.627c-1.782,1.295-2.527,3.589-1.847,5.684l9.267,28.521
						c1.522,4.684-3.839,8.578-7.823,5.684l-24.261-17.627c-1.782-1.294-4.194-1.294-5.976,0l-24.261,17.627
						c-3.984,2.895-9.345-1-7.823-5.684l9.267-28.521c0.681-2.095-0.065-4.389-1.847-5.684l-24.261-17.627
						c-3.984-2.895-1.937-9.196,2.988-9.196h29.989c2.202,0,4.154-1.418,4.835-3.513l9.267-28.521
						C1265.694,157.405,1272.32,157.405,1273.842,162.089z"/>
				</g>
				<g>
					<path style="fill:#271B0F;" d="M1299.245,263.329c-1.347,0-2.694-0.427-3.87-1.281l-24.261-17.627
						c-1.259-0.915-2.952-0.917-4.212,0l-24.262,17.627c-2.351,1.708-5.389,1.708-7.739,0c-2.351-1.708-3.29-4.597-2.392-7.361
						l9.267-28.521c0.481-1.481-0.042-3.092-1.302-4.007l-24.261-17.627c-2.351-1.708-3.29-4.597-2.392-7.36
						s3.355-4.549,6.261-4.549h29.989c1.557,0,2.927-0.995,3.408-2.476l9.267-28.521c0.898-2.763,3.355-4.549,6.261-4.549
						c2.906,0,5.364,1.785,6.262,4.549l0,0l9.267,28.521c0.481,1.48,1.851,2.476,3.408,2.476h29.989
						c2.906,0,5.364,1.786,6.261,4.549c0.898,2.763-0.041,5.652-2.391,7.36l-24.261,17.627c-1.26,0.916-1.783,2.526-1.302,4.007
						l9.267,28.521c0.898,2.763-0.041,5.652-2.391,7.36C1301.939,262.901,1300.592,263.329,1299.245,263.329z M1269.007,240.732
						c1.356,0,2.713,0.42,3.87,1.262l24.261,17.627c1.554,1.127,3.195,0.739,4.213,0c1.018-0.74,1.895-2.181,1.301-4.007
						l-9.267-28.521c-0.883-2.721,0.078-5.679,2.392-7.361l24.261-17.627c1.553-1.128,1.691-2.81,1.302-4.007
						c-0.389-1.197-1.488-2.476-3.408-2.476h-29.989c-2.861,0-5.377-1.828-6.261-4.548l-9.267-28.522v0
						c-0.593-1.826-2.149-2.476-3.408-2.476s-2.815,0.65-3.408,2.476l-9.267,28.521c-0.884,2.721-3.401,4.549-6.262,4.549h-29.989
						c-1.919,0-3.019,1.279-3.408,2.476c-0.389,1.197-0.251,2.878,1.302,4.007l24.261,17.627c2.314,1.682,3.275,4.64,2.392,7.361
						l-9.267,28.521c-0.593,1.826,0.284,3.267,1.302,4.007c1.019,0.739,2.659,1.127,4.212,0l24.262-17.627
						C1266.295,241.152,1267.651,240.732,1269.007,240.732z"/>
				</g>
			</g>
			<g>
				<path style="fill:#271B0F;" d="M179.895,951.467c-0.093,0-0.188-0.009-0.283-0.026c-0.814-0.155-1.348-0.941-1.192-1.755
					c0.178-0.934,18.424-94.134,70.492-160.296c14.967-19.019,36.549-31.518,60.396-35.282c12.94-22.948,38.721-42.026,76.825-56.81
					c0.772-0.303,1.641,0.083,1.941,0.856s-0.083,1.641-0.856,1.941c-36.321,14.092-61.187,32.048-74.133,53.491
					c2.445-0.288,4.912-0.485,7.395-0.59c7.536-0.305,14.121,4.03,16.804,11.067c2.683,7.037,0.653,14.669-5.17,19.444
					c-6.349,5.204-14.758,5.437-21.423,0.589c-6.595-4.797-8.94-12.782-5.975-20.344c0.835-2.13,1.772-4.229,2.811-6.299
					c-22.208,4.06-42.231,15.97-56.256,33.791c-51.606,65.575-69.725,158.076-69.902,159.003
					C181.229,950.967,180.601,951.467,179.895,951.467z M311.218,756.854c-1.41,2.616-2.646,5.28-3.711,7.995
					c-2.979,7.594,0.803,13.808,4.947,16.822c4.196,3.052,11.364,4.757,17.756-0.482c5.837-4.786,6.033-11.433,4.269-16.057
					c-1.763-4.625-6.335-9.45-13.875-9.138C317.445,756.126,314.312,756.414,311.218,756.854z"/>
			</g>
			<g>
				<path style="fill:#271B0F;" d="M1713.256,1251.053c-0.533,0-1.05-0.285-1.32-0.787c-0.394-0.729-0.122-1.639,0.606-2.033
					c0.565-0.305,52.686-28.974,48.736-68.794c-3.992,1.395-8.445,1.857-13.303,1.047c-3.865-0.646-6.922-3.391-7.978-7.165
					c-1.055-3.773,0.135-7.705,3.104-10.261c3.612-3.11,7.658-4.318,11.104-3.312c2.579,0.754,6.102,3.139,8.229,10.226
					c0.51,1.698,0.925,3.404,1.244,5.113c7.853-4.216,13.308-12.619,15.64-21.11c9.565-34.825,3.445-96.846-26.761-148
					c-0.421-0.713-0.184-1.633,0.529-2.055c0.712-0.417,1.633-0.184,2.055,0.529c14.527,24.604,24.533,53.057,28.936,82.28
					c3.786,25.138,3.106,49.937-1.866,68.04c-2.625,9.558-8.932,19.007-18.053,23.464c1.982,16.758-5.096,33.888-20.783,50.017
					c-13.663,14.047-29.254,22.538-29.41,22.622C1713.741,1250.995,1713.497,1251.053,1713.256,1251.053z M1751.725,1162.399
					c-2.093,0-4.44,1.019-6.665,2.934c-2.109,1.815-2.921,4.499-2.172,7.18s2.836,4.556,5.582,5.014
					c4.542,0.758,8.692,0.255,12.396-1.153c-0.311-1.823-0.741-3.672-1.302-5.537c-1.378-4.589-3.521-7.428-6.198-8.209
					C1752.843,1162.475,1752.293,1162.399,1751.725,1162.399z"/>
			</g>
			<g>
				<path style="fill:#271B0F;" d="M1483.845,562.217c-0.607,0-1.179-0.372-1.405-0.975c-0.086-0.228-9.222-23.351-50.629-47.241
					c-42.773-24.678-42.101-57.142-42.051-58.511c0.03-0.828,0.736-1.477,1.553-1.445c0.827,0.03,1.474,0.724,1.445,1.551l0,0
					c-0.01,0.318-0.566,32.083,40.552,55.807c42.46,24.498,51.572,47.807,51.939,48.788c0.291,0.775-0.103,1.64-0.879,1.931
					C1484.197,562.186,1484.02,562.217,1483.845,562.217z"/>
			</g>
			<g>
				<path style="fill:#271B0F;" d="M1551.639,644.816c-0.443,0-0.881-0.195-1.177-0.569c-13.336-16.848-17.966-27.778-21.768-93.002
					c-1.948-33.431-19.324-57.279-33.558-71.399c-15.485-15.361-30.722-22.878-30.874-22.952c-0.745-0.363-1.054-1.261-0.691-2.005
					c0.362-0.745,1.26-1.055,2.004-0.692c0.636,0.31,15.766,7.763,31.6,23.446c14.638,14.499,32.508,39.007,34.514,73.428
					c3.869,66.385,8.45,75.302,21.125,91.315c0.514,0.65,0.404,1.593-0.245,2.107
					C1552.293,644.71,1551.965,644.816,1551.639,644.816z"/>
			</g>
			<g>
				<path style="fill:#271B0F;" d="M1580.65,797.73c-0.687,0-1.307-0.476-1.463-1.174c-0.07-0.314-7.337-31.743-36.393-61.184
					c-22.582-22.88-21.693-53.927-21.645-55.237c0.031-0.828,0.718-1.487,1.554-1.443c0.828,0.03,1.474,0.726,1.444,1.554
					c-0.011,0.308-0.865,31.085,20.781,53.019c29.694,30.087,37.115,62.317,37.187,62.64c0.18,0.809-0.33,1.609-1.139,1.789
					C1580.867,797.719,1580.758,797.73,1580.65,797.73z"/>
			</g>
			<g>
				<path style="fill:#271B0F;" d="M1642.532,827.224c-0.373,0-0.746-0.138-1.037-0.416c-1.459-1.396-35.708-34.616-33.653-72.654
					c1.978-36.579-15.681-54.207-15.86-54.38c-0.593-0.577-0.607-1.526-0.031-2.12c0.576-0.594,1.524-0.61,2.118-0.035
					c0.77,0.744,18.825,18.664,16.769,56.697c-1.982,36.675,32.383,69.992,32.73,70.324c0.599,0.572,0.62,1.522,0.047,2.121
					C1643.321,827.068,1642.927,827.224,1642.532,827.224z"/>
			</g>
			<g>
				<path style="fill:#271B0F;" d="M593.196,486.715c-0.382,0-0.764-0.145-1.056-0.435c-0.588-0.583-0.592-1.532-0.01-2.121
					c0.153-0.154,15.224-15.651,12.042-35.56c-0.13-0.818,0.427-1.587,1.245-1.718c0.816-0.133,1.587,0.426,1.718,1.244
					c3.427,21.442-12.208,37.475-12.875,38.146C593.967,486.567,593.582,486.715,593.196,486.715z"/>
			</g>
			<g>
				<path style="fill:#271B0F;" d="M517.88,499.553c-0.508,0-1.004-0.258-1.286-0.725c-0.118-0.195-11.996-19.575-28.13-21.956
					c-0.819-0.121-1.386-0.883-1.265-1.703c0.121-0.819,0.879-1.391,1.703-1.265c17.543,2.589,29.749,22.527,30.26,23.375
					c0.428,0.709,0.199,1.63-0.51,2.059C518.412,499.483,518.144,499.553,517.88,499.553z"/>
			</g>
			<g>
				<path style="fill:#271B0F;" d="M623.153,423.819c-0.042,0-0.085-0.001-0.128-0.005c-0.825-0.07-1.438-0.796-1.368-1.622
					c1.416-16.693,10.324-25.812,10.703-26.191c0.584-0.587,1.535-0.589,2.121-0.004c0.586,0.584,0.589,1.533,0.005,2.12
					c-0.133,0.136-8.524,8.825-9.839,24.329C624.58,423.229,623.924,423.819,623.153,423.819z"/>
			</g>
		</g>
	</g>
</g>
</svg>
