<svg xmlns="http://www.w3.org/2000/svg" width="64" height="59" viewBox="0 0 64 59" fill="none"><path d="M62.372 36.263C61.897 35.744 61.2803 35.3757 60.5981 35.2034C59.9159 35.0312 59.1982 35.0626 58.5337 35.2938C56.765 33.7841 54.0395 33.1338 51.5028 33.775C49.8958 31.3277 45.9591 30.2534 42.9905 31.2825C41.95 29.7603 40.127 28.7119 38.0439 28.4281C38.123 26.596 38.5336 24.3104 39.7063 21.8247C41.682 23.1399 44.0309 23.8094 46.4409 23.8207C50.2046 23.8207 54.0044 22.0746 56.1226 17.9355C58.9657 12.3793 59.1082 10.5291 59.2349 8.89835C59.3435 7.50506 59.4362 6.30177 61.5567 2.3368C61.9118 1.71027 61.5205 0.83947 60.808 0.700368C60.0446 0.530731 42.0688 -3.36413 36.3814 9.21048C34.2689 13.8811 35.436 17.8031 37.9534 20.3839C37.0464 22.1964 36.417 24.1349 36.0863 26.1346C34.9664 24.4988 33.7779 22.911 32.5239 21.3757C34.5935 19.1003 34.8999 15.806 33.3042 12.1486C28.793 1.80074 12.5158 3.77192 11.8259 3.859C10.9393 3.94948 10.5096 5.11771 11.1451 5.75441C12.7623 7.47905 12.9014 9.53618 13.062 11.9179C13.2826 15.1636 13.5314 18.8402 17.8458 21.8394C20.0861 23.3966 22.8037 24.1804 25.3856 24.1804C27.3522 24.1804 29.2329 23.7178 30.7721 22.8029C32.2731 24.6561 33.6824 26.5817 34.9949 28.5728C33.2646 28.989 31.7752 29.9503 30.8682 31.2655C27.7707 30.2081 23.679 31.4668 22.2055 34.1143C21.7678 34.2421 21.3453 34.4173 20.9456 34.6368L15.0671 38.0171H11.2627V36.7731C11.2627 35.5268 10.2483 34.5112 9.00093 34.5112H1.13091C0.830975 34.5112 0.543324 34.6304 0.331237 34.8425C0.11915 35.0546 0 35.3422 0 35.6421V54.3361C0 54.6361 0.11915 54.9237 0.331237 55.1358C0.543324 55.3479 0.830975 55.467 1.13091 55.467H9.00206C10.2483 55.467 11.2639 54.4526 11.2639 53.2052V52.1568H14.5469L35.6757 58.7682C36.1711 58.9231 36.6823 59 37.1912 59C38.2881 59 39.3772 58.6438 40.2786 57.9641L61.879 41.6201C63.5787 40.4123 63.8207 37.766 62.372 36.263ZM38.442 10.1424C41.3936 3.61812 48.5941 2.30061 53.9309 2.30061C55.9439 2.30061 57.6923 2.48834 58.847 2.65458C57.1913 5.99417 57.0884 7.32412 56.981 8.72419C56.8645 10.2125 56.7458 11.7528 54.1085 16.9052C51.2959 22.3121 44.9323 22.6129 40.7909 19.8433C42.5811 16.9663 45.4581 13.9286 50.0395 11.0991C51.2902 10.2984 50.1277 8.41545 48.8509 9.17542C44.135 12.0886 41.077 15.2654 39.1182 18.3302C37.5203 16.4144 36.8508 13.6595 38.442 10.1424ZM19.1373 19.9813C13.5427 16.1543 16.6052 10.882 14.0595 5.96137C18.297 5.79512 28.2298 6.1672 31.2324 13.0533C32.404 15.7415 32.3215 18.0372 31.0379 19.6443C29.4297 17.7851 23.0808 11.5639 21.8809 14.3787C21.785 14.6628 21.8059 14.9733 21.9388 15.242C22.0718 15.5106 22.306 15.7155 22.59 15.8116C24.7545 16.5422 27.1328 18.6626 29.2759 21.0523C26.469 22.4998 22.2077 22.1164 19.1362 19.9813H19.1373ZM30.892 33.7004C31.4518 33.9797 32.188 33.6992 32.4187 33.1168C32.9423 31.8728 34.2745 30.9771 35.8838 30.7023C36.0139 32.358 36.3249 33.3713 36.3362 33.4086C36.4294 33.6931 36.6316 33.9291 36.8985 34.0648C37.1654 34.2005 37.4752 34.2248 37.76 34.1324C39.2178 33.3724 38.2135 32.6362 38.114 30.7363C39.6554 31.0506 40.9447 31.9441 41.4343 33.1338C41.6617 33.7219 42.4069 34.008 42.9701 33.7219C43.7507 33.3474 44.606 33.1549 45.4717 33.1587C47.4859 33.1587 49.284 34.1369 49.9467 35.5924C50.0654 35.8534 50.2789 36.0595 50.5438 36.1691C50.8088 36.2787 51.1055 36.2836 51.3739 36.1827C53.1223 35.5257 55.0381 35.7428 56.4099 36.548L49.5973 41.075C49.5083 40.2257 49.1441 39.4287 48.5602 38.8056C47.9763 38.1825 47.2046 37.7674 46.3629 37.6235L25.4523 33.9797C26.9451 33.0263 29.2386 32.8748 30.892 33.7004ZM2.26182 53.2052V36.7719H9.00206V53.2041L2.26182 53.2052ZM60.5207 39.8118L38.9147 56.1591C38.1796 56.7133 37.2228 56.8829 36.3532 56.6092L15.0581 49.947C14.9486 49.9129 14.8346 49.8954 14.7199 49.895H11.2639V40.2789C11.7276 40.2201 15.6518 40.4316 15.9345 40.1285L22.0686 36.6023C22.8602 36.1521 23.7832 35.9895 24.681 36.142L45.9795 39.8537C47.9473 40.2156 47.7132 43.1616 45.69 43.1729H27.2177C25.7362 43.1966 25.7282 45.4098 27.2177 45.4347H32.3068L37.0464 49.4653C37.5527 49.8913 38.1825 50.1432 38.8428 50.1839C39.5032 50.2247 40.1592 50.052 40.714 49.6915L58.9544 37.5749C60.4235 36.6272 61.9061 38.785 60.5207 39.8141V39.8118ZM43.0346 45.4347L39.4711 47.8017C39.3272 47.8978 39.1558 47.9443 38.983 47.9338C38.8102 47.9234 38.6456 47.8568 38.5143 47.744L35.7979 45.4347H43.0346Z" fill="#EAA73F"></path></svg>