<svg xmlns="http://www.w3.org/2000/svg" width="62" height="73" viewBox="0 0 62 73" fill="none"><path d="M34.5111 42.8344C34.1734 43.4176 33.4214 43.6172 32.8381 43.2795C32.2549 42.9418 32.0554 42.1898 32.393 41.6065C32.9302 40.6856 32.6079 39.5038 31.6717 38.9359C30.1368 38.015 29.0164 39.1201 28.8476 40.4247C28.7401 41.1614 28.9857 41.9135 29.7071 42.3125L41.6174 48.897L43.8276 45.0752C41.5714 40.2405 39.2691 34.7612 34.6953 32.1212C27.8499 28.1614 19.0707 30.5097 15.1108 37.3704L15.0954 37.3857C11.1663 44.2311 13.4685 52.9336 20.3599 56.9549C24.5961 59.3953 29.922 58.9041 34.8795 58.4437L36.1687 58.3209L38.0412 55.0824L26.1923 48.4979C23.491 46.9938 22.2938 50.7541 24.3659 51.9513C25.2407 52.4578 26.3765 52.0127 26.8676 51.1532C27.2053 50.57 27.9574 50.3704 28.5406 50.7081C29.1238 51.0458 29.3234 51.7978 28.9857 52.3811C27.7732 54.4838 24.9798 55.3126 22.9231 53.9466C19.9916 52.0127 20.3599 47.9761 22.7696 46.3492C23.9668 45.551 25.5784 45.3669 27.3588 46.3492L39.2537 52.949L40.3742 50.9997L28.5099 44.4306C25.5477 42.7883 25.87 38.7517 28.1415 36.956C29.3387 36.0351 30.9656 35.7281 32.7921 36.7564C34.9409 37.9229 35.7543 40.6856 34.5111 42.8344ZM45.4698 42.8651C47.0047 41.8674 49.4451 42.4353 51.0413 43.433C51.7934 43.9088 52.2845 44.2618 52.8677 44.8757H57.9787C58.7615 44.8757 59.5443 44.3692 59.5443 43.6325V24.2015H24.811V27.9772C28.4946 27.3786 32.4084 27.9925 35.9078 30.0032C40.7579 32.8119 43.229 38.0304 45.4698 42.8651ZM54.157 47.3161C54.2951 48.3291 53.9575 48.897 53.4817 49.7258L56.1676 52.949C57.5336 54.5912 58.4085 56.6786 57.3495 58.5358L54.5407 63.3858C53.4817 65.2276 51.2255 65.5192 49.1227 65.1509L44.9787 64.4449L44.7024 64.9207C43.3825 67.2229 40.2974 66.6397 38.2254 65.4272C36.5831 64.4756 34.8948 62.7565 35.0176 60.884C29.6917 61.3752 23.9975 61.8817 19.1014 59.0729C11.0588 54.4531 8.31148 44.0623 12.962 36.1425C15.1261 32.3975 18.5181 29.7883 22.3399 28.5604V17.3408L20.8818 11.9075C20.7129 11.2475 21.0967 10.5875 21.7566 10.4033L57.6718 0.779915C58.3317 0.595734 58.9917 0.994791 59.1759 1.63942L60.68 7.22622C60.8642 7.8862 60.4652 8.54618 59.8205 8.73036L32.8995 15.9441H60.7721C61.4475 15.9441 62 16.4966 62 17.1719V43.6018C62 45.7199 60.0968 47.3008 57.9787 47.3008H54.157V47.3161ZM46.621 45.1213L37.5654 60.8073C37.1203 61.5901 38.6398 62.8486 39.4686 63.3244C39.883 63.5547 40.3281 63.7542 40.7579 63.877C41.5867 64.1225 42.3388 64.1226 42.5997 63.6928L50.9492 49.2346L51.6552 48.0068C52.131 47.1933 50.412 45.8427 49.8288 45.5204C49.3376 45.2441 49 45.0752 48.4781 44.9218C47.6339 44.6915 46.8665 44.6762 46.621 45.1213ZM0.928923 39.7801C0.268944 39.6266 -0.130112 38.9513 0.0387194 38.3066C0.192203 37.6466 0.86753 37.2476 1.52751 37.4164L7.11431 38.7824C7.77429 38.9513 8.17334 39.6112 8.00451 40.2712C7.85103 40.9312 7.1757 41.3302 6.51572 41.1614L0.928923 39.7801ZM22.0636 71.3363C21.9101 71.9963 21.2348 72.3953 20.5748 72.2265C19.9148 72.0576 19.5158 71.3977 19.6846 70.753L21.066 65.1662C21.2194 64.5063 21.8948 64.1072 22.5547 64.2607C23.2147 64.4295 23.6138 65.0895 23.445 65.7495L22.0636 71.3363ZM4.95019 59.9324C4.36695 60.2855 3.61488 60.0859 3.27722 59.518C2.92421 58.9348 3.10839 58.1827 3.69163 57.8297L8.61845 54.8521C9.20168 54.4991 9.95375 54.6833 10.3068 55.2666C10.6598 55.8498 10.4602 56.6019 9.89236 56.9549L4.95019 59.9324ZM12.3327 22.682C11.9797 22.0988 12.1639 21.3467 12.7472 20.9937C13.3304 20.6407 14.0825 20.8402 14.4355 21.4081L17.413 26.3349C17.7661 26.9181 17.5665 27.6702 16.9986 28.0232C16.4154 28.3762 15.6633 28.1767 15.3103 27.6088L12.3327 22.682ZM46.2833 62.1887L49.5218 62.7412C50.5194 62.91 51.9468 62.9561 52.4226 62.158L55.2314 57.3079C55.6765 56.5251 54.9244 55.2819 54.2798 54.5145L52.1771 51.9974L46.2833 62.1887ZM49.1074 21.7458C49.2762 21.5462 52.8217 18.8142 53.3282 18.4152H47.4651L43.2136 21.7458H49.1074ZM57.2881 18.4152L57.2267 18.4766L53.0366 21.7458H59.5443V18.4152H57.2881ZM39.2691 21.7458C39.4533 21.5462 42.9834 18.8142 43.5052 18.4152H37.6422L33.3907 21.7458H39.2691ZM29.4462 21.7458C29.615 21.5462 33.1605 18.8142 33.6823 18.4152H24.8263V21.7458H29.4462ZM47.5265 6.07509C47.5112 6.07509 47.4958 6.05975 47.4805 6.05975L41.7709 7.59458L46.6363 9.74335L52.3459 8.20851L47.5265 6.07509ZM51.2715 5.04676L56.1369 7.19552L57.9941 6.68903L57.1346 3.46588L51.2715 5.04676ZM38.0412 8.62292C38.0259 8.62292 38.0105 8.60757 37.9952 8.60757L32.2856 10.1424L37.151 12.2912L42.8606 10.7563L38.0412 8.62292ZM28.5406 11.1707C28.5253 11.1554 28.5099 11.1554 28.4946 11.1554L23.5831 12.4754L24.4426 15.6985L33.3753 13.3042L28.5406 11.1707Z" fill="#EAA73F"></path></svg>