<svg xmlns="http://www.w3.org/2000/svg" width="91" height="94" viewBox="0 0 91 94" fill="none"><path d="M31.3333 55.4068V65.8001C31.3333 66.2156 31.4983 66.6141 31.7921 66.9079C32.0859 67.2017 32.4844 67.3667 32.8999 67.3667C33.3154 67.3667 33.7139 67.2017 34.0077 66.9079C34.3015 66.6141 34.4666 66.2156 34.4666 65.8001V54.8334C34.4665 54.463 34.3355 54.1046 34.0969 53.8214L18.9786 35.9536C18.6537 35.5686 18.4869 35.0747 18.5119 34.5716C18.5369 34.0685 18.7518 33.5936 19.1132 33.2428C19.4746 32.8919 19.9556 32.6912 20.4593 32.6811C20.9629 32.671 21.4516 32.8523 21.8268 33.1884L34.9867 45.0324C35.274 45.2908 35.6468 45.4337 36.0333 45.4334H54.8332C55.2204 45.4336 55.5938 45.2901 55.8813 45.0308L69.0413 33.1884C69.4165 32.8523 69.9052 32.671 70.4088 32.6811C70.9124 32.6912 71.3934 32.8919 71.7549 33.2428C72.1163 33.5936 72.3312 34.0685 72.3561 34.5716C72.3811 35.0747 72.2143 35.5686 71.8895 35.9536L56.7712 53.8214C56.5319 54.1044 56.4004 54.4628 56.3999 54.8334V65.8001C56.3999 66.2156 56.5649 66.6141 56.8587 66.9079C57.1525 67.2017 57.551 67.3667 57.9665 67.3667C58.382 67.3667 58.7805 67.2017 59.0743 66.9079C59.3681 66.6141 59.5332 66.2156 59.5332 65.8001V55.4068L74.2818 37.9777C75.1216 36.9865 75.5535 35.7132 75.49 34.4156C75.4265 33.118 74.8724 31.893 73.9398 30.9885C73.0073 30.084 71.7659 29.5676 70.467 29.5438C69.1681 29.52 67.9086 29.9906 66.9435 30.8603L54.2332 42.3001H52.4206C53.6362 40.9495 54.4344 39.2756 54.7184 37.4808C55.0025 35.686 54.7602 33.8474 54.021 32.1874C53.2818 30.5274 52.0773 29.1173 50.5533 28.1277C49.0293 27.1381 47.2511 26.6114 45.434 26.6114C43.6169 26.6114 41.8387 27.1381 40.3147 28.1277C38.7907 29.1173 37.5862 30.5274 36.847 32.1874C36.1078 33.8474 35.8655 35.686 36.1496 37.4808C36.4336 39.2756 37.2318 40.9495 38.4475 42.3001H36.6349L23.9229 30.8603C22.9579 29.9906 21.6984 29.52 20.3995 29.5438C19.1006 29.5676 17.8592 30.084 16.9266 30.9885C15.9941 31.893 15.44 33.118 15.3765 34.4156C15.313 35.7132 15.7449 36.9865 16.5847 37.9777L31.3333 55.4068ZM39.1666 36.0335C39.1666 34.794 39.5341 33.5824 40.2227 32.5519C40.9113 31.5213 41.89 30.7181 43.0351 30.2438C44.1802 29.7695 45.4402 29.6454 46.6558 29.8872C47.8714 30.129 48.988 30.7259 49.8644 31.6023C50.7408 32.4787 51.3377 33.5953 51.5795 34.8109C51.8213 36.0265 51.6972 37.2865 51.2229 38.4316C50.7486 39.5767 49.9453 40.5554 48.9148 41.244C47.8843 41.9326 46.6727 42.3001 45.4332 42.3001C43.7717 42.2985 42.1787 41.6377 41.0039 40.4628C39.829 39.2879 39.1682 37.695 39.1666 36.0335ZM38.8078 15.6778L37.7801 21.6687C37.7309 21.9566 37.7632 22.2525 37.8733 22.523C37.9835 22.7936 38.167 23.0279 38.4032 23.1996C38.6395 23.3714 38.919 23.4736 39.2103 23.4949C39.5016 23.5162 39.7931 23.4556 40.0517 23.32L45.4332 20.4922L50.8147 23.32C51.0734 23.4556 51.3648 23.5162 51.6561 23.4949C51.9474 23.4736 52.227 23.3714 52.4632 23.1996C52.6995 23.0279 52.883 22.7936 52.9931 22.523C53.1032 22.2525 53.1355 21.9566 53.0864 21.6687L52.0571 15.6778L56.4108 11.4368C56.6203 11.2327 56.7685 10.974 56.8386 10.6901C56.9087 10.4061 56.8979 10.1082 56.8074 9.83005C56.7169 9.5519 56.5503 9.30465 56.3266 9.11626C56.1029 8.92788 55.8308 8.80589 55.5413 8.76412L49.5269 7.88992L46.8385 2.44106C46.6947 2.19641 46.4894 1.99358 46.2431 1.85266C45.9967 1.71173 45.7178 1.6376 45.434 1.6376C45.1502 1.6376 44.8713 1.71173 44.625 1.85266C44.3786 1.99358 44.1734 2.19641 44.0295 2.44106L41.3395 7.88992L35.3236 8.76412C35.0342 8.80614 34.7624 8.9283 34.5388 9.11678C34.3153 9.30526 34.1489 9.55254 34.0586 9.83064C33.9683 10.1087 33.9576 10.4066 34.0278 10.6904C34.098 10.9743 34.2462 11.2328 34.4556 11.4368L38.8078 15.6778ZM42.6038 10.8728C42.8553 10.8365 43.0941 10.7394 43.2996 10.5901C43.5051 10.4408 43.6712 10.2437 43.7835 10.0159L45.4332 6.67419L47.0829 10.0159C47.1953 10.2437 47.3614 10.4408 47.5669 10.5901C47.7724 10.7394 48.0112 10.8365 48.2626 10.8728L51.949 11.4086L49.281 14.0093C49.0994 14.1868 48.9636 14.4056 48.8853 14.6471C48.807 14.8886 48.7884 15.1456 48.8313 15.3958L49.4611 19.0696L46.1617 17.3353C45.937 17.2173 45.687 17.1557 45.4332 17.1557C45.1794 17.1557 44.9294 17.2173 44.7047 17.3353L41.4038 19.0696L42.0351 15.3958C42.078 15.1456 42.0595 14.8886 41.9812 14.6471C41.9029 14.4056 41.7671 14.1868 41.5855 14.0093L38.9159 11.4086L42.6038 10.8728ZM62.6665 10.9668H68.9332C69.3487 10.9668 69.7472 11.1319 70.041 11.4257C70.3348 11.7195 70.4998 12.118 70.4998 12.5335C70.4998 12.949 70.3348 13.3475 70.041 13.6413C69.7472 13.9351 69.3487 14.1002 68.9332 14.1002H62.6665C62.251 14.1002 61.8525 13.9351 61.5587 13.6413C61.2649 13.3475 61.0999 12.949 61.0999 12.5335C61.0999 12.118 61.2649 11.7195 61.5587 11.4257C61.8525 11.1319 62.251 10.9668 62.6665 10.9668ZM58.2297 5.56969C58.1155 5.39852 58.0362 5.20654 57.9962 5.00469C57.9562 4.80285 57.9563 4.5951 57.9966 4.39332C58.0369 4.19153 58.1166 3.99966 58.231 3.82866C58.3455 3.65767 58.4925 3.51089 58.6637 3.39673L63.3637 0.263401C63.7094 0.0327954 64.1325 -0.0510358 64.5401 0.0303485C64.9476 0.111733 65.3061 0.351666 65.5367 0.697366C65.7673 1.04307 65.8511 1.46622 65.7697 1.87372C65.6883 2.28123 65.4484 2.63972 65.1027 2.87033L60.4027 6.00365C60.2315 6.11786 60.0396 6.19724 59.8377 6.23724C59.6359 6.27724 59.4281 6.27709 59.2263 6.23679C59.0245 6.19649 58.8327 6.11683 58.6617 6.00237C58.4907 5.88791 58.3439 5.74088 58.2297 5.56969ZM58.6637 21.6703C58.4925 21.5561 58.3455 21.4093 58.2311 21.2383C58.1166 21.0673 58.037 20.8755 57.9967 20.6737C57.9564 20.4719 57.9562 20.2642 57.9962 20.0623C58.0362 19.8605 58.1156 19.6685 58.2297 19.4973C58.3439 19.3262 58.4907 19.1791 58.6617 19.0647C58.8327 18.9503 59.0246 18.8706 59.2263 18.8303C59.4281 18.79 59.6359 18.7899 59.8377 18.8298C60.0395 18.8698 60.2315 18.9492 60.4027 19.0634L65.1027 22.1967C65.4484 22.4273 65.6883 22.7858 65.7697 23.1933C65.8511 23.6008 65.7673 24.0239 65.5367 24.3696C65.3061 24.7153 64.9476 24.9553 64.5401 25.0367C64.1325 25.1181 63.7094 25.0342 63.3637 24.8036L58.6637 21.6703ZM20.3666 12.5335C20.3666 12.118 20.5317 11.7195 20.8255 11.4257C21.1193 11.1319 21.5178 10.9668 21.9333 10.9668H28.1999C28.6154 10.9668 29.0139 11.1319 29.3077 11.4257C29.6015 11.7195 29.7666 12.118 29.7666 12.5335C29.7666 12.949 29.6015 13.3475 29.3077 13.6413C29.0139 13.9351 28.6154 14.1002 28.1999 14.1002H21.9333C21.5178 14.1002 21.1193 13.9351 20.8255 13.6413C20.5317 13.3475 20.3666 12.949 20.3666 12.5335ZM24.1971 2.87033C23.8514 2.63972 23.6115 2.28123 23.5301 1.87372C23.4487 1.46622 23.5325 1.04307 23.7631 0.697366C23.9938 0.351666 24.3522 0.111733 24.7598 0.0303485C25.1673 -0.0510358 25.5904 0.0327954 25.9361 0.263401L30.6361 3.39673C30.8073 3.51091 30.9543 3.65769 31.0687 3.82869C31.1832 3.99969 31.2628 4.19155 31.3031 4.39333C31.3434 4.59511 31.3436 4.80285 31.3036 5.00469C31.2636 5.20653 31.1843 5.39852 31.0701 5.56969C30.9559 5.74086 30.8091 5.88787 30.6381 6.00232C30.4671 6.11676 30.2752 6.19641 30.0735 6.23671C29.8717 6.277 29.6639 6.27716 29.4621 6.23718C29.2603 6.19719 29.0683 6.11784 28.8971 6.00365L24.1971 2.87033ZM32.6367 19.4973C32.7509 19.6685 32.8303 19.8605 32.8703 20.0623C32.9103 20.2642 32.9102 20.4719 32.8699 20.6737C32.8296 20.8755 32.7499 21.0674 32.6354 21.2384C32.521 21.4093 32.374 21.5561 32.2028 21.6703L27.5028 24.8036C27.1571 25.0342 26.7339 25.1181 26.3264 25.0367C25.9189 24.9553 25.5604 24.7153 25.3298 24.3696C25.0992 24.0239 25.0154 23.6008 25.0968 23.1933C25.1781 22.7858 25.4181 22.4273 25.7638 22.1967L30.4638 19.0634C30.6349 18.9489 30.8269 18.8694 31.0287 18.8293C31.2306 18.7892 31.4384 18.7893 31.6403 18.8296C31.8421 18.8699 32.034 18.9496 32.205 19.0642C32.376 19.1788 32.5227 19.326 32.6367 19.4973ZM80.5876 72.1012C81.8124 70.7536 82.6194 69.0794 82.9106 67.2818C83.2018 65.4842 82.9646 63.6408 82.2279 61.9755C81.4911 60.3102 80.2865 58.8948 78.7604 57.9012C77.2344 56.9076 75.4526 56.3787 73.6316 56.3787C71.8106 56.3787 70.0288 56.9076 68.5028 57.9012C66.9767 58.8948 65.7721 60.3102 65.0354 61.9755C64.2986 63.6408 64.0614 65.4842 64.3526 67.2818C64.6438 69.0794 65.4508 70.7536 66.6756 72.1012C64.4827 72.246 62.3835 73.0446 60.6488 74.3939C58.9141 75.7433 57.6235 77.5814 56.9435 79.6713C55.539 78.9076 53.9835 78.4626 52.3877 78.3678C53.6129 77.0205 54.4204 75.3462 54.712 73.5485C55.0035 71.7508 54.7666 69.9071 54.03 68.2415C53.2933 66.5759 52.0887 65.1602 50.5626 64.1665C49.0364 63.1727 47.2544 62.6436 45.4332 62.6436C43.612 62.6436 41.8301 63.1727 40.3039 64.1665C38.7778 65.1602 37.5732 66.5759 36.8365 68.2415C36.0999 69.9071 35.8629 71.7508 36.1545 73.5485C36.446 75.3462 37.2535 77.0205 38.4788 78.3678C36.8829 78.4626 35.3275 78.9076 33.923 79.6713C33.2431 77.5809 31.9524 75.7422 30.2174 74.3926C28.4824 73.043 26.3827 72.2443 24.1893 72.0996C25.4139 70.7519 26.2208 69.0776 26.5118 67.28C26.8028 65.4824 26.5654 63.639 25.8284 61.9738C25.0915 60.3086 23.8867 58.8932 22.3605 57.8998C20.8344 56.9064 19.0525 56.3777 17.2315 56.3779C15.4105 56.3781 13.6288 56.9073 12.1029 57.901C10.5769 58.8947 9.37249 60.3103 8.63591 61.9757C7.89933 63.6411 7.66234 65.4845 7.95373 67.2821C8.24512 69.0796 9.05235 70.7538 10.2773 72.1012C7.49622 72.2775 4.88642 73.5054 2.97769 75.5358C1.06897 77.5661 0.00436712 80.2467 0 83.0334V86.1667C0 86.5822 0.165059 86.9807 0.458865 87.2745C0.752671 87.5683 1.15116 87.7333 1.56666 87.7333C1.98217 87.7333 2.38065 87.5683 2.67446 87.2745C2.96827 86.9807 3.13333 86.5822 3.13333 86.1667V83.0334C3.13581 80.9566 3.96191 78.9656 5.4304 77.4971C6.89889 76.0286 8.88988 75.2025 10.9666 75.2H23.4999C25.3561 75.2077 27.1492 75.8749 28.5588 77.0825C29.9685 78.2902 30.903 79.9595 31.1954 81.7926C29.273 83.8195 28.2009 86.5064 28.1999 89.3V92.4333C28.1999 92.8488 28.365 93.2473 28.6588 93.5411C28.9526 93.8349 29.3511 94 29.7666 94C30.1821 94 30.5806 93.8349 30.8744 93.5411C31.1682 93.2473 31.3333 92.8488 31.3333 92.4333V89.3C31.3358 87.2233 32.1618 85.2323 33.6303 83.7638C35.0988 82.2953 37.0898 81.4692 39.1666 81.4667H51.6999C53.7766 81.4692 55.7676 82.2953 57.2361 83.7638C58.7046 85.2323 59.5307 87.2233 59.5332 89.3V92.4333C59.5332 92.8488 59.6983 93.2473 59.9921 93.5411C60.2859 93.8349 60.6844 94 61.0999 94C61.5154 94 61.9139 93.8349 62.2077 93.5411C62.5015 93.2473 62.6665 92.8488 62.6665 92.4333V89.3C62.6656 86.5064 61.5935 83.8195 59.6711 81.7926C59.9635 79.9595 60.898 78.2902 62.3077 77.0825C63.7173 75.8749 65.5103 75.2077 67.3665 75.2H79.8998C81.9766 75.2025 83.9676 76.0286 85.4361 77.4971C86.9046 78.9656 87.7307 80.9566 87.7331 83.0334V86.1667C87.7331 86.5822 87.8982 86.9807 88.192 87.2745C88.4858 87.5683 88.8843 87.7333 89.2998 87.7333C89.7153 87.7333 90.1138 87.5683 90.4076 87.2745C90.7014 86.9807 90.8665 86.5822 90.8665 86.1667V83.0334C90.8621 80.2467 89.7975 77.5661 87.8888 75.5358C85.98 73.5054 83.3687 72.2775 80.5876 72.1012ZM17.2333 59.5334C18.4727 59.5334 19.6843 59.9009 20.7149 60.5895C21.7454 61.2781 22.5486 62.2568 23.0229 63.4019C23.4972 64.547 23.6213 65.807 23.3795 67.0226C23.1377 68.2382 22.5409 69.3548 21.6645 70.2313C20.7881 71.1077 19.6715 71.7045 18.4559 71.9463C17.2402 72.1881 15.9802 72.064 14.8352 71.5897C13.6901 71.1154 12.7114 70.3122 12.0228 69.2816C11.3342 68.2511 10.9666 67.0395 10.9666 65.8001C10.9683 64.1385 11.6291 62.5456 12.8039 61.3707C13.9788 60.1958 15.5718 59.5351 17.2333 59.5334ZM45.4332 65.8001C46.6727 65.8001 47.8843 66.1676 48.9148 66.8562C49.9453 67.5448 50.7486 68.5235 51.2229 69.6686C51.6972 70.8137 51.8213 72.0737 51.5795 73.2893C51.3377 74.5049 50.7408 75.6215 49.8644 76.4979C48.988 77.3743 47.8714 77.9712 46.6558 78.213C45.4402 78.4548 44.1802 78.3307 43.0351 77.8563C41.89 77.382 40.9113 76.5788 40.2227 75.5483C39.5341 74.5177 39.1666 73.3061 39.1666 72.0667C39.1682 70.4052 39.829 68.8122 41.0039 67.6374C42.1787 66.4625 43.7717 65.8017 45.4332 65.8001ZM73.6332 59.5334C74.8726 59.5334 76.0842 59.9009 77.1147 60.5895C78.1453 61.2781 78.9485 62.2568 79.4228 63.4019C79.8971 64.547 80.0212 65.807 79.7794 67.0226C79.5376 68.2382 78.9408 69.3548 78.0644 70.2313C77.188 71.1077 76.0714 71.7045 74.8557 71.9463C73.6401 72.1881 72.3801 72.064 71.235 71.5897C70.0899 71.1154 69.1112 70.3122 68.4226 69.2816C67.7341 68.2511 67.3665 67.0395 67.3665 65.8001C67.3682 64.1385 68.0289 62.5456 69.2038 61.3707C70.3787 60.1958 71.9717 59.5351 73.6332 59.5334Z" fill="#EAA73F"></path></svg>