<svg xmlns="http://www.w3.org/2000/svg" width="60" height="59" viewBox="0 0 60 59" fill="none"><path d="M43.4543 15.6346C44.3885 8.00541 38.9416 1.03849 31.3125 0.104401C23.6825 -0.830384 16.7163 4.61694 15.7821 12.2462C15.3782 15.5454 16.1574 18.8508 17.98 21.6121L15.982 26.5582C15.9131 26.729 15.8966 26.9164 15.9347 27.0965C15.9728 27.2766 16.0638 27.4413 16.196 27.5695C16.3282 27.6976 16.4957 27.7834 16.6769 27.8159C16.8581 27.8484 17.0449 27.8261 17.2134 27.7518L22.0236 25.632C23.7908 26.7801 25.8197 27.5189 27.9239 27.7766C28.4967 27.8467 29.0652 27.8809 29.6283 27.8808C36.5648 27.8806 42.5902 22.691 43.4543 15.6346ZM29.6269 26.0295C29.139 26.0295 28.6451 25.9999 28.1489 25.9392C26.1707 25.6969 24.2703 24.965 22.6527 23.8226C22.5222 23.7304 22.37 23.6736 22.2111 23.6576C22.0521 23.6417 21.8917 23.6672 21.7455 23.7317L18.5516 25.1392L19.8824 21.8446C19.9407 21.7003 19.9616 21.5436 19.9433 21.389C19.9249 21.2344 19.8679 21.087 19.7775 20.9603C18.0175 18.4948 17.251 15.4799 17.6194 12.4712C18.4297 5.85495 24.4741 1.13209 31.0875 1.94169C34.2925 2.33423 37.1528 3.95125 39.1415 6.49495C41.1303 9.03877 42.0094 12.2048 41.617 15.4098C40.8675 21.5295 35.6428 26.03 29.6269 26.0295ZM30.8755 13.9404C30.8755 14.6432 30.3057 15.213 29.6029 15.213C28.9001 15.213 28.3303 14.6432 28.3303 13.9404C28.3303 13.2375 28.9 12.6678 29.6029 12.6678C30.3059 12.6678 30.8755 13.2375 30.8755 13.9404ZM37.0763 13.9404C37.0763 14.6432 36.5066 15.213 35.8037 15.213C35.1009 15.213 34.5311 14.6432 34.5311 13.9404C34.5311 13.2375 35.1009 12.6678 35.8037 12.6678C36.5066 12.6678 37.0763 13.2375 37.0763 13.9404ZM24.7052 13.9404C24.7052 14.6432 24.1355 15.213 23.4326 15.213C22.7298 15.213 22.16 14.6432 22.16 13.9404C22.16 13.2375 22.7298 12.6678 23.4326 12.6678C24.1355 12.6678 24.7052 13.2375 24.7052 13.9404ZM22.5653 46.5411C21.2089 45.5255 19.7118 44.7716 18.1266 44.2916C20.2624 42.9128 21.6805 40.5134 21.6805 37.7874C21.6805 33.5205 18.2091 30.0492 13.9422 30.0492C9.67523 30.0492 6.20392 33.5205 6.20392 37.7874C6.20392 40.5132 7.62183 42.9127 9.75772 44.2915C8.1724 44.7715 6.67513 45.5253 5.31876 46.541C2.89781 48.3538 1.0744 50.9352 0.184273 53.8099C-0.197623 55.0428 0.0201075 56.3422 0.781355 57.375C1.54272 58.4078 2.71965 59 4.01041 59H23.8735C25.1643 59 26.3414 58.4077 27.1027 57.3748C27.864 56.342 28.0816 55.0426 27.6997 53.8097C26.8097 50.9353 24.9863 48.3539 22.5653 46.5411ZM8.05497 37.7876C8.05497 34.5414 10.696 31.9004 13.9422 31.9004C17.1884 31.9004 19.8294 34.5414 19.8294 37.7876C19.8294 41.0334 17.189 43.674 13.9434 43.6746H13.941C10.6954 43.6739 8.05497 41.0333 8.05497 37.7876ZM25.6128 56.2766C25.2041 56.8311 24.5701 57.1492 23.8737 57.1492H4.01041C3.31384 57.1492 2.68008 56.8311 2.27134 56.2767C1.86272 55.7224 1.74645 55.0228 1.95238 54.3574C3.58814 49.0753 8.40575 45.5261 13.9409 45.5257H13.9433C19.4783 45.5263 24.2959 49.0753 25.9317 54.3575C26.1377 55.0228 26.0215 55.7222 25.6128 56.2766ZM59.0521 53.8099C58.162 50.9353 56.3385 48.3538 53.9176 46.5411C52.5613 45.5255 51.0641 44.7716 49.4788 44.2916C51.6146 42.9128 53.0326 40.5134 53.0326 37.7874C53.0326 33.5205 49.5613 30.0492 45.2943 30.0492C41.0274 30.0492 37.5561 33.5205 37.5561 37.7874C37.5561 40.5132 38.974 42.9127 41.1099 44.2915C39.5246 44.7715 38.0273 45.5253 36.671 46.541C34.25 48.3538 32.4266 50.9352 31.5365 53.8099C31.1546 55.0428 31.3723 56.3422 32.1335 57.375C32.8949 58.4078 34.0718 59 35.3626 59H55.2257C56.5165 59 57.6934 58.4077 58.4547 57.3749C59.2163 56.3423 59.434 55.0429 59.0521 53.8099ZM39.4073 37.7876C39.4073 34.5414 42.0483 31.9004 45.2945 31.9004C48.5406 31.9004 51.1816 34.5414 51.1816 37.7876C51.1816 41.0334 48.5412 43.674 45.2957 43.6746H45.2933C42.0477 43.6739 39.4073 41.0333 39.4073 37.7876ZM56.965 56.2767C56.5563 56.8311 55.9224 57.1492 55.226 57.1492H35.3627C34.6661 57.1492 34.0324 56.8311 33.6236 56.2767C33.215 55.7224 33.0988 55.0228 33.3047 54.3574C34.9404 49.0753 39.7581 45.5261 45.2932 45.5257H45.2956C50.8305 45.5263 55.6481 49.0753 57.284 54.3574C57.4899 55.0228 57.3737 55.7224 56.965 56.2767Z" fill="#EAA73F"></path></svg>