<svg xmlns="http://www.w3.org/2000/svg" width="102" height="94" viewBox="0 0 102 94" fill="none"><path d="M9.5498 64.7281V29.289C9.5498 28.5937 10.1148 28.0287 10.8101 28.0287H25.8558C26.551 28.0287 27.116 28.5937 27.116 29.289V55.6436C27.116 56.3389 26.551 56.9039 25.8558 56.9039C25.1605 56.9039 24.5955 56.3389 24.5955 55.6436V30.5493H12.0704V64.7281C12.0704 65.4234 11.5053 65.9884 10.8101 65.9884C10.1148 65.9884 9.5498 65.4234 9.5498 64.7281ZM101.235 19.9881L98.8009 42.9484C98.7505 43.4315 98.425 43.841 97.9671 44.0028C97.5092 44.1645 96.9987 44.049 96.6564 43.7066L92.0605 39.1108L54.8276 76.3417C54.5913 76.5778 54.271 76.7108 53.937 76.7113H28.62L11.7007 93.6306C11.5838 93.7477 11.445 93.8406 11.2922 93.904C11.1393 93.9674 10.9755 94 10.8101 94C10.6446 94 10.4808 93.9674 10.328 93.904C10.1752 93.8406 10.0364 93.7477 9.91948 93.6306L0.368633 84.0798C-0.122878 83.5883 -0.122878 82.7901 0.368633 82.2965L21.6128 61.0523C21.8491 60.8161 22.1693 60.6832 22.5034 60.6826H47.8183L80.7243 27.7766L76.1285 23.1808C75.9601 23.0128 75.8429 22.8004 75.7904 22.5684C75.738 22.3364 75.7525 22.0942 75.8323 21.8701C75.9116 21.6458 76.0526 21.4486 76.2392 21.301C76.4258 21.1535 76.6502 21.0617 76.8867 21.0362L99.847 18.6018C100.225 18.5619 100.601 18.6942 100.872 18.9631C101.005 19.096 101.107 19.2571 101.17 19.4344C101.233 19.6118 101.255 19.801 101.235 19.9881ZM98.5636 21.2715L79.777 23.2648L83.3982 26.886C83.8897 27.3776 83.8897 28.1757 83.3982 28.6693L49.2319 62.8356C48.9956 63.0718 48.6754 63.2047 48.3413 63.2053H23.0264L3.04253 83.1892L10.8101 90.9567L27.2085 74.5584C27.4447 74.3222 27.765 74.1892 28.0991 74.1887H53.4139L91.1678 36.4348C91.4041 36.1988 91.7245 36.0662 92.0584 36.0662C92.3924 36.0662 92.7127 36.1988 92.949 36.4348L96.5703 40.056L98.5636 21.2715ZM33.4847 56.9039C34.1799 56.9039 34.745 56.3389 34.745 55.6436V16.5349H47.2701V52.8416C47.2701 53.5368 47.8351 54.1019 48.5304 54.1019C49.2256 54.1019 49.7906 53.5368 49.7906 52.8416V15.2746C49.7906 14.5794 49.2256 14.0143 48.5304 14.0143H33.4847C32.7894 14.0143 32.2244 14.5794 32.2244 15.2746V55.6436C32.2244 56.3389 32.7894 56.9039 33.4847 56.9039ZM56.1614 46.475C56.8566 46.475 57.4217 45.91 57.4217 45.2148V2.52057H69.9468V30.167C69.9468 30.8622 70.5118 31.4273 71.2071 31.4273C71.9023 31.4273 72.4673 30.8622 72.4673 30.167V1.26028C72.4673 0.565027 71.9023 0 71.2071 0H56.1614C55.4661 0 54.9011 0.565027 54.9011 1.26028V45.2148C54.9011 45.91 55.464 46.475 56.1614 46.475Z" fill="#EAA73F"></path></svg>