<svg xmlns="http://www.w3.org/2000/svg" width="62" height="65" viewBox="0 0 62 65" fill="none"><path d="M0.000128311 59.9586L0.821073 61.8066L30.2819 49.5908L35.4144 50.2069L37.2619 55.8526L34.7984 58.2138C33.8746 59.0349 33.5669 60.3691 34.0801 61.6012L35.1066 64.1674L52.1462 57.4951L51.2224 55.0315C50.8118 53.7996 49.6827 53.0813 48.3485 53.0813H44.9607L43.1132 48.6671L47.6298 46.409C49.0667 45.6904 49.6828 44.0478 49.1696 42.6109L43.3186 26.9055C42.7027 25.2631 40.9574 24.5443 39.3149 25.0576C39.3149 25.0576 39.2126 25.0576 39.2126 25.1602L34.9012 27.0079L34.2853 25.4682L36.6464 22.6969C38.2884 20.8488 39.3149 18.5908 39.6232 16.1272L42.6 12.5345C44.5503 10.2761 44.1397 6.88873 41.8811 4.93799C41.4707 4.63029 41.0602 4.32247 40.6497 4.11704C39.5205 3.60379 38.3912 3.50101 37.1596 3.80922L36.8514 2.88498C36.3382 1.24297 34.4907 0.421507 32.951 1.03754L11.2916 8.83895C9.64925 9.45498 8.82804 11.1998 9.44407 12.7395V12.8422L9.95733 14.1766C7.28842 15.4084 6.05636 18.4879 6.98008 21.1571C7.69889 23.2101 9.54634 24.6471 11.7021 24.9548L16.5269 25.468C18.4772 26.9055 20.8379 27.8294 23.1992 28.0343L26.5864 28.3426L27.2023 29.8824C26.4837 30.2928 25.9705 31.0115 25.7655 31.9354L25.0466 35.4254L0 45.5876L0.718808 47.5379L15.0898 41.7898L18.5799 52.2599L0.000128311 59.9586ZM49.1696 55.6476L49.3749 56.2631L36.2354 61.4984L35.9277 60.8825C35.825 60.4719 35.9277 60.0613 36.1331 59.7536L39.6232 56.4686L44.0369 55.0315H48.1429C48.6562 55.0315 48.9644 55.2366 49.1694 55.6476H49.1696ZM42.7026 53.1836L39.0072 54.4156L37.6729 50.5151C38.2884 50.6173 38.8016 50.5151 39.3149 50.2069L41.0602 49.3859L42.7026 53.1836ZM39.9311 26.7001C40.4443 26.4945 41.0602 26.7001 41.2656 27.2133L42.0867 29.369L37.0568 31.0115L37.6729 32.9619L42.7027 31.3193L43.9342 34.6043L39.11 36.2463L39.7259 38.197L44.653 36.5546L45.8849 39.8391L41.163 41.3788L41.7789 43.3295L46.6032 41.6871L47.1164 43.0213C47.322 43.5346 47.1164 44.0478 46.6032 44.2534L38.4938 48.2566C38.2885 48.3593 38.0835 48.3593 37.8779 48.3593L30.898 47.5378L27.0996 36.144L27.8185 32.3458C27.9211 32.038 28.1262 31.7298 28.4344 31.627L39.9311 26.7001ZM39.8281 5.96449C41.4707 6.6833 42.2921 8.63352 41.5735 10.3788C41.4708 10.6865 41.2656 10.8921 41.0602 11.1998L39.8281 12.7395C39.7259 11.713 39.5205 10.7892 39.2126 9.76267L37.8779 5.75957C38.5967 5.6568 39.2126 5.75957 39.8283 5.96449H39.8281ZM9.03309 20.6439C8.41757 18.8985 9.13587 17.0511 10.7784 16.2295L12.2155 19.72C12.7288 20.9515 13.4473 22.1836 14.2685 23.2101L12.1126 23.0045C10.6756 22.9019 9.44407 21.978 9.03309 20.6439ZM23.6097 26.0841C19.401 25.6735 15.7054 23.0045 14.1656 19.0012L11.4971 12.2263C11.2916 11.713 11.4971 11.0971 12.0103 10.8921L33.6691 3.09054C33.9775 2.98776 34.1824 2.98776 34.4907 3.09054C34.6956 3.19319 34.9012 3.39823 35.004 3.70644L37.2619 10.4815C38.4939 14.2793 37.6729 18.3853 35.1066 21.362L31.9245 25.0576L32.8482 27.5212L29.1528 29.0609L28.1263 26.4947L23.6097 26.0841ZM17.0401 40.9683L19.401 40.0445L21.9673 47.8462L23.9174 47.2301L21.2488 39.2235L25.3549 37.5811L28.845 47.9488L20.5302 51.4389L17.0401 40.9683ZM50.7092 18.7958V19.8223H52.7622V18.7958C52.7622 15.9218 55.0208 13.6633 57.8947 13.6633V11.6102C55.0208 11.6102 52.7622 9.35233 52.7622 6.47774V5.45124H50.7092V6.47774C50.7092 9.35233 48.4511 11.6102 45.5767 11.6102V13.6633C48.4511 13.6633 50.7092 15.9218 50.7092 18.7958ZM51.7357 10.1733C52.3516 11.1998 53.1728 12.0212 54.1993 12.6369C53.1728 13.2528 52.3516 14.0742 51.7357 15.1007C51.1198 14.0742 50.2986 13.2528 49.2721 12.6368C50.2986 12.0212 51.1198 11.1998 51.7357 10.1733Z" fill="#EAA73F"></path><path d="M5.54267 39.3262V40.3527H7.59567V39.3262C7.59567 36.4522 9.85423 34.1936 12.7282 34.1936V32.1406C9.85423 32.1406 7.59567 29.8827 7.59567 27.0081V25.9816H5.54267V27.0081C5.54267 29.8827 3.28462 32.1406 0.410156 32.1406V34.1936C3.28462 34.1936 5.54267 36.4522 5.54267 39.3262ZM6.56917 30.7037C7.18507 31.7302 8.00627 32.5516 9.03277 33.1673C8.00627 33.7832 7.18507 34.6046 6.56917 35.6311C5.95327 34.6046 5.13207 33.7832 4.10556 33.1671C5.13207 32.5516 5.95327 31.7302 6.56917 30.7037ZM56.8678 27.0081V25.9816H54.8148V27.0081C54.8148 29.8827 52.5567 32.1406 49.6822 32.1406V34.1936C52.5567 34.1936 54.8148 36.4522 54.8148 39.3262V40.3527H56.8678V39.3262C56.8678 36.4522 59.1263 34.1936 62.0003 34.1936V32.1406C59.1263 32.1406 56.8678 29.8827 56.8678 27.0081ZM55.8413 35.6311C55.2254 34.6046 54.4042 33.7832 53.3777 33.1671C54.4042 32.5516 55.2254 31.7302 55.8413 30.7037C56.4572 31.7302 57.2784 32.5516 58.3049 33.1673C57.2784 33.7832 56.4572 34.6046 55.8413 35.6311ZM30.4869 19.1045L31.924 20.5414C37.5698 14.8957 32.3345 6.27305 32.0267 5.96484L30.2815 7.09412C30.3841 7.09412 35.0034 14.5878 30.4869 19.1045Z" fill="#EAA73F"></path></svg>