<svg xmlns="http://www.w3.org/2000/svg" width="59" height="60" viewBox="0 0 59 60" fill="none"><path d="M46.6535 36.6016C45.4439 35.3421 43.9848 34.6687 42.4385 34.6687C40.9046 34.6687 39.4331 35.3296 38.1736 36.5891L34.2329 40.5173C33.9087 40.3427 33.5844 40.1806 33.2727 40.0185C32.8237 39.794 32.3997 39.582 32.0381 39.3576C28.3468 37.0131 24.9923 33.9578 21.7749 30.0047C20.2161 28.0344 19.1686 26.3758 18.4079 24.6923C19.4304 23.757 20.3782 22.7843 21.301 21.849C21.6502 21.4998 21.9994 21.1382 22.3485 20.789C24.9673 18.1702 24.9673 14.7782 22.3485 12.1594L18.9441 8.755C18.5575 8.36842 18.1585 7.96936 17.7843 7.57031C17.0361 6.79714 16.2505 5.99903 15.4399 5.2508C14.2303 4.05363 12.7837 3.41764 11.2623 3.41764C9.74088 3.41764 8.26936 4.05363 7.02231 5.2508L6.99737 5.27574L2.75741 9.55311C1.16119 11.1493 0.250842 13.0947 0.0513142 15.3519C-0.247977 18.9933 0.824484 22.3852 1.64754 24.605C3.66775 30.0546 6.68561 35.1051 11.1875 40.5173C16.6495 47.0394 23.2215 52.1897 30.7287 55.8186C33.5969 57.1779 37.4253 58.7866 41.7027 59.0609C41.9646 59.0734 42.2389 59.0859 42.4884 59.0859C45.369 59.0859 47.7883 58.0508 49.6838 55.9932C49.6963 55.9682 49.7212 55.9558 49.7337 55.9308C50.3822 55.1452 51.1304 54.4344 51.916 53.6737C52.4523 53.1624 53.001 52.6261 53.5372 52.065C54.7718 50.7805 55.4202 49.2841 55.4202 47.7502C55.4202 46.2039 54.7593 44.7199 53.4998 43.4728L46.6535 36.6016ZM51.1179 49.733C51.1055 49.733 51.1055 49.7455 51.1179 49.733C50.6316 50.2568 50.1328 50.7306 49.5965 51.2544C48.7859 52.0276 47.9629 52.8381 47.1897 53.7485C45.9302 55.0953 44.4462 55.7313 42.5008 55.7313C42.3138 55.7313 42.1142 55.7313 41.9272 55.7188C38.2235 55.4819 34.7816 54.0353 32.2002 52.8007C25.1419 49.3838 18.9441 44.5328 13.7938 38.3849C9.54135 33.2595 6.69808 28.5207 4.81504 23.4328C3.65528 20.3276 3.23129 17.9083 3.41834 15.6262C3.54305 14.1672 4.10422 12.9576 5.13927 11.9225L9.3917 7.67007C10.0028 7.09643 10.6512 6.78467 11.2872 6.78467C12.0729 6.78467 12.7089 7.25854 13.1079 7.6576L13.1453 7.69501C13.906 8.40583 14.6293 9.14159 15.39 9.92723C15.7766 10.3263 16.1756 10.7253 16.5747 11.1369L19.9791 14.5413C21.301 15.8632 21.301 17.0853 19.9791 18.4072C19.6175 18.7688 19.2683 19.1304 18.9067 19.4796C17.8592 20.5521 16.8615 21.5497 15.7766 22.5224C15.7516 22.5474 15.7267 22.5598 15.7142 22.5848C14.6418 23.6572 14.8413 24.7047 15.0658 25.4156L15.1032 25.5278C15.9886 27.6727 17.2356 29.6929 19.1311 32.0997L19.1436 32.1122C22.5855 36.3522 26.2144 39.6568 30.2174 42.1884C30.7287 42.5126 31.2525 42.7745 31.7513 43.0239C32.2002 43.2483 32.6242 43.4603 32.9859 43.6848C33.0357 43.7098 33.0856 43.7472 33.1355 43.7721C33.5595 43.9841 33.9585 44.0839 34.3701 44.0839C35.4051 44.0839 36.0536 43.4354 36.2656 43.2234L40.5305 38.9585C40.9545 38.5345 41.6279 38.0232 42.4135 38.0232C43.1867 38.0232 43.8227 38.5096 44.2093 38.9336L44.2342 38.9585L51.1055 45.8297C52.3899 47.1017 52.3899 48.4111 51.1179 49.733ZM31.8885 14.055C35.1557 14.6037 38.1237 16.15 40.4931 18.5194C42.8625 20.8888 44.3963 23.8568 44.9575 27.124C45.0947 27.9471 45.8055 28.5207 46.6161 28.5207C46.7159 28.5207 46.8031 28.5082 46.9029 28.4958C47.8257 28.3461 48.4368 27.4732 48.2871 26.5504C47.6137 22.5972 45.7432 18.9933 42.8874 16.1375C40.0317 13.2818 36.4277 11.4112 32.4746 10.7378C31.5517 10.5882 30.6913 11.1992 30.5292 12.1096C30.3671 13.0199 30.9656 13.9053 31.8885 14.055ZM58.9743 26.064C57.8645 19.5544 54.7967 13.631 50.0829 8.91712C45.369 4.20328 39.4456 1.13554 32.936 0.0256661C32.0256 -0.13645 31.1652 0.487074 31.003 1.39742C30.8534 2.32023 31.4645 3.1807 32.3873 3.34281C38.1985 4.32798 43.4985 7.08396 47.7135 11.2865C51.9285 15.5015 54.672 20.8015 55.6572 26.6127C55.7944 27.4358 56.5052 28.0094 57.3158 28.0094C57.4155 28.0094 57.5028 27.997 57.6026 27.9845C58.5129 27.8473 59.1365 26.9744 58.9743 26.064Z" fill="#EAA73F"></path></svg>