<svg xmlns="http://www.w3.org/2000/svg" width="94" height="94" viewBox="0 0 94 94" fill="none"><path d="M46.4291 23.2146C46.4291 10.414 36.0151 0 23.2146 0C10.414 0 0 10.414 0 23.2146C0 36.0151 10.414 46.4291 23.2146 46.4291C36.0151 46.4291 46.4291 36.0151 46.4291 23.2146ZM2.66397 23.2146C2.66397 11.883 11.883 2.66397 23.2146 2.66397C34.5461 2.66397 43.7652 11.883 43.7652 23.2146C43.7652 34.5461 34.5461 43.7652 23.2146 43.7652C11.883 43.7652 2.66397 34.5461 2.66397 23.2146ZM41.0411 23.2146C41.0411 13.3851 33.0442 5.38807 23.2146 5.38807C13.3849 5.38807 5.38807 13.3849 5.38807 23.2146C5.38807 33.0442 13.3849 41.0411 23.2146 41.0411C33.044 41.0411 41.0411 33.0442 41.0411 23.2146ZM8.05203 23.2146C8.05203 14.8539 14.8539 8.05203 23.2146 8.05203C31.5752 8.05203 38.3771 14.8539 38.3771 23.2146C38.3771 31.5752 31.5752 38.3771 23.2146 38.3771C14.8539 38.3771 8.05203 31.5752 8.05203 23.2146ZM23.2665 34.835C22.9189 34.8348 22.5852 34.6988 22.3365 34.456C22.0878 34.2131 21.9439 33.8827 21.9355 33.5352L21.9085 32.415C20.4482 32.1185 19.4981 31.3309 18.5903 30.4743C18.4631 30.3542 18.3607 30.2103 18.2891 30.0507C18.2175 29.8911 18.178 29.719 18.1729 29.5441C18.1678 29.3692 18.1972 29.1951 18.2594 29.0316C18.3217 28.8681 18.4155 28.7185 18.5355 28.5912C18.6556 28.464 18.7995 28.3616 18.9591 28.29C19.1187 28.2184 19.2908 28.1789 19.4657 28.1738C19.6405 28.1687 19.8147 28.1981 19.9782 28.2604C20.1417 28.3226 20.2913 28.4164 20.4186 28.5364C21.4659 29.5246 22.0457 29.8754 23.2148 29.8754C24.9254 29.8754 26.3173 28.6964 26.3173 27.2474C26.3173 25.7984 24.9252 24.6194 23.2146 24.6194C20.0349 24.6194 17.448 22.2455 17.448 19.3275C17.448 16.8376 19.3317 14.7439 21.8598 14.183L21.8305 12.9579C21.822 12.6048 21.9542 12.2627 22.198 12.007C22.4418 11.7513 22.7771 11.603 23.1303 11.5945C23.857 11.573 24.4762 12.1589 24.4937 12.8944L24.5252 14.2163C25.9042 14.5544 27.5291 15.3507 28.2618 16.4656C28.3579 16.6118 28.4243 16.7754 28.4571 16.9472C28.4899 17.119 28.4886 17.2956 28.4532 17.4669C28.4177 17.6382 28.3489 17.8009 28.2506 17.9456C28.1523 18.0902 28.0265 18.2142 27.8803 18.3102C27.7342 18.4063 27.5705 18.4727 27.3987 18.5055C27.2269 18.5383 27.0503 18.537 26.879 18.5015C26.7077 18.4661 26.5451 18.3973 26.4004 18.299C26.2557 18.2007 26.1318 18.0749 26.0357 17.9287C25.6883 17.4003 24.08 16.6995 23.2146 16.6995C21.5039 16.6995 20.112 17.8785 20.112 19.3277C20.112 20.7767 21.5037 21.9557 23.2146 21.9557C26.3942 21.9557 28.9811 24.3296 28.9811 27.2476C28.9811 29.7363 27.0992 31.8295 24.5728 32.3914L24.5989 33.471C24.6031 33.6459 24.5728 33.8199 24.5098 33.9831C24.4468 34.1462 24.3523 34.2954 24.2316 34.4221C24.1109 34.5487 23.9665 34.6503 23.8066 34.7211C23.6466 34.792 23.4743 34.8306 23.2994 34.8348L23.2665 34.835ZM83.1822 37.8466C83.0056 37.5407 82.9577 37.1771 83.0491 36.8359C83.1406 36.4947 83.3638 36.2038 83.6697 36.0271L89.4918 32.6656C89.6433 32.5767 89.811 32.5187 89.985 32.4949C90.159 32.4711 90.3361 32.482 90.5059 32.5269C90.6757 32.5718 90.835 32.6499 90.9745 32.7566C91.1141 32.8633 91.2311 32.9965 91.319 33.1486C91.4068 33.3008 91.4637 33.4688 91.4863 33.643C91.509 33.8172 91.4969 33.9941 91.4509 34.1636C91.4049 34.3332 91.3258 34.4919 91.2181 34.6307C91.1105 34.7696 90.9765 34.8857 90.8238 34.9726L85.0017 38.3341C84.6957 38.5107 84.3322 38.5585 83.991 38.4671C83.6498 38.3757 83.3589 38.1525 83.1822 37.8466ZM74.2334 29.9154L77.7793 23.774C77.8661 23.6213 77.9823 23.4873 78.1211 23.3797C78.2599 23.272 78.4187 23.1929 78.5882 23.1469C78.7577 23.1009 78.9347 23.0888 79.1089 23.1115C79.2831 23.1341 79.4511 23.191 79.6032 23.2788C79.7553 23.3667 79.8886 23.4837 79.9953 23.6233C80.102 23.7628 80.18 23.9221 80.2249 24.0919C80.2698 24.2617 80.2807 24.4387 80.2569 24.6128C80.2331 24.7868 80.1751 24.9545 80.0863 25.106L76.5404 31.2474C76.453 31.399 76.3366 31.5318 76.1978 31.6384C76.0591 31.7449 75.9007 31.8231 75.7317 31.8683C75.5627 31.9136 75.3864 31.9251 75.213 31.9022C75.0395 31.8793 74.8723 31.8225 74.7209 31.7349C74.5694 31.6474 74.4366 31.531 74.3301 31.3923C74.2236 31.2535 74.1455 31.0951 74.1002 30.9261C74.055 30.7572 74.0434 30.5809 74.0663 30.4075C74.0891 30.2341 74.1459 30.0669 74.2334 29.9154ZM94 48.2304C94 48.5836 93.8597 48.9224 93.6099 49.1722C93.3601 49.422 93.0213 49.5624 92.668 49.5624H85.5763C85.2231 49.5624 84.8843 49.422 84.6345 49.1722C84.3847 48.9224 84.2444 48.5836 84.2444 48.2304C84.2444 47.8771 84.3847 47.5383 84.6345 47.2885C84.8843 47.0387 85.2231 46.8984 85.5763 46.8984H92.668C93.0213 46.8984 93.3601 47.0387 93.6099 47.2885C93.8597 47.5383 94 47.8771 94 48.2304ZM76.6235 49.4372C79.7525 47.5377 80.8097 43.4636 78.9707 40.278C77.1314 37.0925 73.0743 35.9708 69.865 37.7313L63.6281 26.9287C62.8268 25.5406 61.5279 24.5462 59.971 24.1293C58.4142 23.7122 56.7924 23.9238 55.4042 24.7252C54.0161 25.5267 53.0219 26.8256 52.6048 28.3823C52.1877 29.939 52.3993 31.561 53.2008 32.9491L53.3878 33.273C49.7077 40.2236 43.2434 47.3288 35.0373 53.4514C34.8284 53.2878 34.5753 53.1905 34.3106 53.172C34.0459 53.1535 33.7817 53.2146 33.5521 53.3475L25.6671 57.9C23.0418 59.4158 21.1612 61.8731 20.3717 64.8197C19.5823 67.766 19.9822 70.8345 21.4978 73.4599C23.0134 76.0852 25.471 77.9658 28.4175 78.7553C29.3906 79.0172 30.3939 79.1502 31.4017 79.151C33.3721 79.151 35.313 78.6365 37.0577 77.6292L37.5903 77.3217L49.0707 92.6836C49.6415 93.448 50.4538 93.8982 51.4195 93.9855C51.5276 93.9952 51.6347 94.0002 51.7407 94.0002C52.5666 94.0002 53.3256 93.7049 53.952 93.1367L56.3465 90.9636C57.6184 89.8096 57.7992 87.8913 56.7671 86.5021L52.3648 80.5766L53.8399 79.4993C54.4802 79.0315 54.9004 78.329 55.0229 77.5207C55.1584 76.6269 54.9204 75.6894 54.3699 74.9484L50.5408 69.7942C58.2499 67.0469 65.7658 65.6973 72.2457 65.9361L72.4327 66.2599C73.2342 67.6482 74.5329 68.6425 76.0898 69.0596C76.6037 69.1979 77.1336 69.2682 77.6659 69.2687C78.7163 69.2683 79.748 68.9906 80.6568 68.4638C82.0449 67.6623 83.0391 66.3636 83.4562 64.8065C83.8733 63.2496 83.6617 61.6278 82.8602 60.2397L76.6235 49.4372ZM74.1753 39.7005C74.6958 39.8385 75.1837 40.0783 75.6108 40.4061C76.038 40.7338 76.3959 41.143 76.6638 41.61C77.7684 43.5233 77.1464 45.9628 75.2898 47.1269L71.1991 40.0415C72.1167 39.5546 73.1663 39.4301 74.1753 39.7005ZM29.1073 76.1821C26.848 75.5766 24.9652 74.1367 23.8052 72.1275C22.6452 70.1185 22.3398 67.7679 22.9451 65.5089C23.5504 63.2496 24.9903 61.3666 26.9993 60.207L33.7308 56.3205L42.4574 71.4356L35.7259 75.322C33.7169 76.4821 31.3661 76.787 29.1073 76.1821ZM54.5567 88.991L52.1622 91.1638C52.01 91.3022 51.8644 91.3514 51.6597 91.3324C51.4517 91.3136 51.32 91.2432 51.2049 91.0892L39.9137 75.9805L43.9153 73.6703L54.629 88.0909C54.8437 88.3796 54.8132 88.7581 54.5567 88.991ZM52.2318 76.5373C52.358 76.707 52.4181 76.9308 52.3894 77.1215C52.3658 77.2773 52.2929 77.3308 52.2689 77.3481L50.7766 78.4382L45.7502 71.6727C46.478 71.3611 47.21 71.0597 47.9463 70.7687L52.2318 76.5373ZM44.3446 69.3764L36.4577 55.7157C44.4932 49.75 50.9548 42.8362 54.9409 35.9628L70.6929 63.246C62.7471 63.2614 53.5286 65.4004 44.3446 69.3764ZM80.8832 64.1169C80.6501 64.9863 80.0968 65.7108 79.3248 66.1564C78.5532 66.6022 77.6491 66.7191 76.7795 66.4864C75.9101 66.2533 75.1857 65.6997 74.7401 64.9279L55.508 31.6169C55.0623 30.8449 54.9451 29.9411 55.1782 29.0717C55.4113 28.2021 55.9646 27.4779 56.7364 27.0322C57.2417 26.7394 57.8153 26.5852 58.3993 26.5853C58.6931 26.5853 58.9894 26.6241 59.2817 26.7023C60.1512 26.9354 60.8755 27.4887 61.3211 28.2607L80.5532 61.5717C80.9991 62.3435 81.1163 63.2475 80.8832 64.1169Z" fill="#EAA73F"></path></svg>