<svg xmlns="http://www.w3.org/2000/svg" width="94" height="94" viewBox="0 0 94 94" fill="none"><path d="M17.5735 42.7161L18.2462 44.6953C18.3633 45.0418 18.347 45.4195 18.2003 45.7546C18.0536 46.0897 17.7871 46.358 17.4531 46.507L10.5484 49.9277C10.2076 50.0943 9.81563 50.1227 9.45442 50.0069C9.09321 49.8911 8.79076 49.6401 8.61036 49.3065L3.30443 39.4584C3.14739 39.1672 3.09356 38.8315 3.1517 38.5058C3.20985 38.1802 3.37653 37.8838 3.62462 37.665L21.9211 20.3225L18.1441 15.6144C17.9015 15.3113 17.7891 14.9244 17.8316 14.5385C17.8742 14.1527 18.0682 13.7995 18.3711 13.5566C18.4444 13.4941 18.5254 13.4411 18.6119 13.3987V13.3936C20.9201 12.1936 23.2004 12.245 25.3786 13C27.2182 13.6345 28.9513 14.7706 30.5552 16.0447C33.2482 15.9103 35.7503 16.2481 38.0636 16.9803C44.7002 19.0799 49.7065 24.3631 53.1633 30.7544C56.551 37.0202 58.456 44.3802 58.9377 50.7848C59.2579 55.0574 58.9465 58.946 58.03 61.852C57.9381 62.1449 57.7567 62.4016 57.5113 62.586C57.2659 62.7704 56.9688 62.8733 56.6619 62.8801C55.3782 62.9873 54.0813 63.5946 53.0384 64.517C52.1704 65.2815 51.4896 66.2494 51.1422 67.3209C50.7803 68.392 50.7966 69.5548 51.1885 70.6154C51.6578 71.8851 52.6771 73.1872 54.4433 74.4165C54.7629 74.6389 54.9813 74.9788 55.0507 75.3619C55.1201 75.745 55.0348 76.14 54.8134 76.4603C54.6778 76.6543 54.4975 76.8127 54.2878 76.9223C54.078 77.0318 53.845 77.0892 53.6083 77.0897H16.6379C15.9476 77.0897 15.3638 76.6123 15.2103 75.9639C14.8776 74.8337 11.8365 63.4926 21.6574 53.6716C28.8684 46.4607 29.5403 44.4257 28.3771 41.6916C26.3377 43.6047 23.4552 43.1978 20.8085 42.827C19.4697 42.6368 18.2227 42.4605 17.5735 42.7161ZM15.0575 44.4272L14.5053 42.805C14.4406 42.6137 14.4162 42.4112 14.4338 42.21C14.4514 42.0089 14.5105 41.8137 14.6073 41.6365C15.9425 39.1808 18.454 39.5325 21.2117 39.9225C23.5705 40.2552 26.2077 40.6312 27.2086 38.2349V38.24C27.3409 37.9227 27.5802 37.6617 27.885 37.5027C28.2287 37.3228 28.6298 37.2868 29.0001 37.4024C29.3704 37.5181 29.6796 37.776 29.8598 38.1196L30.1051 38.5918C30.119 38.6153 30.1322 38.6432 30.1469 38.6667C32.9141 43.922 33.8262 45.6602 23.7328 55.7499C16.3735 63.1136 17.2027 71.3167 17.7814 74.1529H49.8666C49.2138 73.3282 48.7452 72.4807 48.4353 71.6273C47.7729 69.8259 47.8184 68.0355 48.3523 66.4147C48.8715 64.8387 49.8585 63.4243 51.096 62.3308C52.3569 61.2189 53.8859 60.4214 55.4751 60.0975C56.092 57.6403 56.2727 54.4846 56.009 51.0036C55.5588 44.9604 53.7655 38.0315 50.5812 32.141C47.463 26.3709 43.0075 21.6253 37.1779 19.7805C35.046 19.1086 32.7151 18.8163 30.1888 19.0065V19.0021C29.8134 19.0307 29.4415 18.9128 29.1511 18.6731C27.6493 17.44 26.041 16.3238 24.4239 15.7627C23.5477 15.4616 22.6577 15.3265 21.7588 15.4337L25.0444 19.5352L25.0496 19.5404C25.5225 20.1294 25.4755 20.9908 24.9188 21.5188L6.41455 39.0559L10.5205 46.6693L15.0575 44.4272Z" fill="#EAA73F"></path><path d="M11.6741 74.1533H58.0005C58.3959 74.1532 58.7873 74.2314 59.1523 74.3832C59.5173 74.5351 59.8487 74.7577 60.1273 75.0382C60.4065 75.3176 60.628 75.6491 60.7791 76.0141C60.9302 76.379 61.0079 76.7701 61.0078 77.165V82.1706C61.0078 82.9997 60.6693 83.7495 60.1273 84.2974C59.5627 84.8604 58.7979 85.1766 58.0005 85.1764H11.6741C10.8778 85.1762 10.1143 84.8601 9.55095 84.2974C9.27075 84.0185 9.04835 83.6872 8.8965 83.3222C8.74464 82.9572 8.66632 82.5659 8.66602 82.1706V77.165C8.66602 76.3359 9.00457 75.5802 9.55095 75.0382H9.55609C9.83309 74.7581 10.1629 74.5356 10.5265 74.3837C10.89 74.2318 11.2801 74.1535 11.6741 74.1533ZM58.0005 77.0909H11.6741C11.6557 77.0926 11.638 77.0989 11.6226 77.1092L11.6278 77.1151C11.6208 77.1215 11.6153 77.1292 11.6113 77.1378C11.6074 77.1463 11.6053 77.1556 11.605 77.165V82.1706C11.605 82.1795 11.6071 82.1883 11.6111 82.1964C11.615 82.2044 11.6207 82.2114 11.6278 82.2169C11.6417 82.2315 11.6557 82.2396 11.6741 82.2396H58.0005C58.0189 82.2396 58.038 82.2308 58.0468 82.2169C58.0615 82.208 58.0695 82.1897 58.0695 82.1706V77.165C58.0694 77.1556 58.0672 77.1463 58.0633 77.1377C58.0594 77.1291 58.0538 77.1214 58.0468 77.1151C58.038 77.1004 58.0196 77.0923 58.0005 77.0923V77.0909Z" fill="#EAA73F"></path><path d="M3.61391 91.0636H66.0594C66.1479 91.0642 66.2357 91.0472 66.3176 91.0137C66.3995 90.9802 66.474 90.9307 66.5367 90.8683V90.8638C66.6001 90.8007 66.6504 90.7256 66.6846 90.6429C66.7187 90.5602 66.7361 90.4716 66.7357 90.3821V85.8583C66.737 85.6782 66.6667 85.5049 66.5404 85.3765L66.536 85.3721C66.4732 85.3097 66.3987 85.2603 66.3168 85.2268C66.2349 85.1932 66.1471 85.1762 66.0586 85.1768H3.61391C3.43527 85.1764 3.26372 85.2467 3.13656 85.3721L3.13215 85.3765C3.0058 85.5049 2.93555 85.6782 2.9368 85.8583V90.3821C2.9368 90.5716 3.01538 90.739 3.13582 90.8638V90.8683C3.26312 90.994 3.435 91.0642 3.61391 91.0636ZM66.0601 94.0011H3.61391C3.13993 93.9999 2.67085 93.9052 2.23355 93.7223C1.79626 93.5394 1.39936 93.2721 1.06559 92.9355L1.06119 92.9399C0.72488 92.6044 0.458046 92.2058 0.275955 91.7671C0.0938633 91.3283 8.94419e-05 90.8579 0 90.3828V85.859C0 84.8676 0.407583 83.9643 1.06119 83.3056H1.06559V83.3012C1.7411 82.6241 2.6575 82.2425 3.61391 82.24H66.0594C67.0464 82.24 67.9497 82.6476 68.6084 83.3012L68.6128 83.3056C69.2907 83.9826 69.6724 84.9009 69.674 85.859V90.3828C69.674 90.8579 69.5802 91.3283 69.3981 91.7671C69.216 92.2059 68.9492 92.6044 68.6128 92.9399V92.9355C68.2783 93.2724 67.8807 93.5398 67.4426 93.7227C67.0046 93.9056 66.5348 94.0002 66.0601 94.0011ZM67.5472 19.3818C67.5593 19.0001 67.7194 18.6381 67.9937 18.3723C68.268 18.1066 68.6348 17.958 69.0167 17.958C69.3986 17.958 69.7655 18.1066 70.0398 18.3723C70.3141 18.6381 70.4742 19.0001 70.4862 19.3818V39.255H83.6618C84.4726 39.255 85.1306 39.9086 85.1306 40.7193V58.418C85.1306 58.8077 84.9758 59.1815 84.7002 59.4571C84.4246 59.7327 84.0508 59.8875 83.6611 59.8875C83.2714 59.8875 82.8976 59.7327 82.622 59.4571C82.3464 59.1815 82.1916 58.8077 82.1916 58.418V42.1881H69.016C68.8231 42.1881 68.632 42.1501 68.4538 42.0762C68.2755 42.0024 68.1136 41.8941 67.9772 41.7576C67.8408 41.6212 67.7326 41.4592 67.6588 41.2809C67.5851 41.1026 67.5471 40.9115 67.5472 40.7186V19.3818Z" fill="#EAA73F"></path><path d="M64.4788 26.6949C64.2322 26.9871 63.8811 27.1713 63.5005 27.208C63.1199 27.2447 62.7401 27.1309 62.4423 26.8912C62.1444 26.6514 61.9523 26.3046 61.9068 25.9249C61.8614 25.5453 61.9664 25.1629 62.1993 24.8597L67.8709 17.8382C68.0089 17.6682 68.1831 17.5311 68.3808 17.437C68.5785 17.3428 68.7947 17.2939 69.0136 17.2939C69.2326 17.2939 69.4488 17.3428 69.6465 17.437C69.8442 17.5311 70.0183 17.6682 70.1563 17.8382V17.8338L75.8331 24.8501C75.9545 25.0001 76.0451 25.1726 76.0999 25.3576C76.1546 25.5427 76.1723 25.7367 76.1521 25.9286C76.1318 26.1205 76.074 26.3065 75.9818 26.476C75.8897 26.6456 75.765 26.7953 75.615 26.9167C75.465 27.038 75.2925 27.1287 75.1075 27.1834C74.9225 27.2381 74.7285 27.2559 74.5366 27.2356C74.3447 27.2154 74.1586 27.1575 73.9891 27.0654C73.8196 26.9732 73.6698 26.8486 73.5485 26.6986L69.0114 21.0908L64.4788 26.6949ZM69.0158 7.93212e-06C70.5837 7.93212e-06 72.0004 0.634516 73.0307 1.66412C73.5576 2.19106 73.9753 2.81683 74.2599 3.50554C74.5444 4.19425 74.6902 4.93236 74.689 5.67754C74.6898 6.42276 74.5438 7.16085 74.2593 7.84962C73.9748 8.53839 73.5573 9.16434 73.0307 9.69168C72.5033 10.2184 71.8772 10.636 71.1884 10.9207C70.4995 11.2053 69.7612 11.3514 69.0158 11.3507C68.2706 11.3518 67.5325 11.2059 66.8438 10.9212C66.1551 10.6365 65.5293 10.2187 65.0024 9.69168C64.4743 9.16518 64.0554 8.53953 63.7698 7.85065C63.4843 7.16178 63.3376 6.42326 63.3383 5.67754C63.3383 4.11109 63.9735 2.68859 65.0024 1.66412C65.5284 1.13557 66.1539 0.716397 66.8427 0.43078C67.5316 0.145164 68.2701 -0.00124167 69.0158 7.93212e-06ZM70.9539 3.74023C70.6998 3.48558 70.3979 3.28365 70.0656 3.14603C69.7333 3.0084 69.377 2.9378 69.0173 2.93828C68.2616 2.93828 67.5757 3.24378 67.0793 3.74023C66.5828 4.23667 66.2773 4.92185 66.2773 5.67754C66.2773 6.43322 66.5828 7.11913 67.0793 7.61484C67.5941 8.12746 68.2908 8.41573 69.0173 8.41679C69.7433 8.41526 70.4393 8.12704 70.9539 7.61484C71.4666 7.10035 71.7549 6.40388 71.7558 5.67754C71.7556 4.95105 71.4672 4.25431 70.9539 3.74023ZM83.6617 65.7406C85.2281 65.7406 86.6462 66.3759 87.6751 67.4004C88.2019 67.9274 88.6196 68.5532 88.9044 69.2419C89.1892 69.9305 89.3354 70.6686 89.3348 71.4138C89.3348 72.9861 88.6995 74.4027 87.6751 75.4272C87.1489 75.9556 86.5234 76.3746 85.8346 76.6602C85.1458 76.9458 84.4073 77.0923 83.6617 77.0913C82.9156 77.0933 82.1766 76.9473 81.4874 76.6616C80.7983 76.3759 80.1726 75.9564 79.6468 75.4272C79.1181 74.9013 78.6989 74.2759 78.4136 73.587C78.1282 72.8981 77.9822 72.1594 77.9841 71.4138C77.9841 69.8473 78.6179 68.4292 79.6468 67.4004C80.1737 66.873 80.7997 66.4548 81.4887 66.17C82.1777 65.8852 82.9161 65.7393 83.6617 65.7406ZM85.5938 69.4816C85.341 69.2266 85.0399 69.0244 84.7082 68.8867C84.3765 68.7491 84.0208 68.6787 83.6617 68.6797C83.3017 68.6787 82.945 68.749 82.6124 68.8867C82.2797 69.0243 81.9777 69.2265 81.7236 69.4816C81.4685 69.7344 81.2662 70.0354 81.1286 70.3671C80.9909 70.6988 80.9206 71.0546 80.9217 71.4138C80.9207 71.7738 80.991 72.1304 81.1287 72.4631C81.2663 72.7957 81.4685 73.0978 81.7236 73.3518C81.9779 73.6066 82.28 73.8086 82.6126 73.9462C82.9452 74.0839 83.3017 74.1544 83.6617 74.1538C84.0207 74.1544 84.3764 74.0838 84.708 73.9462C85.0397 73.8085 85.3407 73.6065 85.5938 73.3518C85.8489 73.0978 86.0511 72.7957 86.1888 72.4631C86.3264 72.1304 86.3968 71.7738 86.3958 71.4138C86.3958 70.6574 86.0903 69.9722 85.5938 69.4816ZM91.4931 18.6446C91.7684 18.3692 92.1419 18.2144 92.5313 18.2143C92.9207 18.2143 93.2942 18.3689 93.5696 18.6442C93.845 18.9195 93.9998 19.2929 93.9998 19.6824C93.9999 20.0718 93.8453 20.4453 93.57 20.7207L85.9221 28.3678C85.786 28.5044 85.6243 28.6127 85.4462 28.6867C85.2681 28.7606 85.0772 28.7986 84.8844 28.7986C84.6916 28.7986 84.5007 28.7606 84.3226 28.6867C84.1446 28.6127 83.9828 28.5044 83.8467 28.3678C83.7101 28.2317 83.6016 28.0699 83.5276 27.8918C83.4536 27.7137 83.4155 27.5227 83.4155 27.3298C83.4155 27.1369 83.4536 26.9459 83.5276 26.7677C83.6016 26.5896 83.7101 26.4278 83.8467 26.2917L91.4931 18.6446Z" fill="#EAA73F"></path><path d="M93.57 26.2919C93.7063 26.4283 93.8144 26.5902 93.8882 26.7683C93.9619 26.9465 93.9999 27.1374 93.9998 27.3302C93.9998 27.523 93.9618 27.714 93.888 27.8921C93.8142 28.0702 93.706 28.2321 93.5696 28.3684C93.4332 28.5047 93.2714 28.6128 93.0932 28.6866C92.915 28.7603 92.7241 28.7983 92.5313 28.7983C92.3385 28.7982 92.1476 28.7602 91.9694 28.6864C91.7913 28.6126 91.6295 28.5044 91.4931 28.368L83.8467 20.7209C83.7101 20.5848 83.6016 20.423 83.5276 20.2448C83.4536 20.0667 83.4155 19.8757 83.4155 19.6828C83.4155 19.4899 83.4536 19.2989 83.5276 19.1208C83.6016 18.9427 83.7101 18.7809 83.8467 18.6448C83.9828 18.5082 84.1446 18.3999 84.3226 18.3259C84.5007 18.252 84.6916 18.2139 84.8844 18.2139C85.0772 18.2139 85.2681 18.252 85.4462 18.3259C85.6243 18.3999 85.786 18.5082 85.9221 18.6448L93.57 26.2919ZM51.0249 5.24225C51.1612 5.10588 51.323 4.9977 51.5012 4.92388C51.6793 4.85006 51.8702 4.81205 52.063 4.81201C52.2558 4.81198 52.4468 4.84992 52.6249 4.92368C52.8031 4.99744 52.965 5.10556 53.1013 5.24188C53.2377 5.3782 53.3459 5.54004 53.4197 5.71817C53.4935 5.8963 53.5315 6.08722 53.5316 6.28004C53.5316 6.47286 53.4937 6.6638 53.4199 6.84195C53.3462 7.0201 53.238 7.18198 53.1017 7.31835L45.4538 14.9648C45.3177 15.1013 45.156 15.2097 44.9779 15.2836C44.7999 15.3575 44.6089 15.3956 44.4161 15.3956C44.2233 15.3956 44.0324 15.3575 43.8544 15.2836C43.6763 15.2097 43.5146 15.1013 43.3785 14.9648C43.2418 14.8286 43.1333 14.6669 43.0593 14.4887C42.9854 14.3106 42.9473 14.1196 42.9473 13.9267C42.9473 13.7338 42.9854 13.5428 43.0593 13.3647C43.1333 13.1866 43.2418 13.0248 43.3785 12.8887L51.0249 5.24225Z" fill="#EAA73F"></path><path d="M53.1016 12.8885C53.6766 13.4628 53.6766 14.3903 53.1016 14.9646C52.5266 15.5389 51.5998 15.5389 51.0247 14.9646L43.3783 7.31821C43.2418 7.18199 43.1335 7.02019 43.0597 6.84206C42.9858 6.66394 42.9477 6.473 42.9477 6.28016C42.9477 6.08732 42.9858 5.89637 43.0597 5.71825C43.1335 5.54013 43.2418 5.37833 43.3783 5.24211C43.5145 5.10561 43.6763 4.99732 43.8545 4.92344C44.0326 4.84955 44.2235 4.81152 44.4164 4.81152C44.6092 4.81152 44.8002 4.84955 44.9783 4.92344C45.1564 4.99732 45.3182 5.10561 45.4544 5.24211L53.1016 12.8885ZM34.5356 24.8502C34.1798 24.6946 33.9001 24.4044 33.7576 24.0432C33.6152 23.6819 33.6216 23.279 33.7755 22.9224C33.9311 22.5666 34.2212 22.2869 34.5825 22.1445C34.9438 22.002 35.3467 22.0084 35.7033 22.1623C39.9759 24.0211 44.5974 28.2247 47.8133 34.7541C50.3667 39.9447 52.0492 46.6232 51.9758 54.7808C51.9743 54.9729 51.935 55.1628 51.8601 55.3397C51.7852 55.5166 51.6761 55.677 51.5392 55.8117C51.4022 55.9464 51.24 56.0528 51.0619 56.1248C50.8838 56.1968 50.6932 56.2329 50.5011 56.2312C50.3088 56.2303 50.1186 56.1914 49.9415 56.1167C49.7643 56.042 49.6037 55.9329 49.4689 55.7959C49.334 55.6588 49.2277 55.4964 49.1559 55.318C49.0841 55.1396 49.0484 54.9488 49.0507 54.7565C49.1197 47.1057 47.5533 40.8722 45.1849 36.0517C42.298 30.1943 38.2472 26.4636 34.5356 24.8502Z" fill="#EAA73F"></path></svg>