<svg width="18" height="18" viewBox="0 0 18 18" fill="none" xmlns="http://www.w3.org/2000/svg">
<path d="M7.69066 2.73717L1.20522 13.5641C1.07151 13.7957 1.00075 14.0582 1.00001 14.3256C0.999257 14.593 1.06854 14.8559 1.20095 15.0882C1.33337 15.3205 1.52431 15.5141 1.75477 15.6497C1.98523 15.7853 2.24718 15.8582 2.51456 15.8612H15.4854C15.7528 15.8582 16.0148 15.7853 16.2452 15.6497C16.4757 15.5141 16.6666 15.3205 16.799 15.0882C16.9315 14.8559 17.0007 14.593 17 14.3256C16.9992 14.0582 16.9285 13.7957 16.7948 13.5641L10.3093 2.73717C10.1728 2.51214 9.98064 2.32608 9.7513 2.19696C9.52195 2.06783 9.2632 2 9 2C8.7368 2 8.47805 2.06783 8.2487 2.19696C8.01936 2.32608 7.82716 2.51214 7.69066 2.73717Z" stroke="#CF0C35" stroke-linecap="round" stroke-linejoin="round"/>
<path d="M9 6.75V9.75" stroke="#CF0C35" stroke-linecap="round" stroke-linejoin="round"/>
<path d="M9 12.75H9.0075" stroke="#CF0C35" stroke-linecap="round" stroke-linejoin="round"/>
</svg>
