<svg xmlns="http://www.w3.org/2000/svg" width="48" height="48" viewBox="0 0 48 48" fill="none">
  <path fill-rule="evenodd" clip-rule="evenodd" d="M24 2C11.8497 2 2 11.8497 2 24C2 36.1503 11.8497 46 24 46C36.1503 46 46 36.1503 46 24C46 11.8497 36.1503 2 24 2ZM6 24C6 14.0589 14.0589 6 24 6C28.25 6 32.156 7.47295 35.2354 9.9362L9.9362 35.2354C7.47295 32.156 6 28.25 6 24ZM12.7646 38.0638C15.844 40.5271 19.75 42 24 42C33.9411 42 42 33.9411 42 24C42 19.75 40.5271 15.844 38.0638 12.7646L12.7646 38.0638Z" fill="#CF0C35"/>
</svg>