<svg width="66" height="25" viewBox="0 0 66 25" fill="none" xmlns="http://www.w3.org/2000/svg">
<g clip-path="url(#clip0_1896_9656)">
<path d="M9.0735 24.852H7.26159L2.17894 18.3149V24.8288H0V15.3705H2.53203L6.94567 21.1621V15.3705H9.0735V24.852Z" fill="#1B004E"/>
<path d="M9.93762 15.3658L12.1026 15.3705V17.0371H9.93762V15.3658ZM9.93762 17.926H12.1026V24.8242H9.93762V17.926Z" fill="#1B004E"/>
<path d="M18.8903 24.8288H16.7625C15.1736 24.8288 14.4395 24.0696 14.4395 22.6297V19.727H12.6787V17.9307H14.4395V15.3705H16.5813V17.926H18.8903V19.7223H16.5813V21.8659C16.5813 22.6112 16.8043 22.9168 17.6034 22.9168H18.8903V24.8288Z" fill="#1B004E"/>
<path d="M21.7429 24.8288H19.6151V17.9306H21.7429V19.0093C21.887 18.6899 22.3748 17.9167 23.8057 17.9167H25.2646V20.0464H23.4015C22.1936 20.0464 21.7476 20.5001 21.7476 21.4584V24.8288H21.7429Z" fill="#1B004E"/>
<path d="M32.884 21.3797C32.884 23.5093 31.2951 25 29.1533 25C27.0115 25 25.4226 23.5093 25.4226 21.3797C25.4226 19.25 27.0115 17.7593 29.1533 17.7593C31.2951 17.7547 32.884 19.2454 32.884 21.3797ZM30.7422 21.3797C30.7422 20.3797 30.1104 19.6343 29.1533 19.6343C28.2102 19.6343 27.5504 20.3797 27.5504 21.3797C27.5504 22.3797 28.2055 23.125 29.1533 23.125C30.1104 23.1204 30.7422 22.375 30.7422 21.3797Z" fill="#1B004E"/>
<path d="M33.748 15.3705H39.1977C41.3116 15.3705 42.5474 16.4353 42.5474 18.4214C42.5474 20.3936 41.3116 21.5001 39.1977 21.5001H35.9688V24.8288H33.748V15.3705ZM35.9688 17.3427V19.5279H38.9887C39.8435 19.5279 40.2616 19.1159 40.2616 18.4353C40.2616 17.7038 39.8435 17.3427 38.9887 17.3427H35.9688Z" fill="#1B004E"/>
<path d="M47.8066 23.8149C47.6904 24.0417 47.0447 24.9723 45.6137 24.9723C43.9086 24.9723 42.5288 23.6158 42.5288 21.3751C42.5288 19.1529 43.9086 17.7917 45.6276 17.7917C47.0075 17.7917 47.6626 18.6575 47.7834 18.8843V17.926H49.9112V24.8242H47.8112V23.8149H47.8066ZM46.2595 19.6343C45.3164 19.6343 44.6845 20.3797 44.6845 21.3797C44.6845 22.3797 45.3164 23.1251 46.2595 23.1251C47.2073 23.1251 47.8112 22.3797 47.8112 21.3797C47.8066 20.3797 47.2026 19.6343 46.2595 19.6343Z" fill="#1B004E"/>
<path d="M55.5003 20.338C55.3934 20.1667 55.0682 19.6343 54.2273 19.6343C53.3353 19.6343 52.7685 20.3797 52.7685 21.3797C52.7685 22.3797 53.3446 23.1389 54.2412 23.1389C55.0821 23.1389 55.4631 22.5926 55.5282 22.4352H57.577C57.512 23.3935 56.5921 25.0047 54.1901 25.0047C52.1924 25.0047 50.6313 23.5648 50.6313 21.3843C50.6313 19.1991 52.1831 17.7639 54.1623 17.7639C56.5642 17.7639 57.4702 19.3473 57.577 20.3473H55.5003V20.338Z" fill="#1B004E"/>
<path d="M60.4064 21.75V24.8287H58.2786V15.0232H60.4064V20.6297L63.1243 17.926H65.805L62.5482 21.1112L65.9769 24.8287H63.2172L60.4064 21.75Z" fill="#1B004E"/>
<path d="M22.9276 2.19444C28.9023 2.19444 33.748 7.10648 33.748 13.1713H35.913C35.913 5.89815 30.0963 0 22.9276 0C15.759 0 9.93762 5.89815 9.93762 13.1713H12.1026C12.1026 7.11111 16.9483 2.19444 22.9276 2.19444Z" fill="#25F5CE"/>
<path d="M20.9206 12.1806C20.456 11.1713 21.0507 9.98612 22.1286 9.77316L29.7433 8.00464L23.5177 12.787C22.6629 13.4907 21.3852 13.1945 20.9206 12.1806Z" fill="#25F5CE"/>
</g>
<defs>
<clipPath id="clip0_1896_9656">
<rect width="65.9722" height="25" fill="white"/>
</clipPath>
</defs>
</svg>
