<svg width="89" height="14" viewBox="0 0 89 14" fill="none" xmlns="http://www.w3.org/2000/svg">
<path d="M37.0862 13.2745H35.4357L30.8085 7.13042V13.2482H28.8223V4.36719H31.1302L35.1475 9.80876V4.36719H37.0834V13.2745H37.0862Z" fill="#1B004E"/>
<path d="M37.875 4.35938L39.8473 4.3623V5.9254H37.875V4.35938ZM37.875 6.76549H39.8473V13.2462H37.875V6.76549Z" fill="#1B004E"/>
<path d="M46.0266 13.2511H44.0879C42.6416 13.2511 41.9702 12.5369 41.9702 11.1874V8.45934H40.3672V6.77038H41.9702V4.36719H43.9201V6.77038H46.0238V8.45934H43.9201V10.4732C43.9201 11.1728 44.1243 11.4626 44.8517 11.4626H46.0238V13.2511H46.0266Z" fill="#1B004E"/>
<path d="M48.6242 13.2522H46.6855V6.76854H48.6242V7.78134C48.7557 7.47984 49.1977 6.75391 50.5014 6.75391H51.8274V8.75608H50.1293C49.0299 8.75608 48.6214 9.18051 48.6214 10.0821V13.2522H48.6242Z" fill="#1B004E"/>
<path d="M58.769 10.0058C58.769 12.008 57.3227 13.4101 55.3728 13.4101C53.4229 13.4101 51.9766 12.008 51.9766 10.0058C51.9766 8.00367 53.4229 6.60156 55.3728 6.60156C57.3227 6.60449 58.769 8.00367 58.769 10.0058ZM56.8191 10.0058C56.8191 9.06622 56.2456 8.36663 55.3728 8.36663C54.5111 8.36663 53.9125 9.06622 53.9125 10.0058C53.9125 10.9455 54.5111 11.645 55.3728 11.645C56.2456 11.645 56.8191 10.9455 56.8191 10.0058Z" fill="#1B004E"/>
<path d="M59.5566 4.36719H64.5195C66.4442 4.36719 67.5688 5.36827 67.5688 7.23287C67.5688 9.08575 66.4442 10.122 64.5195 10.122H61.5765V13.2511H59.5566V4.36719ZM61.5765 6.21715V8.26908H64.3265C65.1042 8.26908 65.4874 7.8827 65.4874 7.24165C65.4874 6.55377 65.1042 6.21422 64.3265 6.21422H61.5765V6.21715Z" fill="#1B004E"/>
<path d="M72.3637 12.2998C72.2574 12.5135 71.6699 13.3887 70.3662 13.3887C68.8108 13.3887 67.5547 12.1124 67.5547 10.0108C67.5547 7.92077 68.8108 6.64453 70.3774 6.64453C71.6335 6.64453 72.2322 7.45828 72.3385 7.67196V6.7704H74.2744V13.2511H72.3609V12.2998H72.3637ZM70.9509 8.36862C70.0893 8.36862 69.5158 9.06821 69.5158 10.0078C69.5158 10.9474 70.0893 11.647 70.9509 11.647C71.8126 11.647 72.3609 10.9474 72.3609 10.0078C72.3637 9.07114 71.8126 8.36862 70.9509 8.36862Z" fill="#1B004E"/>
<path d="M79.3666 9.03403C79.2715 8.87011 78.9721 8.36956 78.2056 8.36956C77.3915 8.36956 76.8768 9.06915 76.8768 10.0088C76.8768 10.9484 77.4027 11.6597 78.2168 11.6597C78.9833 11.6597 79.3302 11.1474 79.389 10.9952H81.2549C81.1962 11.8968 80.3569 13.4101 78.1692 13.4101C76.3508 13.4101 74.9297 12.0578 74.9297 10.0058C74.9297 7.95391 76.3397 6.60156 78.1469 6.60156C80.3345 6.60156 81.1598 8.09148 81.2549 9.02817H79.3666V9.03403Z" fill="#1B004E"/>
<path d="M83.8352 10.3588V13.2479H81.8965V4.03906H83.8352V9.30793L86.311 6.76717H88.7505L85.7851 9.75872L88.9071 13.2508H86.3949L83.8352 10.3588Z" fill="#1B004E"/>
<path d="M12.9398 2.72448C18.5827 2.72448 23.1542 7.51038 23.1542 13.412H25.198C25.198 6.32746 19.7107 0.585938 12.9398 0.585938C6.16895 0.585938 0.681641 6.32746 0.681641 13.412H2.7255C2.7255 7.51038 7.29949 2.72448 12.9398 2.72448Z" fill="#00E5B9"/>
<path d="M11.0453 12.4481C10.606 11.4641 11.1688 10.3096 12.1882 10.1029L19.3763 8.38281L13.4965 13.0396C12.6918 13.7214 11.4847 13.4322 11.0453 12.4481Z" fill="#00E5B9"/>
</svg>
