<svg width="44" height="44" viewBox="0 0 44 44" fill="none" xmlns="http://www.w3.org/2000/svg">
<path d="M15.889 15.7C16.3827 14.2965 17.3572 13.113 18.6399 12.3592C19.9226 11.6053 21.4307 11.3298 22.8971 11.5813C24.3635 11.8328 25.6935 12.5952 26.6517 13.7334C27.6098 14.8716 28.1342 16.3122 28.132 17.8C28.132 22 21.832 24.1 21.832 24.1V27.25M22 32.5H22.021M43 22C43 33.598 33.598 43 22 43C10.402 43 1 33.598 1 22C1 10.402 10.402 1 22 1C33.598 1 43 10.402 43 22Z" stroke="#776795" stroke-width="2" stroke-linecap="round" stroke-linejoin="round"/>
</svg>
