<svg width="53" height="53" viewBox="0 0 53 53" fill="none" xmlns="http://www.w3.org/2000/svg">
<path d="M26.4994 0.656738C12.2361 0.656738 0.631348 12.2496 0.631348 26.4992C0.631348 40.7505 12.2361 52.343 26.4994 52.343C40.7623 52.343 52.3688 40.7505 52.3688 26.4992C52.3688 12.2496 40.7623 0.656738 26.4994 0.656738ZM26.4994 51.1584C12.8902 51.1584 1.81746 40.0963 1.81746 26.4992C1.81746 12.903 12.8898 1.84171 26.4994 1.84171C40.1082 1.84171 51.1801 12.903 51.1801 26.4992C51.1801 40.0963 40.1082 51.1584 26.4994 51.1584Z" fill="#1B004E"/>
<path d="M4.30859 26.4991C4.30859 35.2744 9.41321 42.858 16.8153 46.4517L6.22985 17.4766C4.99856 20.2338 4.30859 23.285 4.30859 26.4991Z" fill="#1B004E"/>
<path d="M41.4798 25.3799C41.4798 22.64 40.4947 20.7425 39.6498 19.2656C38.5249 17.4394 37.4706 15.8929 37.4706 14.0667C37.4706 12.0288 39.0177 10.1317 41.1969 10.1317C41.2953 10.1317 41.3886 10.1439 41.4845 10.1494C37.5364 6.53586 32.2764 4.32959 26.4991 4.32959C18.7466 4.32959 11.9259 8.30341 7.95801 14.3224C8.47865 14.338 8.9693 14.3489 9.38607 14.3489C11.7072 14.3489 15.3001 14.0676 15.3001 14.0676C16.4964 13.9971 16.6374 15.7524 15.4424 15.8937C15.4424 15.8937 14.2403 16.0351 12.9026 16.1051L20.9837 40.1189L25.84 25.568L22.3826 16.1042C21.1876 16.0342 20.0556 15.8929 20.0556 15.8929C18.8597 15.8229 18.9999 13.9963 20.1958 14.0667C20.1958 14.0667 23.8605 14.3481 26.041 14.3481C28.3617 14.3481 31.9551 14.0667 31.9551 14.0667C33.1522 13.9963 33.2928 15.7516 32.0974 15.8929C32.0974 15.8929 30.8927 16.0342 29.5575 16.1042L37.577 39.9362L39.7904 32.5467C40.7498 29.4802 41.4798 27.2778 41.4798 25.3799Z" fill="#1B004E"/>
<path d="M26.889 28.4375L20.231 47.7662C22.2189 48.35 24.3213 48.6694 26.4997 48.6694C29.0839 48.6694 31.5621 48.2231 33.8689 47.4127C33.8094 47.3178 33.7553 47.217 33.711 47.1073L26.889 28.4375Z" fill="#1B004E"/>
<path d="M45.9711 15.8623C46.0665 16.5685 46.1205 17.3265 46.1205 18.142C46.1205 20.3917 45.7 22.9207 44.4332 26.0829L37.6548 45.6622C44.2521 41.8187 48.6895 34.678 48.6895 26.4992C48.6899 22.6448 47.7044 19.0203 45.9711 15.8623Z" fill="#1B004E"/>
</svg>
