<svg xmlns="http://www.w3.org/2000/svg" width="250" height="207" viewBox="0 0 250 207"><rect width="100%" height="100%" fill="#DDDDDD"/><path fill="#999999" d="M57.225 97.455h2.01v12.29h-1.17q-.27 0-.45-.09-.19-.09-.36-.3l-6.41-8.2q.05.57.05 1.04v7.55h-2.02v-12.29h1.2q.14 0 .25.01t.19.05.16.11q.07.08.17.19l6.44 8.23q-.03-.3-.04-.58-.02-.29-.02-.54zm6.08 6.93h3.96q0-.41-.12-.77-.11-.36-.34-.64-.23-.27-.58-.43-.36-.15-.82-.15-.91 0-1.44.52-.52.51-.66 1.47m5.35 1.26h-5.4q.05.67.24 1.16t.49.81q.31.32.73.48.42.15.93.15t.88-.12q.37-.11.65-.26.27-.14.48-.26t.41-.12q.26 0 .39.19l.6.77q-.35.41-.78.68-.43.28-.91.45-.47.16-.96.23t-.94.07q-.91 0-1.7-.3-.78-.31-1.36-.9-.57-.59-.91-1.46-.33-.87-.33-2.02 0-.89.29-1.68.29-.78.83-1.36.54-.59 1.32-.93t1.75-.34q.83 0 1.52.27.7.26 1.2.77.5.5.79 1.24.28.73.28 1.68 0 .47-.1.64-.1.16-.39.16m12.92-4.62h1.6l-2.77 8.72h-1.68q-.29 0-.4-.37l-1.57-5.04q-.07-.26-.14-.51-.06-.25-.1-.51l-.12.52q-.06.26-.14.51l-1.59 5.03q-.1.37-.45.37h-1.61l-2.77-8.72h1.68q.23 0 .39.11t.21.28l1.25 4.66q.09.38.17.75.07.36.12.73.09-.37.2-.73.11-.37.22-.75l1.45-4.68q.05-.17.2-.28t.36-.11h.93q.22 0 .37.11.16.11.21.28l1.41 4.68q.11.38.2.75l.2.74q.11-.73.31-1.49l1.28-4.66q.06-.17.22-.28.15-.11.36-.11m18.85-3.57h1.73v12.29h-2.01v-7.94q0-.48.05-1.03l-3.72 6.98q-.26.5-.81.5h-.32q-.54 0-.81-.5l-3.75-7 .04.55q.02.27.02.5v7.94h-2.02v-12.29h1.73q.15 0 .26.01t.2.04.16.11.14.2l3.68 6.83q.15.27.27.56t.24.6q.12-.32.25-.61.13-.3.27-.57l3.63-6.81q.07-.12.15-.2.07-.08.16-.11t.2-.04.26-.01m5.79 6.93h3.96q0-.41-.11-.77-.12-.36-.35-.64-.22-.27-.58-.43-.35-.15-.82-.15-.91 0-1.43.52-.52.51-.67 1.47m5.36 1.26h-5.4q.05.67.24 1.16t.49.81q.31.32.73.48.42.15.93.15t.88-.12q.37-.11.64-.26.28-.14.49-.26t.4-.12q.27 0 .39.19l.61.77q-.35.41-.78.68-.44.28-.91.45-.47.16-.96.23t-.95.07q-.91 0-1.69-.3-.78-.31-1.36-.9t-.91-1.46-.33-2.02q0-.89.29-1.68.29-.78.83-1.36.54-.59 1.31-.93.78-.34 1.76-.34.82 0 1.52.27.7.26 1.2.77.5.5.79 1.24.28.73.28 1.68 0 .47-.1.64-.1.16-.39.16m7.54 1.52v-3.91q-.36-.44-.78-.62-.42-.17-.91-.17-.47 0-.85.17-.39.18-.66.54t-.42.92q-.14.56-.14 1.32t.12 1.29q.13.53.36.87.23.33.56.48t.74.15q.65 0 1.11-.27t.87-.77m0-10.05h2.1v12.63h-1.29q-.41 0-.52-.38l-.18-.84q-.53.6-1.21.97-.69.38-1.6.38-.71 0-1.31-.3-.59-.3-1.02-.86-.43-.57-.66-1.4-.24-.83-.24-1.9 0-.97.27-1.81.26-.83.75-1.44.5-.61 1.18-.96.69-.34 1.55-.34.73 0 1.25.23t.93.62zm4.24 3.91h2.11v8.72h-2.11zm2.4-2.54q0 .27-.11.51-.12.24-.3.41-.18.18-.43.29-.24.1-.52.1t-.52-.1q-.24-.11-.42-.29-.18-.17-.28-.41-.11-.24-.11-.51 0-.28.11-.53.1-.25.28-.42.18-.18.42-.29t.52-.11.52.11q.25.11.43.29.18.17.3.42.11.25.11.53m6.46 9.01v-1.47q-.91.04-1.53.15-.62.12-1 .3-.37.18-.53.41-.17.24-.17.52 0 .55.33.79t.86.24q.64 0 1.11-.23.48-.24.93-.71m-4.44-4.58-.38-.68q1.51-1.37 3.63-1.37.76 0 1.36.25.61.25 1.02.7.42.44.64 1.06.21.62.21 1.36v5.51h-.95q-.3 0-.46-.09t-.25-.36l-.19-.63q-.33.3-.64.52-.32.23-.66.38t-.73.24q-.38.08-.85.08-.55 0-1.02-.15t-.81-.45-.52-.74q-.19-.44-.19-1.03 0-.33.11-.66.11-.32.36-.62t.65-.56.98-.46 1.36-.32q.77-.12 1.77-.15v-.51q0-.87-.38-1.29-.37-.43-1.08-.43-.51 0-.84.12-.34.12-.59.27l-.47.27q-.21.12-.46.12-.22 0-.37-.12-.16-.11-.25-.26m15.21.72h1.7q.63 0 1.1-.16t.78-.45.46-.71.15-.94q0-.5-.15-.9-.15-.39-.46-.68-.3-.28-.77-.42-.47-.15-1.11-.15h-1.7zm-2.29-6.18h3.99q1.24 0 2.14.29t1.48.81q.59.51.88 1.24.28.72.28 1.58 0 .89-.3 1.63-.29.75-.89 1.28-.59.54-1.49.84-.9.29-2.1.29h-1.7v4.33h-2.29zm12.04 4.1.13.98q.41-.78.97-1.23.56-.44 1.33-.44.6 0 .96.26l-.13 1.57q-.04.16-.12.22-.09.06-.22.06t-.38-.04-.49-.04q-.35 0-.62.1t-.49.29q-.21.2-.38.47t-.31.62v5.37h-2.1v-8.72h1.23q.33 0 .45.11.13.12.17.42m6.15 2.83h3.96q0-.41-.11-.77-.12-.36-.35-.64-.23-.27-.58-.43-.35-.15-.82-.15-.91 0-1.43.52-.53.51-.67 1.47m5.35 1.26h-5.39q.05.67.23 1.16.19.49.5.81.3.32.72.48.42.15.93.15t.88-.12q.37-.11.65-.26.28-.14.49-.26.2-.12.4-.12.26 0 .39.19l.6.77q-.35.41-.78.68-.43.28-.9.45-.48.16-.96.23-.49.07-.95.07-.91 0-1.69-.3-.79-.31-1.36-.9-.58-.59-.91-1.46t-.33-2.02q0-.89.28-1.68.29-.78.83-1.36.54-.59 1.32-.93t1.76-.34q.82 0 1.52.27.69.26 1.2.77.5.5.78 1.24.29.73.29 1.68 0 .47-.11.64-.1.16-.39.16m8.27-4.62h1.66l-3.46 8.72h-1.9l-3.46-8.72h1.73q.24 0 .4.11t.21.28l1.68 4.66q.14.41.24.8t.18.78q.08-.39.18-.78t.25-.8l1.72-4.66q.06-.17.21-.28t.36-.11m2.84 0h2.11v8.72h-2.11zm2.4-2.54q0 .27-.11.51t-.29.41q-.19.18-.43.29-.25.1-.53.1-.27 0-.51-.1-.25-.11-.42-.29-.18-.17-.29-.41t-.11-.51q0-.28.11-.53t.29-.42q.17-.18.42-.29.24-.11.51-.11.28 0 .53.11.24.11.43.29.18.17.29.42t.11.53m3.51 5.9h3.96q0-.41-.11-.77-.12-.36-.35-.64-.23-.27-.58-.43-.35-.15-.82-.15-.91 0-1.43.52-.52.51-.67 1.47m5.36 1.26h-5.4q.05.67.24 1.16.18.49.49.81t.73.48q.42.15.93.15t.88-.12q.37-.11.64-.26.28-.14.49-.26t.4-.12q.26 0 .39.19l.61.77q-.35.41-.79.68-.43.28-.9.45-.47.16-.96.23t-.95.07q-.91 0-1.69-.3-.78-.31-1.36-.9t-.91-1.46-.33-2.02q0-.89.29-1.68.29-.78.83-1.36.53-.59 1.31-.93t1.76-.34q.82 0 1.52.27.7.26 1.2.77.5.5.78 1.24.29.73.29 1.68 0 .47-.1.64-.11.16-.39.16m12.92-4.62h1.59l-2.77 8.72h-1.68q-.29 0-.4-.37l-1.56-5.04q-.08-.26-.14-.51-.07-.25-.11-.51-.05.26-.11.52-.07.26-.15.51l-1.58 5.03q-.11.37-.46.37h-1.61l-2.76-8.72h1.67q.23 0 .39.11t.22.28l1.24 4.66q.1.38.17.75.07.36.12.73.1-.37.2-.73.11-.37.23-.75l1.44-4.68q.05-.17.2-.28t.36-.11h.93q.22 0 .38.11t.21.28l1.4 4.68q.11.38.21.75t.19.74q.11-.73.31-1.49l1.29-4.66q.06-.17.21-.28t.37-.11"/></svg>