<svg xmlns="http://www.w3.org/2000/svg" width="250" height="207" viewBox="0 0 250 207"><rect width="100%" height="100%" fill="#DDDDDD"/><path fill="#999999" d="M61.545 103.605q0 1.43-.47 2.65-.48 1.22-1.34 2.11-.87.89-2.08 1.39-1.22.5-2.7.5t-2.69-.5q-1.22-.5-2.08-1.39-.87-.89-1.35-2.11t-.48-2.65.48-2.65 1.35-2.11q.86-.89 2.08-1.39 1.21-.5 2.69-.5.99 0 1.86.23.88.23 1.6.65.73.42 1.31 1.02.58.59.99 1.33.4.74.62 1.6.21.87.21 1.82m-2.48 0q0-1.07-.29-1.92-.28-.85-.81-1.44-.54-.6-1.3-.91-.76-.32-1.71-.32t-1.71.32q-.77.31-1.3.91-.54.59-.82 1.44-.29.85-.29 1.92t.29 1.92q.28.85.82 1.44.53.59 1.3.91.76.31 1.71.31t1.71-.31q.76-.32 1.3-.91.53-.59.81-1.44.29-.85.29-1.92m4.29-6.86h2.22v13.37h-2.22zm10.24 10.63v-4.14q-.38-.46-.82-.64-.45-.19-.96-.19t-.91.19q-.41.18-.7.57-.28.38-.44.97-.15.59-.15 1.39 0 .81.13 1.37t.37.92q.25.36.6.51.35.16.78.16.69 0 1.18-.29t.92-.82m0-10.63h2.22v13.37h-1.36q-.44 0-.56-.41l-.18-.89q-.56.64-1.29 1.04-.72.4-1.68.4-.76 0-1.39-.32t-1.08-.91q-.46-.6-.71-1.48-.24-.89-.24-2.02 0-1.03.27-1.91.28-.88.81-1.53.52-.65 1.25-1.01.73-.37 1.63-.37.78 0 1.33.25.55.24.98.65zm21.43.36h1.82v13.01h-2.13v-8.41q0-.5.06-1.09l-3.94 7.39q-.28.53-.85.53h-.34q-.58 0-.86-.53l-3.98-7.41q.03.29.05.58t.02.53v8.41h-2.14v-13.01h2.11q.12.01.21.05t.17.12.15.21l3.9 7.23q.15.29.28.59.13.31.26.63.12-.33.26-.64.13-.31.29-.6l3.84-7.21q.07-.13.15-.21t.18-.12q.09-.04.21-.05zm6.13 7.33h4.19q0-.43-.12-.81-.12-.39-.37-.67-.24-.29-.61-.46-.38-.17-.87-.17-.96 0-1.52.55-.55.55-.7 1.56m5.67 1.34h-5.72q.06.71.25 1.23.2.52.53.86.32.33.77.5.44.17.98.17t.93-.13.69-.28q.29-.15.51-.28.22-.12.43-.12.28 0 .41.2l.64.81q-.37.43-.83.73-.46.29-.96.47-.5.17-1.01.24-.52.08-1.01.08-.96 0-1.79-.32t-1.44-.95-.96-1.55-.35-2.14q0-.94.3-1.77.31-.84.88-1.45.57-.62 1.4-.98.82-.36 1.85-.36.88 0 1.62.28.73.28 1.26.82.54.53.84 1.31t.3 1.78q0 .5-.11.68-.11.17-.41.17m7.98 1.6v-4.14q-.38-.46-.82-.64-.45-.19-.96-.19t-.91.19q-.41.18-.69.57-.29.38-.45.97-.15.59-.15 1.39 0 .81.13 1.37t.38.92q.24.36.59.51.35.16.78.16.7 0 1.18-.29.49-.29.92-.82m0-10.63h2.22v13.37h-1.36q-.44 0-.55-.41l-.19-.89q-.56.64-1.29 1.04-.72.4-1.68.4-.76 0-1.39-.32t-1.08-.91q-.46-.6-.71-1.48-.24-.89-.24-2.02 0-1.03.28-1.91.27-.88.8-1.53.52-.65 1.25-1.01.73-.37 1.64-.37.77 0 1.32.25.55.24.98.65zm4.49 4.14h2.23v9.23h-2.23zm2.54-2.7q0 .29-.12.54-.12.26-.31.45-.19.18-.45.3-.26.11-.56.11-.29 0-.55-.11-.25-.12-.44-.3-.19-.19-.3-.45-.12-.25-.12-.54t.12-.55q.11-.26.3-.45t.44-.3q.26-.12.55-.12.3 0 .56.12.26.11.45.3t.31.45.12.55m6.84 9.54v-1.55q-.96.04-1.62.16-.66.13-1.05.31-.4.19-.57.45-.17.25-.17.54 0 .59.34.84.35.25.91.25.68 0 1.18-.24.5-.25.98-.76m-4.7-4.85-.4-.71q1.6-1.46 3.84-1.46.81 0 1.45.27t1.08.74.67 1.13q.23.65.23 1.44v5.83h-1.01q-.32 0-.49-.09-.17-.1-.27-.39l-.19-.66q-.36.31-.69.55t-.69.4-.77.25q-.41.08-.91.08-.58 0-1.08-.15-.49-.16-.85-.48-.36-.31-.56-.78t-.2-1.09q0-.35.12-.7.12-.34.38-.66.27-.31.69-.59t1.04-.49q.62-.2 1.44-.33.82-.14 1.87-.16v-.54q0-.93-.4-1.37-.39-.45-1.14-.45-.54 0-.9.13-.35.12-.62.28t-.49.28q-.22.13-.49.13-.24 0-.4-.12t-.26-.29m16.1.77h1.81q.67 0 1.16-.17.5-.16.83-.47.32-.32.49-.76.16-.45.16-1 0-.52-.16-.94-.17-.42-.49-.72t-.82-.45q-.49-.16-1.17-.16h-1.81zm-2.42-6.54h4.23q1.31 0 2.26.3.95.31 1.57.86.63.55.93 1.31.3.77.3 1.67 0 .95-.32 1.74-.31.78-.94 1.35t-1.58.88q-.95.32-2.22.32h-1.81v4.58h-2.42zm12.75 4.33.14 1.05q.43-.83 1.02-1.3.6-.48 1.41-.48.64 0 1.02.28l-.14 1.67q-.04.16-.13.23t-.23.07q-.13 0-.4-.05-.27-.04-.52-.04-.37 0-.65.1-.29.11-.52.31-.23.21-.41.49-.17.29-.33.66v5.69h-2.22v-9.23h1.31q.34 0 .47.12.14.12.18.43m6.51 3h4.19q0-.43-.12-.81-.12-.39-.36-.67-.24-.29-.62-.46-.37-.17-.87-.17-.96 0-1.51.55-.56.55-.71 1.56m5.67 1.34h-5.71q.05.71.25 1.23t.52.86q.32.33.77.5.44.17.98.17t.94-.13q.39-.13.68-.28t.51-.28q.22-.12.43-.12.28 0 .41.2l.64.81q-.37.43-.82.73-.46.29-.96.47-.5.17-1.02.24-.52.08-1 .08-.97 0-1.79-.32-.83-.32-1.44-.95-.62-.63-.97-1.55t-.35-2.14q0-.94.31-1.77.3-.84.88-1.45.57-.62 1.39-.98t1.86-.36q.87 0 1.61.28t1.27.82q.53.53.83 1.31t.3 1.78q0 .5-.11.68-.1.17-.41.17m8.76-4.89h1.75l-3.66 9.23h-2.02l-3.66-9.23h1.84q.25 0 .42.11.16.12.22.3l1.78 4.93q.14.43.25.85.11.41.19.83.09-.42.2-.83.1-.42.26-.85l1.82-4.93q.06-.18.22-.3.16-.11.39-.11m3 0h2.24v9.23h-2.24zm2.54-2.7q0 .29-.12.54-.11.26-.31.45-.19.18-.45.3-.26.11-.56.11-.29 0-.54-.11-.26-.12-.45-.3-.19-.19-.3-.45-.11-.25-.11-.54t.11-.55.3-.45.45-.3q.25-.12.54-.12.3 0 .56.12.26.11.45.3.2.19.31.45.12.26.12.55m3.72 6.25h4.19q0-.43-.12-.81-.12-.39-.36-.67-.25-.29-.62-.46t-.87-.17q-.96 0-1.51.55-.56.55-.71 1.56m5.67 1.34h-5.72q.06.71.26 1.23.19.52.52.86.32.33.77.5.44.17.98.17t.93-.13q.4-.13.69-.28t.51-.28q.22-.12.43-.12.28 0 .41.2l.64.81q-.37.43-.83.73-.46.29-.95.47-.5.17-1.02.24-.52.08-1.01.08-.96 0-1.79-.32-.82-.32-1.44-.95-.61-.63-.96-1.55t-.35-2.14q0-.94.31-1.77.3-.84.87-1.45.57-.62 1.4-.98.82-.36 1.86-.36.87 0 1.61.28t1.27.82q.53.53.83 1.31t.3 1.78q0 .5-.11.68-.11.17-.41.17m13.68-4.89h1.69l-2.93 9.23h-1.79q-.3 0-.42-.4l-1.65-5.33q-.09-.27-.15-.54-.07-.26-.12-.53-.05.27-.12.54-.06.27-.15.54l-1.68 5.32q-.11.4-.48.4h-1.71l-2.92-9.23h1.77q.25 0 .42.11.17.12.22.3l1.32 4.93q.1.41.18.79.08.39.13.78.1-.39.21-.78.11-.38.24-.79l1.53-4.95q.05-.18.21-.3.16-.11.38-.11h.99q.23 0 .4.11.16.12.22.3l1.48 4.95q.12.41.22.8.11.39.2.78.12-.77.34-1.58l1.36-4.93q.06-.18.22-.3.16-.11.39-.11"/></svg>